<?xml version="1.0" standalone="no"?>
<!DOCTYPE svg PUBLIC "-//W3C//DTD SVG 1.1//EN" "http://www.w3.org/Graphics/SVG/1.1/DTD/svg11.dtd" >
<svg xmlns="http://www.w3.org/2000/svg">
<metadata></metadata>
<defs>
<font id="blogger_sansbold" horiz-adv-x="1182" >
<font-face units-per-em="2048" ascent="1556" descent="-492" />
<missing-glyph horiz-adv-x="656" />
<glyph horiz-adv-x="0" />
<glyph horiz-adv-x="682" />
<glyph unicode=" "  horiz-adv-x="656" />
<glyph unicode="&#x09;" horiz-adv-x="656" />
<glyph unicode="&#xa0;" horiz-adv-x="656" />
<glyph unicode="!" horiz-adv-x="584" d="M111 150.5q0 69.5 54 119.5t130 50q74 0 128 -50t54 -119t-54 -119.5t-128 -50.5q-76 0 -130 50t-54 119.5zM138 1422q0 57 45 99.5t108 42.5q62 0 108 -42.5t46 -99.5l-22 -922q-2 -49 -41.5 -86t-90.5 -37q-56 0 -93.5 36t-37.5 87z" />
<glyph unicode="&#x22;" horiz-adv-x="838" d="M123 1102l44 458q8 47 55 77t100 24q56 -8 88 -50t19 -88q-18 -74 -49 -225t-54 -238q-9 -35 -45 -55.5t-78 -15.5q-38 6 -60.5 40.5t-19.5 72.5zM445 1102l44 458q8 47 55 77t100 24q56 -8 88 -50t19 -88q-18 -74 -49 -225t-54 -238q-9 -35 -44.5 -55.5t-77.5 -15.5 q-37 6 -60.5 40.5t-20.5 72.5z" />
<glyph unicode="#" horiz-adv-x="1272" d="M71 594q0 58 45.5 99t104.5 41h57l23 83h-14q-64 0 -107.5 40.5t-43.5 100.5q0 58 45.5 98t105.5 40h79l88 359q14 50 53.5 76.5t97.5 26.5q52 -5 92.5 -44t38.5 -90q0 -17 -4 -28l-73 -300h102l88 359q14 50 53.5 76.5t96.5 26.5q57 -5 96 -44.5t36 -93.5q0 -7 -4 -24 l-73 -300q58 -2 102.5 -42t44.5 -96q0 -60 -43.5 -100.5t-107.5 -40.5h-61l-23 -83h18q60 0 105.5 -41t45.5 -99q0 -60 -43 -100t-108 -40h-83l-88 -364q-14 -50 -54.5 -76.5t-97.5 -26.5q-56 3 -94 42.5t-38 93.5l4 19l74 312h-101l-88 -364q-14 -50 -53.5 -76.5 t-96.5 -26.5q-55 5 -94.5 44t-39.5 92l4 19l75 312q-61 3 -101.5 42.5t-40.5 97.5zM572 734h101l21 83h-100z" />
<glyph unicode="$" horiz-adv-x="1152" d="M67 256.5q0 51.5 40.5 95t113.5 43.5q38 0 84.5 -16t102 -33.5t111.5 -21.5v327q-175 55 -251 98q-172 96 -194 275q-3 28 -3 59q0 185 119.5 294t328.5 120v109q0 23 17 40t40.5 17t40 -17t16.5 -40v-109q51 -3 99 -9.5t101.5 -21.5t93.5 -36t66 -55t26 -76 q0 -57 -43 -96.5t-108 -39.5q-33 0 -65.5 12t-75 26t-94.5 18v-307q12 -4 35 -12q61 -21 92 -32t83.5 -33t79.5 -41t63 -50.5t53.5 -65.5t30.5 -81.5t13 -103.5q0 -128 -59 -225t-159 -150.5t-232 -67.5v-111q0 -24 -16 -41t-40.5 -17t-41 17t-16.5 41v107q-74 2 -149 15 t-145 37.5t-114 65.5t-44 92.5zM383 1094q0 -27 8.5 -48t23.5 -35t28.5 -22t31.5 -16l44 -20v264q-136 -19 -136 -123zM633 331q64 13 99 49t35 93q0 28 -8 49.5t-23 35.5t-27.5 22t-31.5 16l-44 17v-282z" />
<glyph unicode="%" horiz-adv-x="1627" d="M55 1183q0 111 39.5 196.5t120.5 136t193 50.5t193 -50.5t120.5 -136t39.5 -196.5q0 -109 -40 -195t-121 -137t-192 -51t-192 51t-121 137t-40 195zM309 169l11 24l738 1306q28 44 75 60t99 1q50 -15 78 -57t16 -90q-4 -20 -13 -39l-738 -1309q-26 -43 -74 -60t-104 -5 q-53 18 -77.5 67t-10.5 102zM314 1188q0 -143 94 -143t94 143q0 63 -24 98t-70.5 35t-70 -35t-23.5 -98zM868 364q0 109 40 194.5t121 137t192 51.5t191.5 -51.5t120.5 -137t40 -194.5q0 -110 -39.5 -195.5t-120 -136.5t-192.5 -51t-193 51t-120.5 136.5t-39.5 195.5z M1127 368q0 -142 94 -142t94 142q0 64 -24 99t-70.5 35t-70 -35t-23.5 -99z" />
<glyph unicode="&#x26;" horiz-adv-x="1493" d="M81 423q0 258 293 445q-144 171 -144 324q0 81 36.5 151t97 117t139 73.5t161.5 26.5q86 0 166 -28t136 -72t89.5 -100.5t33.5 -112.5q0 -68 -45.5 -107.5t-108.5 -39.5q-36 0 -62.5 14.5t-40 36.5t-28.5 47.5t-28.5 47.5t-39.5 36.5t-61 14.5q-57 0 -99.5 -32.5 t-42.5 -78.5q0 -44 36 -96t98 -115l370 -388l80 153q29 55 62.5 73.5t73.5 14.5q59 -5 103.5 -43t44.5 -95t-47 -147t-114 -181l138 -153q35 -41 35 -90q0 -56 -42.5 -97t-110.5 -41q-39 0 -66 15t-57 48l-94 103q-196 -166 -441 -166q-114 0 -212 33.5t-165.5 92.5 t-105.5 140.5t-38 175.5zM381 439q0 -78 56.5 -136t156.5 -58q135 0 257 110l-290 306q-41 -23 -69 -43.5t-55.5 -48t-41.5 -60.5t-14 -70z" />
<glyph unicode="'" horiz-adv-x="575" d="M155 1102l44 458q8 47 55.5 77t100.5 24q56 -8 88 -50t19 -88q-18 -74 -49 -225t-53 -238q-10 -35 -46 -55.5t-78 -15.5q-37 6 -60.5 40.5t-20.5 72.5z" />
<glyph unicode="(" horiz-adv-x="692" d="M121 506q0 247 63.5 486.5t194.5 438.5q46 68 129 68q73 0 111 -42.5t38 -104.5q0 -34 -30 -83q-202 -332 -202 -763q0 -429 202 -761q1 -2 5.5 -9.5t5.5 -10t4.5 -9t5 -10t4 -10t3 -11.5t1.5 -11.5t1 -12.5q0 -60 -38 -103t-111 -43q-82 0 -129 67q-131 199 -194.5 438 t-63.5 486z" />
<glyph unicode=")" horiz-adv-x="690" d="M33 -339q0 6 1 12.5t2 11.5t3 11.5t3.5 10t5 10t4.5 9t5.5 10t5.5 9.5q202 332 202 761q0 431 -202 763q-30 49 -30 83q0 62 38 104.5t111 42.5q83 0 129 -68q131 -199 194.5 -438.5t63.5 -486.5t-63.5 -486t-194.5 -438q-47 -67 -129 -67q-72 0 -110.5 43t-38.5 103z " />
<glyph unicode="*" horiz-adv-x="1173" d="M101 1238q0 59 36 97.5t78 38.5q15 0 21 -2l237 -88l-28 178q-8 52 31.5 95t111 43t111 -43t31.5 -95l-29 -178l240 88q6 2 21 2q42 0 78 -38.5t36 -97.5q0 -45 -31.5 -79.5t-78.5 -45.5l-182 -19l123 -141q38 -46 38 -91.5t-46.5 -86.5t-101.5 -41q-36 0 -67 16.5 t-51 44.5l-92 154l-89 -154q-20 -27 -51.5 -44t-67.5 -17q-55 0 -101 41t-46 86.5t38 91.5l123 141l-182 19q-47 11 -78.5 45.5t-31.5 79.5z" />
<glyph unicode="+" d="M27 776q0 58 45.5 98t105.5 40h263v282q0 56 44 98t107 42q64 0 107.5 -40t43.5 -100v-282h263q59 0 105 -40t46 -98q0 -60 -43.5 -100t-107.5 -40h-263v-283q0 -59 -43.5 -98.5t-107.5 -39.5q-63 0 -107 42t-44 96v283h-263q-65 0 -108 40t-43 100z" />
<glyph unicode="," horiz-adv-x="590" d="M111 151q0 69 54 119t130 50q75 0 128.5 -50t53.5 -128q0 -50 -17 -125.5t-44 -148t-66.5 -124t-77.5 -51.5q-16 0 -31 3.5t-31 13t-24 30.5t-4 51q3 31 17 59.5t31.5 62.5t24.5 74q-63 13 -103.5 59t-40.5 105z" />
<glyph unicode="-" horiz-adv-x="961" d="M61 657q0 55 43 94.5t105 39.5h545q61 0 103 -39.5t42 -94.5q0 -57 -41.5 -95.5t-103.5 -38.5h-545q-63 0 -105.5 38t-42.5 96z" />
<glyph unicode="." horiz-adv-x="590" d="M111 150.5q0 69.5 54 119.5t130 50q74 0 128 -50t54 -119t-54 -119.5t-128 -50.5q-76 0 -130 50t-54 119.5z" />
<glyph unicode="/" horiz-adv-x="788" d="M-35 61l572 1508q20 50 65.5 74.5t98.5 14.5q55 -9 90.5 -55t30.5 -98q-3 -17 -11 -33l-562 -1476q-20 -50 -66 -75t-100 -17q-61 11 -98.5 58.5t-19.5 98.5z" />
<glyph unicode="0" d="M86 460v603q0 88 18.5 165t58 143t98 113t143 74t188 27t188 -27t143 -74t98.5 -113t58.5 -143t18.5 -165v-603q0 -101 -34 -188t-96.5 -152t-159.5 -102t-216.5 -37t-216 37t-159.5 102t-96.5 152t-33.5 188zM391 460q0 -96 52 -153.5t148.5 -57.5t149 57.5t52.5 153.5 v619q0 111 -49 174.5t-152.5 63.5t-152 -63.5t-48.5 -174.5v-619z" />
<glyph unicode="1" d="M129 1163q0 83 68 123l434 255q43 23 86 23q69 0 115 -42t46 -104v-1295q0 -56 -45 -98t-108 -42t-108 41.5t-45 98.5v1065l-173 -105q-36 -23 -65.5 -34.5t-63.5 -11.5q-26 0 -50 6.5t-45 20.5t-33.5 39.5t-12.5 59.5z" />
<glyph unicode="2" d="M77 144q0 65 17 103q18 40 43.5 81t46.5 71.5t58.5 72.5t57 63t67 66t63 58.5t68.5 61.5q17 16 53.5 47.5t58.5 51.5t54 51t51.5 57t39 57.5t29 64.5t9.5 67q0 87 -53.5 143.5t-152.5 56.5q-97 0 -184 -35q-14 -6 -44 -22.5t-57 -26.5t-55 -10q-59 0 -104 37.5t-45 96.5 q0 46 34.5 85t87.5 64.5t120 44t130.5 26.5t119.5 8q117 0 213.5 -35t160 -95.5t98 -141.5t34.5 -173q0 -131 -45 -229.5t-129 -185.5q-54 -57 -150 -141.5t-176 -161.5t-132 -148h489q65 0 108 -39t43 -97t-43.5 -98t-107.5 -40h-721q-68 0 -111.5 41.5t-43.5 102.5z" />
<glyph unicode="3" d="M92 193q0 55 42 95t102 40q31 0 65.5 -12.5t63 -27.5t74.5 -28t96 -13q55 0 99 15t72 39t46.5 56.5t26 66t7.5 69.5q0 201 -249 201q-28 0 -56.5 -11.5t-55.5 -11.5q-60 0 -101.5 42t-41.5 102q0 34 17 53l326 397h-353q-64 0 -107.5 40t-43.5 98q0 60 43.5 102t107.5 42 h611q70 0 115 -42t45 -107q0 -55 -35 -99l-298 -354q174 -32 277.5 -148t103.5 -291q0 -73 -19.5 -145t-63 -141t-105.5 -121.5t-154.5 -84t-202.5 -31.5q-31 0 -70 3t-93 10.5t-103 23t-92.5 37.5t-69.5 57t-26 79z" />
<glyph unicode="4" d="M55 449q0 8 6.5 33t15.5 44l421 971q15 38 53.5 62t81.5 24q58 0 104.5 -43t46.5 -100q0 -30 -8 -49q-64 -147 -179 -408.5t-179 -407.5h274v335q0 59 43.5 98.5t107.5 39.5q62 0 107 -40t45 -98v-335h28q62 0 105 -40.5t43 -95.5q0 -58 -43 -98t-105 -40h-28v-180 q0 -59 -43.5 -98.5t-108 -39.5t-108 39.5t-43.5 98.5v180h-481q-68 0 -112 44t-44 104z" />
<glyph unicode="5" d="M92 193q0 55 42.5 95t104.5 40q28 0 61.5 -12.5t62 -27.5t74.5 -28t96 -13q56 0 100.5 15t73 39t46.5 58t25.5 70t7.5 77q0 117 -57.5 177t-151.5 60q-67 0 -121 -28q-10 -8 -26.5 -19.5t-58 -30.5t-72.5 -19q-67 0 -111.5 42t-43.5 107l23 606q1 66 51 106t115 40h528 q32 0 60.5 -7.5t53 -23t39 -43.5t14.5 -64q0 -35 -14.5 -62t-39 -42t-53 -22.5t-60.5 -7.5h-409l-13 -284q58 17 142 17q150 0 265 -58t180 -170.5t65 -264.5q0 -79 -17.5 -153.5t-57.5 -144t-98 -121t-144.5 -82.5t-190.5 -31q-31 0 -72.5 3t-100 10.5t-112 23t-101.5 37.5 t-76.5 57t-28.5 79z" />
<glyph unicode="6" d="M67 734q0 405 138 617.5t413 212.5q28 0 60.5 -2t79.5 -7.5t88.5 -18t80 -30t63.5 -46.5t29 -66q6 -53 -32 -94.5t-104 -41.5q-34 0 -109.5 20t-129.5 21q-61 1 -106 -17t-72.5 -48t-45.5 -79t-26 -98.5t-13 -118.5q108 66 237 66q102 0 191 -32t158 -92.5t108.5 -157.5 t39.5 -218q0 -86 -20 -163.5t-62.5 -143.5t-103.5 -114t-147.5 -75t-189.5 -27q-119 0 -210 37t-150 101.5t-96.5 161t-53 207t-15.5 246.5zM374 629q0 -62 5.5 -112.5t21 -100t40 -83t66 -54t95.5 -20.5q57 0 98.5 19.5t65 54.5t34.5 77t11 92q0 114 -56 171t-159 57 q-64 0 -124 -20.5t-98 -54.5v-26z" />
<glyph unicode="7" d="M88 1407q0 58 43 99t105 41h702q65 0 111.5 -42t46.5 -104q0 -41 -13 -65l-546 -1265q-38 -88 -136 -88q-65 0 -111.5 34.5t-46.5 93.5q0 34 12 60l479 1096h-498q-60 0 -104 40.5t-44 99.5z" />
<glyph unicode="8" d="M40 445q0 229 217 370q-163 125 -163 320q0 98 39.5 179.5t107 135t157.5 83t192 29.5q138 0 251 -52.5t178.5 -148.5t65.5 -217q0 -188 -163 -314q220 -143 220 -376q0 -101 -41 -188.5t-112.5 -150.5t-174.5 -98.5t-222 -35.5q-157 0 -283.5 59.5t-197.5 165.5t-71 239 zM345 454q0 -89 70.5 -148t176 -59t175.5 60t70 147q0 59 -36 106.5t-91 76.5t-125 45q-107 -23 -173.5 -83t-66.5 -145zM397 1137q0 -71 56.5 -121t142.5 -67q83 19 135.5 69.5t52.5 118.5q0 70 -55.5 116t-136.5 46q-83 0 -139 -46t-56 -116z" />
<glyph unicode="9" d="M67 1041q0 86 20.5 163.5t63 143.5t104 114t147.5 75t190 27q119 0 209.5 -37t149.5 -101.5t96 -161t52.5 -206.5t15.5 -247q0 -405 -137 -617.5t-413 -212.5q-28 0 -60.5 2t-79 7.5t-88.5 18t-80.5 30t-63 46.5t-28.5 66q-7 53 31 94.5t105 41.5q33 0 108.5 -20.5 t129.5 -21.5q61 -1 106 17t72.5 48t45.5 79.5t26.5 99t12.5 118.5q-108 -66 -237 -66q-102 0 -191 32t-158 93t-109 157.5t-40 217.5zM372 1043q0 -114 56.5 -171t158.5 -57q65 0 124.5 20t97.5 54v27q0 62 -5.5 112.5t-20.5 100t-40 83t-66 54t-96 20.5q-56 0 -97.5 -19.5 t-65 -54.5t-35 -77t-11.5 -92z" />
<glyph unicode=":" horiz-adv-x="590" d="M111 150.5q0 69.5 54 119.5t130 50q74 0 128 -50t54 -119t-54 -119.5t-128 -50.5q-76 0 -130 50t-54 119.5zM111 807.5q0 69.5 54 119.5t130 50q74 0 128 -50t54 -119t-54 -119.5t-128 -50.5q-76 0 -130 50t-54 119.5z" />
<glyph unicode=";" horiz-adv-x="590" d="M111 151q0 69 54 119t130 50q75 0 128.5 -50t53.5 -128q0 -50 -17 -125.5t-44 -148t-66.5 -124t-77.5 -51.5q-16 0 -31 3.5t-31 13t-24 30.5t-4 51q3 31 17 59.5t31.5 62.5t24.5 74q-63 13 -103.5 59t-40.5 105zM111 809q0 69 54 118.5t130 49.5q74 0 128 -49.5 t54 -118.5t-54 -120t-128 -51q-76 0 -130 50.5t-54 120.5z" />
<glyph unicode="&#x3c;" horiz-adv-x="1456" d="M127 771q0 32 7.5 55t25.5 40t32.5 26t43.5 24l875 420q13 8 35.5 12t34.5 4q66 0 107.5 -41.5t41.5 -101.5q0 -37 -27 -72.5t-69 -55.5l-669 -310l669 -309q42 -20 69 -55.5t27 -71.5q0 -61 -41.5 -101.5t-107.5 -40.5q-9 0 -32.5 4.5t-37.5 11.5l-872 418 q-29 15 -44.5 24.5t-33.5 26.5t-26 40t-8 53z" />
<glyph unicode="=" d="M113 572q0 58 46.5 99.5t105.5 41.5h653q59 0 105 -41t46 -100t-43.5 -100t-107.5 -41h-653q-64 0 -108 41t-44 100zM113 979q0 58 46.5 98t105.5 40h653q60 0 105.5 -40t45.5 -98q0 -59 -43.5 -99.5t-107.5 -40.5h-653q-64 0 -108 40.5t-44 99.5z" />
<glyph unicode="&#x3e;" horiz-adv-x="1456" d="M127 335q0 36 27 71.5t70 55.5l668 309l-668 310q-42 20 -69.5 55.5t-27.5 72.5q0 60 41.5 101.5t107.5 41.5q12 0 35 -4t36 -12l874 -420q29 -15 43.5 -24t32.5 -26t25.5 -40t7.5 -55q0 -30 -8 -53t-26 -40t-33.5 -26.5t-43.5 -24.5l-872 -418q-14 -7 -37.5 -11.5 t-33.5 -4.5q-66 0 -107.5 40.5t-41.5 101.5z" />
<glyph unicode="?" horiz-adv-x="1099" d="M59 1361q0 46 32.5 85t83.5 65t115.5 44t127 26t119.5 8q225 0 361.5 -126.5t136.5 -333.5q0 -120 -46 -214t-128 -183q-42 -46 -90 -94.5t-58 -58.5q-9 -9 -14 -30t-5 -39q-3 -62 -48 -101t-105 -39q-26 0 -52 9t-49.5 26.5t-38 48t-14.5 69.5q0 129 172 305q3 4 10 11 q27 28 42.5 44.5t41.5 50t40.5 60.5t26.5 64t12 73q0 82 -55.5 136t-161.5 54q-102 0 -174 -35q-14 -7 -39 -23.5t-47 -26t-48 -9.5q-57 0 -102.5 38t-45.5 96zM357 148.5q0 69.5 53.5 119.5t129 50t129.5 -50t54 -119t-54 -119.5t-129.5 -50.5t-129 50t-53.5 119.5z" />
<glyph unicode="@" horiz-adv-x="1717" d="M119 692q0 158 48 288t139.5 224.5t231 146.5t315.5 52q144 0 265.5 -35.5t209.5 -98.5t149.5 -149.5t92 -189t30.5 -215.5q0 -84 -18 -150.5t-56 -117.5t-101.5 -78.5t-149.5 -27.5q-141 0 -223 86q-54 -60 -98 -83.5t-105 -23.5q-159 0 -258.5 106t-99.5 277 q0 78 23 143.5t67.5 114.5t115 76.5t160.5 27.5q57 0 104 -11.5t80.5 -30t60 -47t43 -57.5t29.5 -67t19.5 -71t11.5 -73q1 -6 2 -18q3 -22 5 -33t6 -29t8.5 -27t11 -19.5t16 -14.5t21.5 -4q77 0 77 138q0 104 -32 192.5t-92.5 155.5t-156 105t-214.5 38q-118 0 -211.5 -37 t-154.5 -103.5t-93 -158t-32 -201.5q0 -109 31.5 -196.5t93.5 -152t160 -99.5t225 -35q70 0 121 12t132 42q38 8 72.5 8t64.5 -16t45 -46q8 -24 9 -44t-8 -38t-21 -31.5t-30 -26t-35 -21t-36 -15.5q-61 -25 -161 -42.5t-192 -17.5q-166 0 -301.5 52.5t-226.5 147 t-140.5 227.5t-49.5 292zM749 690q0 -73 26.5 -112t75.5 -39q44 0 109 44q-9 49 -10.5 60.5t-1 20t-1.5 37.5q-2 22 -3 32.5t-4 31t-9 31t-15.5 22.5t-24 17.5t-34.5 5.5q-108 0 -108 -151z" />
<glyph unicode="A" horiz-adv-x="1290" d="M33 121q0 32 7 48l427 1247q24 72 64 110t113 38t113.5 -37.5t66.5 -110.5l427 -1247q7 -19 7 -48q0 -62 -45 -101t-113 -39q-44 0 -88.5 29t-60.5 73l-77 222h-466l-73 -222q-15 -45 -59 -73.5t-86 -28.5q-65 0 -111 39.5t-46 100.5zM489 554h306l-111 375 q-21 69 -40 215q-18 -146 -39 -215z" />
<glyph unicode="B" horiz-adv-x="1274" d="M138 157v1230q0 66 50.5 112t120.5 46h370q96 0 177.5 -23.5t139 -64.5t98 -96t60 -117t19.5 -129q0 -200 -230 -310q271 -109 271 -345q0 -96 -38 -180t-106.5 -146t-172 -98t-226.5 -36h-362q-71 0 -121 46.5t-50 110.5zM445 278h245q106 0 161.5 49.5t55.5 136.5 q0 92 -57 143.5t-147 51.5h-258v-381zM445 941h252q30 0 59 10t54 30t40.5 53.5t15.5 76.5q0 69 -37 113.5t-116 44.5h-268v-328z" />
<glyph unicode="C" horiz-adv-x="1143" d="M77 556v435q0 131 34 235.5t101.5 180.5t174.5 116.5t249 40.5q114 0 219 -31.5t169.5 -86t64.5 -116.5q0 -54 -41.5 -93t-102.5 -39q-15 0 -26 1.5t-21 6t-15.5 7t-16.5 9.5t-15 10l-23 12q-81 53 -182 53q-141 0 -202 -78.5t-61 -227.5v-435q0 -149 61 -228t202 -79 q99 0 182 54l23 13q4 2 15 9t16.5 10t15.5 7t21 5.5t26 1.5q61 0 102.5 -39t41.5 -93q0 -62 -64.5 -116.5t-169.5 -86t-219 -31.5q-142 0 -249 40.5t-174.5 116.5t-101.5 180.5t-34 235.5z" />
<glyph unicode="D" horiz-adv-x="1301" d="M138 157v1232q0 64 51 111t120 47h247q145 0 259.5 -31t190 -84t125 -127.5t71 -157t21.5 -177.5v-376q0 -96 -21 -180.5t-70.5 -161.5t-125 -132t-190.5 -87.5t-260 -32.5h-247q-69 0 -120 46.5t-51 110.5zM445 278h149q87 0 151 24.5t100.5 69t53.5 99.5t17 123v376 q0 65 -17.5 117.5t-54.5 94t-100.5 64.5t-149.5 23h-149v-991z" />
<glyph unicode="E" horiz-adv-x="1125" d="M138 155v1234q0 60 49.5 108t119.5 48h594q62 0 107.5 -42t45.5 -100q0 -59 -44.5 -97.5t-108.5 -38.5h-456v-353h414q60 0 105.5 -40t45.5 -98q0 -60 -43.5 -100t-107.5 -40h-414v-358h477q62 0 108 -40t46 -96q0 -59 -45.5 -100.5t-108.5 -41.5h-581q-42 0 -77 8 t-64 25t-45.5 48t-16.5 74z" />
<glyph unicode="F" horiz-adv-x="1125" d="M138 121v1270q0 60 49.5 108t119.5 48h594q62 0 107.5 -42t45.5 -100q0 -59 -44.5 -97.5t-108.5 -38.5h-456v-355h414q60 0 105.5 -40t45.5 -98q0 -60 -43.5 -100t-107.5 -40h-414v-515q0 -56 -46 -98t-108 -42q-64 0 -108.5 41.5t-44.5 98.5z" />
<glyph unicode="G" horiz-adv-x="1226" d="M77 556v435q0 131 34 235.5t101.5 180.5t174.5 116.5t249 40.5q114 0 219 -31.5t169.5 -86t64.5 -116.5q0 -54 -41.5 -93t-102.5 -39q-15 0 -26 1.5t-21 6t-15.5 7t-16.5 9.5t-15 10l-23 12q-86 53 -182 53q-141 0 -202 -78.5t-61 -227.5v-435q0 -149 61 -228t202 -79 q96 0 182 46v343h-113q-56 0 -97 40.5t-41 97.5t41 97.5t97 40.5h238q80 0 130 -39t50 -114v-485q0 -60 -30 -109.5t-80 -83t-115 -56.5t-134 -33.5t-138 -10.5q-142 0 -249 40.5t-174.5 116.5t-101.5 180.5t-34 235.5z" />
<glyph unicode="H" horiz-adv-x="1357" d="M138 123v1301q0 57 44.5 98.5t108.5 41.5q62 0 108 -41.5t46 -98.5v-510h467v510q0 56 46 98t107 42t107.5 -42t46.5 -98v-1301q0 -58 -46 -100t-108 -42t-107.5 42.5t-45.5 99.5v510h-467v-510q0 -58 -45.5 -100t-108.5 -42q-64 0 -108.5 42t-44.5 100z" />
<glyph unicode="I" horiz-adv-x="584" d="M138 121v1303q0 57 44.5 98.5t108.5 41.5q62 0 108 -41.5t46 -98.5v-1303q0 -56 -46 -98t-108 -42q-64 0 -108.5 41.5t-44.5 98.5z" />
<glyph unicode="J" horiz-adv-x="930" d="M33 132q0 61 45.5 99.5t96.5 38.5q25 0 65.5 -6.5t68.5 -6.5q54 0 89.5 17t54.5 52.5t26.5 79.5t7.5 109v909q0 59 44 99.5t109 40.5q61 0 107 -42t46 -98v-909q0 -104 -15.5 -184t-51.5 -147.5t-93.5 -111t-145 -67.5t-202.5 -24q-252 0 -252 151z" />
<glyph unicode="K" horiz-adv-x="1217" d="M138 123v1301q0 57 44.5 98.5t108.5 41.5q62 0 108 -41.5t46 -98.5v-416l433 493q22 27 56.5 45t69.5 18q52 0 101.5 -42.5t49.5 -97.5q0 -28 -7 -47.5t-31 -46.5l-435 -493l479 -636q25 -33 25 -74q0 -52 -41.5 -99t-107.5 -47q-80 0 -127 63l-425 569l-40 -44v-446 q0 -58 -45.5 -100t-108.5 -42q-64 0 -108.5 42t-44.5 100z" />
<glyph unicode="L" horiz-adv-x="1102" d="M138 151v1273q0 57 44.5 98.5t108.5 41.5q62 0 108 -41.5t46 -98.5v-1148h475q60 0 104.5 -39.5t44.5 -96.5q0 -59 -43 -99.5t-106 -40.5h-617q-67 0 -116 44t-49 107z" />
<glyph unicode="M" horiz-adv-x="1662" d="M129 119v1301q0 62 45 103t113 41q110 0 154 -85l389 -774l391 776q41 83 151 83q67 0 112.5 -42t45.5 -102v-1301q0 -56 -45.5 -97t-106.5 -41q-63 0 -109 41t-46 97v753l-250 -491q-21 -41 -59 -61.5t-86 -20.5q-46 0 -83.5 20.5t-58.5 61.5l-249 491v-753 q0 -56 -47.5 -97t-111.5 -41q-62 0 -105.5 40.5t-43.5 97.5z" />
<glyph unicode="N" horiz-adv-x="1401" d="M138 123v1293q0 64 45.5 106t115.5 42q43 0 84 -22.5t64 -58.5q121 -209 509 -889v828q0 58 46 100t109 42t107.5 -42t44.5 -100v-1293q0 -62 -46 -105t-117 -43q-43 0 -84 21t-63 55l-508 886v-820q0 -58 -46.5 -100t-109.5 -42q-64 0 -107.5 42t-43.5 100z" />
<glyph unicode="O" horiz-adv-x="1336" d="M98 556v435q0 96 20 179.5t63.5 156.5t109 125t162 82t216.5 30t216 -30t161.5 -82t109 -125t63 -156.5t19.5 -179.5v-435q0 -121 -36.5 -224.5t-105.5 -182.5t-179 -123.5t-248.5 -44.5t-248 44.5t-179.5 123t-106.5 182.5t-36.5 225zM406 556q0 -136 66 -216.5 t196.5 -80.5t196.5 80t66 217v435q0 295 -262 295q-263 0 -263 -295v-435z" />
<glyph unicode="P" horiz-adv-x="1248" d="M138 125v1262q0 64 51 111t120 47h322q120 0 216 -28t159 -75t105.5 -113.5t60.5 -139.5t18 -156q0 -160 -69 -275t-194.5 -173.5t-295.5 -58.5h-186v-401q0 -58 -46 -101t-108 -43q-61 0 -107 42.5t-46 101.5zM445 805h186q252 0 252 230q0 232 -252 232h-186v-462z" />
<glyph unicode="Q" horiz-adv-x="1336" d="M98 556v435q0 96 20 179.5t63.5 156.5t109 125t162 82t216.5 30t216 -30t161.5 -82t109 -125t63 -156.5t19.5 -179.5v-435q0 -136 -43.5 -248.5t-135.5 -194.5t-222 -113q12 -58 35.5 -84.5t60.5 -26.5h64q68 0 109.5 -36t41.5 -98q0 -27 -6.5 -48t-16.5 -35t-29.5 -24 t-36.5 -15t-46 -8t-50.5 -3.5t-57.5 -0.5q-148 0 -244 99.5t-126 270.5q-142 27 -241.5 108.5t-147.5 198t-48 258.5zM406 556q0 -136 66 -216.5t196.5 -80.5t196.5 80t66 217v435q0 295 -262 295q-263 0 -263 -295v-435z" />
<glyph unicode="R" horiz-adv-x="1347" d="M138 125v1262q0 64 49.5 111t117.5 47h381q119 0 214 -26.5t155.5 -70.5t100.5 -105t56.5 -125.5t16.5 -136.5q0 -160 -80 -267.5t-225 -154.5l301 -450q25 -36 25 -71q0 -4 -1 -10q-4 -40 -26.5 -72.5t-58.5 -52.5t-73 -20q-85 0 -129 67l-368 577h-149v-502 q0 -58 -47 -101t-109 -43q-61 0 -106 42.5t-45 101.5zM445 903h245q113 0 172.5 46t59.5 132q0 186 -245 186h-232v-364z" />
<glyph unicode="S" horiz-adv-x="1152" d="M67 190q0 55 43 96.5t103 41.5q38 0 109 -25q3 -1 20 -6.5t23.5 -7.5t23 -7t26.5 -7.5t27.5 -6t31 -5t31 -3t34.5 -1.5q113 0 170.5 48.5t57.5 139.5q0 66 -25.5 99t-64.5 50q-69 29 -160 59q-60 18 -93.5 29t-88 34t-86 44t-70 56t-59 75t-35 95.5t-14.5 122.5 q0 211 136.5 332t371.5 121q45 0 96 -4t114 -17.5t112.5 -34t83.5 -57.5t34 -84q0 -57 -42 -97.5t-111 -40.5q-14 0 -29 2.5t-24.5 5t-27.5 8.5t-26 8q-31 11 -47 16t-50.5 11t-69.5 6q-43 0 -78.5 -8t-66 -26t-47.5 -51.5t-17 -80.5q0 -105 92 -147q69 -35 158 -59 q61 -19 94 -30.5t88.5 -34.5t86.5 -44t70.5 -56.5t60 -74.5t35.5 -94t15 -120q0 -112 -41 -203t-114 -151t-173 -92.5t-218 -32.5q-52 0 -111.5 6.5t-124 23t-116 40t-85 60t-33.5 79.5z" />
<glyph unicode="T" horiz-adv-x="1145" d="M33 1405q0 49 46 94.5t107 45.5h772q61 0 108 -41t47 -99q0 -56 -46.5 -97t-108.5 -41h-233v-1146q0 -57 -45 -98.5t-108 -41.5t-108.5 41.5t-45.5 98.5v1146h-232q-65 0 -109 40.5t-44 97.5z" />
<glyph unicode="U" horiz-adv-x="1340" d="M121 526v894q0 62 44.5 103t110.5 41q61 0 106 -42.5t45 -101.5v-894q0 -122 61.5 -194.5t182.5 -72.5q119 0 180 73t61 194v894q0 59 43.5 101.5t107.5 42.5q66 0 112 -42.5t46 -101.5v-894q0 -118 -37.5 -218t-107 -172.5t-174 -113.5t-231.5 -41q-130 0 -234.5 41 t-173.5 114t-105.5 173t-36.5 217z" />
<glyph unicode="V" horiz-adv-x="1276" d="M27 1424q0 62 45.5 101t111.5 39q42 0 85.5 -28.5t58.5 -73.5l270 -847q21 -69 40 -214q18 145 39 214l268 847q15 44 59.5 73t89.5 29q68 0 112.5 -39t44.5 -101q0 -32 -7 -48l-427 -1247q-25 -73 -65.5 -110.5t-113.5 -37.5t-113.5 38t-64.5 110l-427 1247q-6 16 -6 48 z" />
<glyph unicode="W" horiz-adv-x="1817" d="M27 1426q0 58 50.5 95t112.5 37q51 0 91 -26.5t52 -78.5l144 -566q14 -53 24.5 -113.5t21.5 -135t18 -115.5q7 34 26 165.5t35 198.5l130 516q11 43 22 69t31 49t50 33t75 10q78 0 116.5 -40t58.5 -121l127 -516q14 -54 24.5 -115t21 -135t17.5 -116q7 38 18.5 115 t22.5 137t25 114l140 560q13 52 51.5 81.5t89.5 29.5q40 0 77.5 -13.5t65 -45t27.5 -75.5q0 -15 -4 -28l-329 -1277q-17 -61 -61.5 -99.5t-118 -38.5t-118.5 39.5t-63 100.5l-130 536q-13 51 -22.5 109t-19.5 131t-16 111q-7 -38 -17 -111t-19.5 -131t-22.5 -109l-132 -540 q-41 -136 -180 -136q-63 0 -114.5 42.5t-67.5 95.5l-322 1266z" />
<glyph unicode="X" horiz-adv-x="1213" d="M27 123q0 40 21 74l379 605l-348 550q-18 37 -18 74q0 54 44.5 96t103.5 42q47 0 86 -28.5t65 -71.5l247 -408l248 408q13 19 25.5 33.5t32 31.5t44 26t51.5 9q58 0 101 -41t43 -99q0 -27 -19 -72l-347 -550l380 -605q22 -34 22 -74q0 -55 -45.5 -98.5t-101.5 -43.5 q-52 0 -84.5 23.5t-57.5 62.5l-292 483l-291 -483v4q-16 -25 -31 -42t-44.5 -32.5t-65.5 -15.5q-58 0 -103 43.5t-45 98.5z" />
<glyph unicode="Y" horiz-adv-x="1160" d="M27 1422q0 57 47.5 99.5t107.5 42.5q37 0 71.5 -16t53.5 -49l274 -543l272 543q19 33 53 49t73 16q60 0 108 -42.5t48 -99.5q0 -18 -15 -63l-384 -754v-480q0 -58 -45 -101t-110 -43t-110.5 42t-45.5 102v480l-385 754q-13 30 -13 63z" />
<glyph unicode="Z" horiz-adv-x="1148" d="M42 149q0 34 31 96q101 167 303 498t316 520h-495q-64 0 -107.5 40t-43.5 100q0 58 43.5 100t107.5 42h744q68 0 113.5 -42.5t45.5 -104.5q0 -43 -31 -94l-624 -1022h506q62 0 107.5 -40.5t45.5 -99.5t-45 -100.5t-108 -41.5h-752q-67 0 -112 43.5t-45 105.5z" />
<glyph unicode="[" horiz-adv-x="731" d="M147 -107v1709q0 70 50 103t129 33h224q56 0 101.5 -40.5t45.5 -93.5q0 -38 -15.5 -65.5t-41.5 -43t-56 -22.5t-63 -7h-69v-1437h69q36 0 66.5 -7t55.5 -22t39.5 -42.5t14.5 -64.5q0 -38 -16 -65.5t-42.5 -43t-56.5 -22.5t-63 -7h-224q-59 0 -103.5 41.5t-44.5 96.5z" />
<glyph unicode="\" horiz-adv-x="788" d="M-52 1505q-5 52 29.5 98t89.5 55q54 10 99.5 -14.5t65.5 -74.5l573 -1508q18 -51 -20 -98.5t-99 -58.5q-54 -8 -100.5 17t-66.5 75l-561 1476q-7 16 -10 33z" />
<glyph unicode="]" horiz-adv-x="731" d="M31 -107q0 38 15 66t41.5 42.5t56 21t65.5 6.5h69v1437h-69q-34 0 -63.5 6.5t-56.5 21t-42.5 43t-15.5 67.5q0 37 15.5 64t42.5 41.5t57 21.5t65 7h223q56 0 102.5 -42.5t46.5 -93.5v-1709q0 -58 -43 -98t-106 -40h-223q-34 0 -64.5 7t-57.5 22.5t-42.5 43t-15.5 65.5z " />
<glyph unicode="^" horiz-adv-x="801" d="M-17 1144q3 55 57 109l240 274q48 56 119 56q70 0 118 -56q40 -45 120.5 -137t121.5 -137q53 -54 56 -109q0 -55 -36 -88t-95 -33q-32 0 -63.5 15t-45.5 38q-28 32 -59 68.5t-57 66.5t-60 67l-175 -202q-17 -21 -49 -37t-62 -16q-59 0 -94.5 33t-35.5 88z" />
<glyph unicode="_" horiz-adv-x="1401" d="M-96 -345q0 59 45.5 100.5t105.5 41.5h1293q59 0 105 -41.5t46 -100.5t-43 -98.5t-108 -39.5h-1293q-65 0 -108 39.5t-43 98.5z" />
<glyph unicode="`" horiz-adv-x="518" d="M111 1508q0 44 34.5 75.5t73.5 31.5q33 0 49.5 -9t40.5 -33l17 -17l178 -174q11 -10 14 -22t3 -32q0 -47 -32.5 -77t-78.5 -30q-23 0 -41 6.5t-26.5 13.5t-31.5 26l-179 180q-21 29 -21 61z" />
<glyph unicode="a" horiz-adv-x="1143" d="M77 331v6q0 336 433 336q99 0 174 -22v70q0 151 -167 151q-29 0 -55.5 -5.5t-43 -11.5t-44.5 -18q-2 -1 -13.5 -6t-19 -7.5t-21.5 -5.5t-29 -3q-33 0 -58.5 12t-39.5 31.5t-21 41t-7 43.5q0 46 32.5 82.5t87 57t119 31.5t135.5 11q234 0 341 -113.5t107 -340.5v-408 q0 -19 3 -31t11 -19t14 -10t20 -7.5t21 -7.5q50 -19 50 -83q0 -56 -36.5 -85t-120.5 -29q-63 0 -106.5 20.5t-79.5 71.5q-123 -98 -296 -98q-188 0 -289 93t-101 253zM377 328q0 -53 32 -76.5t104 -23.5q97 0 171 57v158q-88 17 -155 17q-46 0 -77.5 -10t-47 -28.5 t-21.5 -39t-6 -47.5v-7z" />
<glyph unicode="b" horiz-adv-x="1171" d="M140 353v1096q0 55 41 94.5t110.5 39.5t110.5 -39.5t41 -94.5v-386q57 31 111 46.5t128 15.5q101 0 178 -27.5t123 -77.5t68.5 -115t22.5 -144v-368q0 -88 -29.5 -161.5t-86.5 -129t-147 -86.5t-204 -31q-109 0 -197.5 28.5t-147 78t-90.5 117t-32 144.5zM443 353 q0 -61 44.5 -96.5t121.5 -35.5q80 0 121 39.5t41 109.5v401q0 126 -150 126q-110 0 -178 -62v-482z" />
<glyph unicode="c" horiz-adv-x="970" d="M98 403v296q0 89 27.5 164t81.5 132.5t142.5 89.5t202.5 32q44 0 89 -4t98.5 -17t93.5 -33t67 -55.5t27 -80.5q0 -47 -31 -79.5t-105 -32.5q-35 0 -72 13q-8 3 -26 10.5t-28 10.5t-26.5 8t-33 7t-36.5 2q-168 0 -168 -167v-296q0 -167 168 -167q20 0 36.5 2t34.5 7 t25.5 7.5t29 11.5t24.5 10q32 13 67 13q41 0 70 -10t43.5 -27t21 -35.5t6.5 -39.5q0 -44 -27 -79.5t-67.5 -55.5t-93.5 -33t-99 -17.5t-90 -4.5q-113 0 -200.5 32t-141.5 89.5t-82 132.5t-28 164z" />
<glyph unicode="d" horiz-adv-x="1178" d="M98 414v247q0 454 417 454q53 0 94.5 -8.5t98.5 -32.5v375q0 58 40.5 96t110.5 38t110.5 -38.5t40.5 -95.5v-1167q0 -23 8.5 -37t33.5 -38q31 -32 31 -75q0 -62 -43.5 -98t-98.5 -36q-75 0 -132 83q-89 -48 -160 -72t-149 -24q-189 0 -295.5 117t-106.5 312zM401 414 q0 -85 36 -130t107 -45q69 0 169 46q-5 30 -5 41v511q-101 29 -160 29q-79 0 -113 -50t-34 -155v-247z" />
<glyph unicode="e" horiz-adv-x="1062" d="M98 368v366q0 84 30.5 155t88 123.5t147 82.5t201.5 30q209 0 319.5 -101.5t110.5 -272.5q0 -333 -426 -333q-73 0 -168 13v-71q0 -58 44.5 -91t131.5 -33t197 49q27 14 64.5 14t65.5 -12t42.5 -30.5t21.5 -38.5t7 -40q0 -44 -30.5 -79t-77 -55.5t-105 -34.5t-110 -19 t-98.5 -5q-106 0 -192.5 29.5t-144 81t-88.5 121.5t-31 151zM401 653q94 -9 158 -9q66 0 100.5 28t34.5 95q0 64 -32.5 93t-98.5 29q-78 0 -120 -37.5t-42 -104.5v-94z" />
<glyph unicode="f" horiz-adv-x="807" d="M140 123v1032q0 105 35.5 187.5t97.5 133.5t141.5 78t172.5 29q18 0 33.5 -0.5t44.5 -4t52 -8.5t50 -16.5t45 -26.5t30.5 -38.5t12.5 -53.5q0 -60 -43.5 -95.5t-106.5 -35.5q-21 0 -64 6.5t-64 6.5q-66 0 -100 -41.5t-34 -104.5v-108h162q61 0 102.5 -38t41.5 -94 t-41.5 -92.5t-102.5 -36.5h-162v-679q0 -58 -40.5 -95t-111 -37t-111 37t-40.5 95z" />
<glyph unicode="g" horiz-adv-x="1167" d="M77 -175q0 65 32.5 122t107.5 118q-46 80 -46 180q0 85 61 161q-140 117 -140 302q0 89 29.5 165t84.5 132t138.5 88t186.5 32q79 0 148 -19t145 -56q43 59 94 90t98 31q58 0 100.5 -37t42.5 -91q0 -25 -10.5 -46t-23.5 -33q-63 -55 -81.5 -80.5t-18.5 -68.5v-123 q0 -86 -29 -157.5t-86 -126t-148 -85t-208 -30.5q-65 0 -120 12q-13 -38 -13 -50q0 -71 62 -71h92q108 0 198.5 -20.5t159.5 -60.5t107.5 -105.5t38.5 -150.5q0 -114 -67 -200.5t-183.5 -132t-265.5 -45.5q-143 0 -253 43t-171.5 124t-61.5 189zM379 -153q0 -62 47 -95.5 t141 -33.5q95 0 152 32t57 90q0 49 -48 73t-149 24l-161 2q-21 -26 -30 -46.5t-9 -45.5zM395 703q0 -82 41 -127t127 -45q80 0 120 41.5t40 117.5v153q-86 38 -156 38q-83 0 -127.5 -46.5t-44.5 -131.5z" />
<glyph unicode="h" horiz-adv-x="1198" d="M140 121v1336q0 55 43 95.5t106 40.5q64 0 108 -39t44 -97v-392q97 60 207 60q103 0 182 -28.5t128 -80t73.5 -121t24.5 -155.5v-619q0 -57 -44.5 -96.5t-106.5 -39.5q-64 0 -107.5 39t-43.5 97v640q0 63 -29.5 93.5t-95.5 30.5q-48 0 -100 -18.5t-88 -53.5v-692 q0 -58 -43 -97t-107 -39t-107.5 39t-43.5 97z" />
<glyph unicode="i" horiz-adv-x="623" d="M140 1411q0 65 49.5 109t121.5 44t122 -45t50 -108q0 -64 -49.5 -108.5t-122.5 -44.5q-71 0 -121 45t-50 108zM160 121v863q0 55 44 94t107.5 39t107 -39t43.5 -94v-863q0 -58 -43 -97t-107.5 -39t-108 39t-43.5 97z" />
<glyph unicode="j" horiz-adv-x="623" d="M-92 -284q6 27 26.5 47t43.5 31t47 16q135 25 135 169v1005q0 55 44 94t107.5 39t107 -39t43.5 -94v-999q0 -191 -112.5 -308.5t-303.5 -117.5q-50 0 -87.5 25.5t-48.5 66.5q-5 21 -5 40q0 13 3 25zM140 1411q0 65 49.5 109t121.5 44t122 -45t50 -108q0 -64 -49.5 -108.5 t-122.5 -44.5q-71 0 -121 45t-50 108z" />
<glyph unicode="k" horiz-adv-x="1066" d="M140 121v1326q0 57 43.5 96.5t107.5 39.5t108 -39.5t44 -96.5v-696l302 328q36 36 104 36q62 0 104 -36.5t42 -91.5q0 -54 -42 -92h3l-268 -284l322 -425q25 -35 25 -81q-3 -55 -45 -87.5t-103 -32.5q-80 0 -124 61l-296 401l-24 -22v-304q0 -58 -44 -97t-108 -39 t-107.5 39t-43.5 97z" />
<glyph unicode="l" horiz-adv-x="586" d="M140 243v1204q0 55 44 95.5t107 40.5q64 0 108 -39.5t44 -96.5v-1177q0 -37 5 -51.5t27 -38.5q4 -4 12.5 -13t11.5 -13.5t7.5 -12.5t6.5 -17t2 -21q0 -59 -43 -88.5t-121 -29.5q-31 0 -56.5 4.5t-55.5 20.5t-50.5 42.5t-34.5 75.5t-14 115z" />
<glyph unicode="m" horiz-adv-x="1792" d="M92 960q0 57 42 93t100 36q70 0 117 -61q155 97 295 97q134 0 255 -97q94 50 169.5 73.5t161.5 23.5q192 0 305 -108t113 -285v-611q0 -59 -39 -96.5t-112 -37.5t-112 37.5t-39 96.5v607q0 59 -34 98.5t-93 39.5q-81 0 -176 -77q5 -39 5 -57v-611q0 -59 -39.5 -96.5 t-112 -37.5t-112 37.5t-39.5 96.5v567q0 41 -4.5 70.5t-16 55.5t-35 39t-58.5 13q-74 0 -186 -57q2 -7 2 -25v-663q0 -59 -39 -96.5t-111.5 -37.5t-112 37.5t-39.5 96.5v663q0 34 -3.5 54t-5.5 24t-9 14q-22 31 -29.5 48t-7.5 36z" />
<glyph unicode="n" horiz-adv-x="1202" d="M92 962q0 54 42 90.5t105 36.5q66 0 116 -64q144 95 289 95q202 0 308 -115t106 -313v-571q0 -58 -40 -96t-110.5 -38t-111 38t-40.5 96v571q0 82 -38.5 130t-104.5 48q-68 0 -168 -46q4 -30 4 -42v-661q0 -59 -39 -96.5t-111.5 -37.5t-112 37.5t-39.5 96.5v663 q0 34 -3.5 54t-5.5 24t-9 14q-23 32 -30 48t-7 38z" />
<glyph unicode="o" horiz-adv-x="1148" d="M98 393v326q0 87 31.5 161t90 129t150 86.5t205.5 31.5t205 -31.5t149.5 -86.5t89.5 -129t31 -161v-326q0 -87 -31 -161t-89.5 -129.5t-149.5 -86.5t-205 -31t-205.5 31.5t-150 86.5t-90 129t-31.5 161zM401 393q0 -70 45 -110t128.5 -40t128 39.5t44.5 110.5v328 q0 69 -44.5 108t-128 39t-128.5 -39t-45 -108v-328z" />
<glyph unicode="p" horiz-adv-x="1156" d="M92 956q0 58 44 95.5t100 37.5q64 0 115 -61q88 50 157.5 73.5t150.5 23.5q187 0 293 -118t106 -313v-253q0 -454 -418 -454q-50 0 -92.5 9t-98.5 35v-362q0 -58 -40 -95.5t-110 -37.5t-111 38.5t-41 94.5v1113q0 66 -24 103q-11 13 -16.5 21t-10 21.5t-4.5 28.5z M445 824q4 -30 4 -42v-517q98 -29 160 -29q79 0 113 49.5t34 155.5v253q0 86 -36.5 131t-106.5 45q-68 0 -168 -46z" />
<glyph unicode="q" horiz-adv-x="1171" d="M98 401v309q0 89 30 164t86.5 131t146.5 88t204 32q108 0 197 -29t148 -80t91 -119.5t32 -147.5v-1036q0 -58 -40 -96t-112.5 -38t-111.5 37.5t-39 96.5v331q-50 -30 -102 -43.5t-122 -13.5q-89 0 -158.5 20.5t-116 57t-76.5 89t-43.5 113.5t-13.5 134zM401 401 q0 -80 36.5 -122.5t118.5 -42.5q105 0 174 57v456q0 54 -44.5 85.5t-118.5 31.5q-83 0 -124.5 -40.5t-41.5 -115.5v-309z" />
<glyph unicode="r" horiz-adv-x="826" d="M92 958q0 57 44 94t105 37q63 0 116 -68q76 44 147.5 69t124.5 25q180 0 180 -131q0 -63 -45 -102q-42 -36 -100 -36h-9q-41 4 -75 4q-20 0 -36 -2q-46 -4 -99 -24q4 -30 4 -42v-661q0 -58 -43 -97t-107.5 -39t-108 39t-43.5 97v661q0 66 -24 103q-11 13 -16.5 21.5 t-10 22t-4.5 29.5z" />
<glyph unicode="s" horiz-adv-x="976" d="M81 155q0 50 40.5 90t102.5 39q32 0 110.5 -24t136.5 -24q62 0 98 22t36 66q0 47 -46 71q-30 16 -83.5 35t-101 33.5t-101 41.5t-91.5 60.5t-63 90t-25 128.5q0 156 109 248.5t314 92.5q47 0 92 -5t94 -18t85.5 -33t60 -53.5t23.5 -77.5q0 -33 -13 -56.5t-34.5 -35 t-41.5 -16t-40 -4.5q-35 0 -101 23t-123 23q-62 0 -94 -20.5t-32 -58.5q0 -24 15 -41t50 -31q24 -10 63.5 -24t72.5 -24.5t73.5 -27.5t72.5 -35t63.5 -45.5t52.5 -59.5t34 -77t13 -97q0 -162 -111.5 -254t-316.5 -92q-46 0 -95 4.5t-104 16.5t-97 30.5t-70 49t-28 69.5z" />
<glyph unicode="t" horiz-adv-x="790" d="M140 456v850q0 59 40.5 96.5t110.5 37.5t111 -38.5t41 -95.5v-243h162q61 0 102.5 -38t41.5 -94t-41.5 -92.5t-102.5 -36.5h-162v-331q0 -53 2 -85.5t9 -61t20 -42.5t34 -21.5t53 -7.5q11 0 24 1l13 1q101 0 140.5 -28t39.5 -91q0 -37 -12 -64t-30.5 -42t-47.5 -24 t-56.5 -12t-64.5 -3q-101 0 -174.5 20.5t-122 57t-77.5 95.5t-41 128.5t-12 163.5z" />
<glyph unicode="u" horiz-adv-x="1202" d="M140 414v573q0 57 40.5 93.5t111 36.5t111 -36.5t40.5 -93.5v-573q0 -85 35.5 -130t106.5 -45q69 0 169 46q-5 37 -5 41v661q0 58 39.5 94t112.5 36t112 -36t39 -94v-705q0 -23 8.5 -37t33.5 -38q31 -32 31 -75q0 -62 -43.5 -98t-97.5 -36q-76 0 -133 83 q-136 -96 -303 -96q-195 0 -301.5 116t-106.5 313z" />
<glyph unicode="v" horiz-adv-x="1029" d="M35 989q0 58 44 94.5t105 36.5q45 0 85.5 -26.5t54.5 -68.5l121 -368q17 -53 29 -113t24.5 -134.5t20.5 -114.5q8 42 20.5 115t24.5 133.5t28 113.5l113 366q14 41 56 67.5t88 26.5q61 0 104.5 -36.5t43.5 -93.5q0 -23 -4 -38l-301 -830q-27 -72 -66 -103t-107 -31 q-71 0 -110 30t-64 98l-305 838q-5 15 -5 38z" />
<glyph unicode="w" horiz-adv-x="1522" d="M33 987q0 51 44 90.5t107 39.5q49 0 89.5 -26.5t52.5 -71.5l95 -362q12 -48 19.5 -104t13 -123.5t10.5 -105.5q6 38 13.5 105.5t16 123.5t21.5 104l87 349q14 49 56.5 80t106.5 31q62 0 104 -31t53 -80l86 -349q12 -49 20.5 -104.5t17.5 -125t14 -105.5q5 38 11 106 t13 124.5t20 104.5l94 362q12 40 53.5 69t89.5 29q60 0 105 -38t45 -95l-1 -9q-2 -9 -2 -13l-254 -849q-21 -67 -59.5 -97.5t-114.5 -30.5q-58 0 -103.5 29t-59.5 80l-92 351q-11 39 -18 82t-13.5 101.5t-10.5 84.5q-3 -22 -11 -83t-14.5 -103t-16.5 -82l-90 -351 q-15 -58 -56 -83.5t-111 -25.5q-69 0 -110.5 33t-62.5 99l-254 841q-4 10 -4 29z" />
<glyph unicode="x" horiz-adv-x="1031" d="M33 121q0 38 22 65q49 67 142 188.5t142 188.5q-28 38 -82 108.5t-97.5 128.5t-82.5 112q-12 13 -19.5 34t-7.5 36q0 55 44 95t107 40q25 0 46.5 -6.5t34.5 -13.5t29.5 -24t21.5 -23.5t20 -26.5l166 -226l175 244q29 39 58 57.5t78 18.5q56 0 102.5 -38t46.5 -92 q0 -44 -21 -71l-264 -353l283 -373q22 -28 22 -67q0 -58 -42.5 -98t-110.5 -40q-50 0 -78 17t-60 61q-39 56 -97 134t-96 131q-188 -256 -204 -278q-49 -65 -125 -65q-65 0 -109 38t-44 98z" />
<glyph unicode="y" horiz-adv-x="1037" d="M35 989q0 55 43.5 91.5t107.5 36.5q46 0 83 -23.5t55 -68.5l138 -368q18 -46 41 -136.5t30 -114.5q6 24 17 78t21.5 96t22.5 77l119 368q13 45 53.5 68.5t88.5 23.5q60 0 105.5 -37.5t45.5 -95.5q0 -23 -7 -39l-267 -780q-1 -3 -4 -10q-33 -98 -50 -145.5t-49 -125 t-57 -115t-65.5 -87t-83 -72t-101 -39t-127.5 -16.5q-66 0 -109.5 37t-43.5 94q0 52 39.5 90.5t104.5 41.5q71 3 114 58.5t83 186.5l-337 870q-11 27 -11 56z" />
<glyph unicode="z" horiz-adv-x="950" d="M21 140q0 45 27 81l475 628h-335q-61 0 -102.5 36.5t-41.5 91.5q0 56 41.5 92.5t102.5 36.5h581q66 0 110.5 -36.5t44.5 -99.5q0 -49 -29 -89l-474 -622h361q63 0 105 -37.5t42 -92t-42 -92t-105 -37.5h-607q-62 0 -108 41t-46 99z" />
<glyph unicode="{" horiz-adv-x="956" d="M46 533q0 34 10 59.5t22.5 38.5t33.5 21.5t32.5 10.5t30.5 4q22 2 33 4.5t26.5 9.5t23.5 19.5t15 35t9 55.5q2 25 8 125.5t17 262.5q10 143 123 223.5t293 80.5q31 0 54 -2.5t50 -11.5t44 -24.5t29 -43.5t12 -67q0 -38 -11.5 -64t-27.5 -38t-41.5 -16t-43 -3.5t-43.5 4.5 q-35 4 -53 4q-33 0 -59.5 -20t-27.5 -53q-1 -8 -4 -83t-7.5 -155t-8.5 -115q-10 -85 -59.5 -149t-151.5 -113q200 -97 209 -265l22 -354q1 -29 29 -50t56 -19q2 0 27.5 2t29.5 2h4q19 0 40.5 2t43 -4t38.5 -17t28 -36.5t11 -63.5t-11.5 -66.5t-29 -44t-44 -25t-50.5 -12.5 t-54 -3q-114 0 -206.5 37.5t-148.5 107t-61 159.5l-25 393q-1 33 -10 57t-19 36t-27 19t-26 8.5t-25 2.5q-19 2 -33.5 4.5t-34 11t-31.5 22t-21 38t-9 58.5z" />
<glyph unicode="|" horiz-adv-x="584" d="M147 -351v1871q0 54 42 94t102 40t103 -40t43 -94v-1871q0 -55 -42.5 -94.5t-103 -39.5t-102.5 39.5t-42 94.5z" />
<glyph unicode="}" horiz-adv-x="956" d="M57 -268q0 25 4.5 44t11.5 31.5t20.5 21t25 13t32 6.5t34.5 2.5t39 0.5q31 -4 52 -4q43 0 64.5 19t23.5 48l21 354q9 168 209 265q-96 43 -151 113t-60 149q-9 128 -13 212t-4.5 108t-1.5 33q-5 35 -29 54t-57 19q-20 0 -54 -4q-26 -4 -44 -4.5t-43.5 3.5t-41 16t-27 38 t-11.5 64q0 39 11.5 67t29 43.5t44 24.5t50 11.5t53.5 2.5q180 0 293.5 -80.5t122.5 -223.5q9 -118 14 -199t6.5 -108.5t2.5 -46.5t2 -34q2 -33 9 -55.5t15 -35t23.5 -19.5t26.5 -9.5t33 -4.5q19 -2 31 -4t33 -10.5t33 -21.5t22 -38.5t10 -60t-9.5 -59.5t-22 -38t-33 -21.5 t-33 -10.5t-31.5 -4q-23 -2 -38 -6.5t-31.5 -16t-26 -37t-11.5 -63.5l-25 -393q-8 -134 -124 -219t-292 -85q-30 0 -53.5 3t-50 12.5t-44 25.5t-29 44.5t-11.5 67.5z" />
<glyph unicode="~" horiz-adv-x="1086" d="M134 682q0 89 69 149.5t161 60.5q50 0 97 -16.5t76 -36t62.5 -36.5t59.5 -17q22 0 39.5 10t29.5 24.5t24 28.5t30 24t42 10q51 0 90 -36t39 -91q0 -51 -37.5 -97t-92 -71t-106.5 -25q-47 0 -92.5 15.5t-75.5 34t-64.5 36t-59.5 20.5q-22 3 -39.5 -5.5t-30 -23 t-25.5 -29.5t-32 -25.5t-43 -10.5q-43 0 -80.5 30t-40.5 77z" />
<glyph unicode="&#xa2;" horiz-adv-x="970" d="M98 469v186q0 86 25.5 159t75.5 130t132 91.5t188 38.5v94q0 24 16.5 40.5t41 16.5t40.5 -16.5t16 -40.5v-99q41 -4 76.5 -11.5t72.5 -22.5t63.5 -34.5t43 -50t16.5 -67.5q0 -47 -30.5 -79.5t-105.5 -32.5q-35 0 -72 13l-64 27v-500q19 6 64 28q34 14 68 14 q40 0 69 -10.5t44 -28t21 -35.5t6 -38q0 -46 -24.5 -81t-66 -56t-86 -32.5t-95.5 -16.5v-116q0 -24 -16 -41t-40.5 -17t-41 17t-16.5 41v111q-106 4 -187.5 38t-131.5 90.5t-76 130t-26 160.5zM401 469q0 -141 118 -162v510q-118 -24 -118 -162v-186z" />
<glyph unicode="&#xa5;" d="M37 1422q0 57 47.5 99.5t108.5 42.5q37 0 71.5 -16t53.5 -49l274 -543l271 543q19 33 54 49t74 16q60 0 107.5 -42.5t47.5 -99.5q0 -18 -15 -63l-280 -550h109q33 0 59 -24t26 -57q0 -35 -24.5 -58.5t-60.5 -23.5h-193l-20 -41v-82h213q34 0 59.5 -23t25.5 -57 t-24.5 -57.5t-60.5 -23.5h-213v-237q0 -53 -37 -93.5t-95 -48.5q-17 -4 -25 -4q-21 0 -34 6q-52 10 -85.5 49.5t-33.5 90.5v237h-218q-36 0 -60.5 23.5t-24.5 57.5t26 57t59 23h218v82l-23 41h-195q-36 0 -60.5 23.5t-24.5 58.5q0 33 26 57t59 24h112l-281 550 q-13 30 -13 63z" />
<glyph unicode="&#xa8;" horiz-adv-x="970" d="M175 1380q0 55 41 94.5t100 39.5q61 0 102.5 -38.5t41.5 -95.5q0 -58 -41.5 -98t-102.5 -40q-59 0 -100 41t-41 97zM565 1380q0 55 43 94.5t102.5 39.5t101 -39t41.5 -95q0 -57 -41.5 -97.5t-101 -40.5t-102.5 41t-43 97z" />
<glyph unicode="&#xa9;" horiz-adv-x="1621" d="M140 686q0 156 44.5 285t128 222.5t211 145.5t287.5 52t287.5 -52t211 -145.5t127.5 -222.5t44 -285t-44 -285t-127.5 -223t-211 -145.5t-287.5 -51.5t-287.5 51.5t-211 145.5t-128 223t-44.5 285zM272 686q0 -127 35.5 -232t102.5 -181.5t170 -119t231 -42.5t231 42.5 t170 119t102.5 181.5t35.5 232t-35.5 232t-102.5 181.5t-170 118.5t-231 42t-231 -42t-170 -118.5t-102.5 -181.5t-35.5 -232zM495 621v133q0 69 20 126.5t59.5 102t105 69t150.5 24.5q38 0 80.5 -6.5t85.5 -20t71.5 -40.5t28.5 -62q0 -32 -24 -56.5t-58 -24.5q-6 0 -27 4 q-36 21 -67 31.5t-74 10.5q-78 0 -113.5 -40t-35.5 -118v-133q0 -79 35.5 -119t113.5 -40q12 0 23 1t19 2.5t19 4.5t16 4.5t17 6.5t15 6.5t16.5 7.5t15.5 7q16 6 27 6q34 0 58 -25t24 -58q0 -35 -28.5 -61t-72 -39.5t-85.5 -19.5t-80 -6q-85 0 -150.5 24.5t-105 68.5 t-59.5 101.5t-20 127.5z" />
<glyph unicode="&#xab;" horiz-adv-x="943" d="M90 561l333 502q18 29 35.5 43t45.5 14q31 0 57 -24t26 -57q0 -26 -10 -42l-288 -432l307 -456q11 -16 11 -36q0 -37 -25 -63.5t-63 -26.5q-28 0 -44.5 12.5t-37.5 46.5zM441 561l249 377q18 30 36 43.5t45 13.5q31 0 57.5 -24t26.5 -57q0 -24 -12 -42l-203 -311 l203 -312q12 -17 12 -40q0 -34 -26.5 -58t-57.5 -24q-27 0 -45 14t-36 43z" />
<glyph unicode="&#xad;" horiz-adv-x="961" d="M61 657q0 55 43 94.5t105 39.5h545q61 0 103 -39.5t42 -94.5q0 -57 -41.5 -95.5t-103.5 -38.5h-545q-63 0 -105.5 38t-42.5 96z" />
<glyph unicode="&#xae;" horiz-adv-x="1533" d="M140 927q0 145 41 266.5t119 209.5t197.5 137t269.5 49t269.5 -49t197.5 -137t119 -209.5t41 -266.5q0 -141 -41 -258.5t-119 -202.5t-197.5 -132t-269.5 -47t-269.5 47t-197.5 132t-119 202.5t-41 258.5zM272 927q0 -113 32.5 -206t94 -160.5t156 -105t213 -37.5 t212.5 37.5t156 105t94.5 160.5t32.5 206q0 117 -32.5 214t-94.5 167.5t-156 109.5t-212.5 39t-213 -39t-156 -109.5t-94 -167.5t-32.5 -214zM531 671v515q0 37 29 66.5t65 29.5h146q70 0 122 -18.5t81.5 -50.5t44 -69t14.5 -79q0 -133 -117 -187l129 -196 q11 -19 12.5 -38.5t-15 -34.5t-47.5 -15q-79 0 -119 52l-133 207h-38v-182q0 -30 -27.5 -53.5t-62.5 -23.5q-33 0 -58.5 22.5t-25.5 54.5zM705 1002h90q62 0 62 63q0 66 -68 66h-84v-129z" />
<glyph unicode="&#xb4;" horiz-adv-x="692" d="M193 1328q0 30 18 54l176 174l19 17q16 16 24.5 23t25 13t39.5 6q40 0 73.5 -31.5t33.5 -75.5q0 -34 -19 -61l-180 -180q-22 -19 -30.5 -26t-26.5 -13.5t-41 -6.5q-47 0 -79.5 30t-32.5 77z" />
<glyph unicode="&#xb8;" horiz-adv-x="746" d="M92 -345q0 30 21 47.5t54 17.5q19 0 74 -10.5t85 -10.5q103 0 103 48q0 25 -27 38t-97 25q-6 1 -16 3q-18 3 -26.5 5t-21 6.5t-17.5 10.5t-10.5 16t-6.5 25t0 36l29 184h172l-23 -169q114 -9 167 -58t53 -128q0 -94 -69.5 -154t-180.5 -60q-64 0 -122 13.5t-99.5 43.5 t-41.5 71z" />
<glyph unicode="&#xbb;" horiz-adv-x="943" d="M90 209q0 24 11 40l204 312l-204 311q-11 16 -11 42q0 33 26 57t57 24q28 0 46 -13.5t36 -43.5l249 -377l-249 -377q-18 -29 -36 -43t-46 -14q-31 0 -57 24t-26 58zM337 73q0 18 12 36l306 456l-287 432q-11 16 -11 42q0 33 26.5 57t57.5 24q27 0 44.5 -14t35.5 -43 l334 -502l-347 -519q-21 -34 -38 -46.5t-45 -12.5q-39 0 -63.5 26.5t-24.5 63.5z" />
<glyph unicode="&#xc1;" horiz-adv-x="1290" d="M33 121q0 32 7 48l427 1247q24 72 64 110t113 38t113.5 -37.5t66.5 -110.5l427 -1247q7 -19 7 -48q0 -62 -45 -101t-113 -39q-44 0 -88.5 29t-60.5 73l-77 222h-466l-73 -222q-15 -45 -59 -73.5t-86 -28.5q-65 0 -111 39.5t-46 100.5zM489 554h306l-111 375 q-21 69 -40 215q-18 -146 -39 -215zM533 1767q0 31 17 54l178 173l17 18q16 16 25 23t25.5 12.5t39.5 5.5q39 0 73.5 -31.5t34.5 -75.5q0 -33 -21 -62l-179 -179q-23 -20 -31.5 -26.5t-26.5 -13.5t-41 -7q-46 0 -78.5 31t-32.5 78z" />
<glyph unicode="&#xc4;" horiz-adv-x="1290" d="M33 121q0 32 7 48l427 1247q24 72 64 110t113 38t113.5 -37.5t66.5 -110.5l427 -1247q7 -19 7 -48q0 -62 -45 -101t-113 -39q-44 0 -88.5 29t-60.5 73l-77 222h-466l-73 -222q-15 -45 -59 -73.5t-86 -28.5q-65 0 -111 39.5t-46 100.5zM307 1819q0 55 40.5 94.5t99.5 39.5 q61 0 103 -39t42 -95q0 -58 -42 -98t-103 -40q-59 0 -99.5 40.5t-40.5 97.5zM489 554h306l-111 375q-21 69 -40 215q-18 -146 -39 -215zM697 1819q0 55 43 94.5t102.5 39.5t100.5 -39t41 -95q0 -58 -41 -98t-100.5 -40t-102.5 41t-43 97z" />
<glyph unicode="&#xc9;" horiz-adv-x="1125" d="M138 155v1234q0 60 49.5 108t119.5 48h594q62 0 107.5 -42t45.5 -100q0 -59 -44.5 -97.5t-108.5 -38.5h-456v-353h414q60 0 105.5 -40t45.5 -98q0 -60 -43.5 -100t-107.5 -40h-414v-358h477q62 0 108 -40t46 -96q0 -59 -45.5 -100.5t-108.5 -41.5h-581q-42 0 -77 8 t-64 25t-45.5 48t-16.5 74zM502 1767q0 31 17 54l178 173l18 18q16 16 25 23t25.5 12.5t39.5 5.5q39 0 73 -31.5t34 -75.5q0 -34 -20 -62l-179 -179q-22 -19 -31.5 -26t-27.5 -14t-41 -7q-46 0 -78.5 31t-32.5 78z" />
<glyph unicode="&#xcd;" horiz-adv-x="584" d="M138 121v1303q0 57 44.5 98.5t108.5 41.5q62 0 108 -41.5t46 -98.5v-1303q0 -56 -46 -98t-108 -42q-64 0 -108.5 41.5t-44.5 98.5zM163 1767q0 31 17 54l177 173l17 18q17 16 25.5 23t25 12.5t39.5 5.5q40 0 74 -31.5t34 -75.5q0 -33 -20 -62l-180 -179 q-22 -20 -30.5 -26.5t-26.5 -13.5t-41 -7q-47 0 -79 31t-32 78z" />
<glyph unicode="&#xd3;" horiz-adv-x="1336" d="M98 556v435q0 96 20 179.5t63.5 156.5t109 125t162 82t216.5 30t216 -30t161.5 -82t109 -125t63 -156.5t19.5 -179.5v-435q0 -121 -36.5 -224.5t-105.5 -182.5t-179 -123.5t-248.5 -44.5t-248 44.5t-179.5 123t-106.5 182.5t-36.5 225zM406 556q0 -136 66 -216.5 t196.5 -80.5t196.5 80t66 217v435q0 295 -262 295q-263 0 -263 -295v-435zM523 1767q0 30 18 54l178 173l17 18q17 16 25.5 23t25 12.5t39.5 5.5q40 0 73.5 -31.5t33.5 -75.5q0 -34 -19 -62l-180 -179q-22 -20 -31 -26.5t-27 -13.5t-40 -7q-47 0 -80 31t-33 78z" />
<glyph unicode="&#xd4;" horiz-adv-x="1336" d="M98 556v435q0 96 20 179.5t63.5 156.5t109 125t162 82t216.5 30t216 -30t161.5 -82t109 -125t63 -156.5t19.5 -179.5v-435q0 -121 -36.5 -224.5t-105.5 -182.5t-179 -123.5t-248.5 -44.5t-248 44.5t-179.5 123t-106.5 182.5t-36.5 225zM355 1747q3 50 59 99l173 134 q36 27 81.5 27t81.5 -27l172 -134q57 -50 60 -99q0 -41 -33 -71t-77 -30q-21 0 -42 8t-44 26t-39 32t-41.5 39.5t-36.5 35.5q-10 -10 -36.5 -36t-42 -39.5t-39 -31.5t-45 -26t-42.5 -8q-44 0 -76.5 30t-32.5 71zM406 556q0 -136 66 -216.5t196.5 -80.5t196.5 80t66 217v435 q0 295 -262 295q-263 0 -263 -295v-435z" />
<glyph unicode="&#xda;" horiz-adv-x="1340" d="M121 526v894q0 62 44.5 103t110.5 41q61 0 106 -42.5t45 -101.5v-894q0 -122 61.5 -194.5t182.5 -72.5q119 0 180 73t61 194v894q0 59 43.5 101.5t107.5 42.5q66 0 112 -42.5t46 -101.5v-894q0 -118 -37.5 -218t-107 -172.5t-174 -113.5t-231.5 -41q-130 0 -234.5 41 t-173.5 114t-105.5 173t-36.5 217zM552 1767q0 31 17 54l178 173l18 18q17 16 25.5 23t25 12.5t39.5 5.5q40 0 73.5 -31.5t33.5 -75.5q0 -34 -19 -62l-180 -179q-22 -20 -31 -26.5t-27 -13.5t-41 -7q-46 0 -79 31t-33 78z" />
<glyph unicode="&#xdd;" horiz-adv-x="1160" d="M27 1422q0 57 47.5 99.5t107.5 42.5q37 0 71.5 -16t53.5 -49l274 -543l272 543q19 33 53 49t73 16q60 0 108 -42.5t48 -99.5q0 -18 -15 -63l-384 -754v-480q0 -58 -45 -101t-110 -43t-110.5 42t-45.5 102v480l-385 754q-13 30 -13 63zM469 1767q0 30 18 54l176 173l19 18 q16 16 25 23t25 12.5t39 5.5q40 0 73.5 -31.5t33.5 -75.5q0 -33 -19 -61l-180 -179q-22 -20 -30.5 -26.5t-26.5 -13t-41 -6.5q-47 0 -79.5 30t-32.5 77z" />
<glyph unicode="&#xe1;" horiz-adv-x="1143" d="M77 331v6q0 336 433 336q99 0 174 -22v70q0 151 -167 151q-29 0 -55.5 -5.5t-43 -11.5t-44.5 -18q-2 -1 -13.5 -6t-19 -7.5t-21.5 -5.5t-29 -3q-33 0 -58.5 12t-39.5 31.5t-21 41t-7 43.5q0 46 32.5 82.5t87 57t119 31.5t135.5 11q234 0 341 -113.5t107 -340.5v-408 q0 -19 3 -31t11 -19t14 -10t20 -7.5t21 -7.5q50 -19 50 -83q0 -56 -36.5 -85t-120.5 -29q-63 0 -106.5 20.5t-79.5 71.5q-123 -98 -296 -98q-188 0 -289 93t-101 253zM366 1328q0 32 17 54l178 174l18 17q16 16 25 23t25.5 13t39.5 6q39 0 73 -31.5t34 -75.5q0 -34 -20 -61 l-179 -180q-22 -19 -31.5 -26t-27.5 -13.5t-41 -6.5q-46 0 -78.5 30t-32.5 77zM377 328q0 -53 32 -76.5t104 -23.5q97 0 171 57v158q-88 17 -155 17q-46 0 -77.5 -10t-47 -28.5t-21.5 -39t-6 -47.5v-7z" />
<glyph unicode="&#xe4;" horiz-adv-x="1143" d="M77 331v6q0 336 433 336q99 0 174 -22v70q0 151 -167 151q-29 0 -55.5 -5.5t-43 -11.5t-44.5 -18q-2 -1 -13.5 -6t-19 -7.5t-21.5 -5.5t-29 -3q-33 0 -58.5 12t-39.5 31.5t-21 41t-7 43.5q0 46 32.5 82.5t87 57t119 31.5t135.5 11q234 0 341 -113.5t107 -340.5v-408 q0 -19 3 -31t11 -19t14 -10t20 -7.5t21 -7.5q50 -19 50 -83q0 -56 -36.5 -85t-120.5 -29q-63 0 -106.5 20.5t-79.5 71.5q-123 -98 -296 -98q-188 0 -289 93t-101 253zM232 1380q0 55 40.5 94.5t99.5 39.5q61 0 103 -38.5t42 -95.5q0 -58 -42 -98t-103 -40q-58 0 -99 41 t-41 97zM377 328q0 -53 32 -76.5t104 -23.5q97 0 171 57v158q-88 17 -155 17q-46 0 -77.5 -10t-47 -28.5t-21.5 -39t-6 -47.5v-7zM622 1380q0 55 43 94.5t102.5 39.5t101 -39t41.5 -95q0 -57 -41.5 -97.5t-101 -40.5t-102.5 41t-43 97z" />
<glyph unicode="&#xe9;" horiz-adv-x="1062" d="M98 368v366q0 84 30.5 155t88 123.5t147 82.5t201.5 30q209 0 319.5 -101.5t110.5 -272.5q0 -333 -426 -333q-73 0 -168 13v-71q0 -58 44.5 -91t131.5 -33t197 49q27 14 64.5 14t65.5 -12t42.5 -30.5t21.5 -38.5t7 -40q0 -44 -30.5 -79t-77 -55.5t-105 -34.5t-110 -19 t-98.5 -5q-106 0 -192.5 29.5t-144 81t-88.5 121.5t-31 151zM401 653q94 -9 158 -9q66 0 100.5 28t34.5 95q0 64 -32.5 93t-98.5 29q-78 0 -120 -37.5t-42 -104.5v-94zM427 1328q0 30 18 54l178 174l17 17q16 16 25 23t25.5 13t39.5 6q39 0 73 -31.5t34 -75.5q0 -34 -20 -61 l-179 -180q-22 -19 -31 -26t-27 -13.5t-41 -6.5q-46 0 -79 30t-33 77z" />
<glyph unicode="&#xed;" horiz-adv-x="623" d="M160 121v863q0 55 44 94t107.5 39t107 -39t43.5 -94v-863q0 -58 -43 -97t-107.5 -39t-108 39t-43.5 97zM201 1328q0 30 18 54l178 174l17 17q17 16 25.5 23t25 13t39.5 6q40 0 73.5 -31.5t33.5 -75.5q0 -34 -19 -61l-180 -180q-22 -19 -31 -26t-27 -13.5t-40 -6.5 q-47 0 -80 30t-33 77z" />
<glyph unicode="&#xf3;" horiz-adv-x="1148" d="M98 393v326q0 87 31.5 161t90 129t150 86.5t205.5 31.5t205 -31.5t149.5 -86.5t89.5 -129t31 -161v-326q0 -87 -31 -161t-89.5 -129.5t-149.5 -86.5t-205 -31t-205.5 31.5t-150 86.5t-90 129t-31.5 161zM401 393q0 -70 45 -110t128.5 -40t128 39.5t44.5 110.5v328 q0 69 -44.5 108t-128 39t-128.5 -39t-45 -108v-328zM456 1328q0 32 17 54l178 174l18 17q16 16 25 23t25.5 13t39.5 6q39 0 73 -31.5t34 -75.5q0 -34 -20 -61l-179 -180q-22 -19 -31.5 -26t-27.5 -13.5t-41 -6.5q-46 0 -78.5 30t-32.5 77z" />
<glyph unicode="&#xf4;" horiz-adv-x="1148" d="M98 393v326q0 87 31.5 161t90 129t150 86.5t205.5 31.5t205 -31.5t149.5 -86.5t89.5 -129t31 -161v-326q0 -87 -31 -161t-89.5 -129.5t-149.5 -86.5t-205 -31t-205.5 31.5t-150 86.5t-90 129t-31.5 161zM261 1309q3 49 59 98l173 134q36 28 81.5 28t81.5 -28l172 -134 q57 -50 60 -98q0 -41 -33 -71.5t-77 -30.5q-21 0 -42.5 8.5t-44.5 26t-38.5 31.5t-41.5 39.5t-36 35.5q-11 -9 -37 -35t-41.5 -40t-39 -32t-45 -26t-42.5 -8q-44 0 -76.5 30.5t-32.5 71.5zM401 393q0 -70 45 -110t128.5 -40t128 39.5t44.5 110.5v328q0 69 -44.5 108t-128 39 t-128.5 -39t-45 -108v-328z" />
<glyph unicode="&#xfa;" horiz-adv-x="1202" d="M140 414v573q0 57 40.5 93.5t111 36.5t111 -36.5t40.5 -93.5v-573q0 -85 35.5 -130t106.5 -45q69 0 169 46q-5 37 -5 41v661q0 58 39.5 94t112.5 36t112 -36t39 -94v-705q0 -23 8.5 -37t33.5 -38q31 -32 31 -75q0 -62 -43.5 -98t-97.5 -36q-76 0 -133 83 q-136 -96 -303 -96q-195 0 -301.5 116t-106.5 313zM491 1328q0 32 17 54l178 174l17 17q17 16 25.5 23t25 13t39.5 6q40 0 74 -31.5t34 -75.5q0 -32 -20 -61l-180 -180q-22 -19 -31 -26t-27 -13.5t-41 -6.5q-46 0 -78.5 30t-32.5 77z" />
<glyph unicode="&#xfd;" horiz-adv-x="1037" d="M35 989q0 55 43.5 91.5t107.5 36.5q46 0 83 -23.5t55 -68.5l138 -368q18 -46 41 -136.5t30 -114.5q6 24 17 78t21.5 96t22.5 77l119 368q13 45 53.5 68.5t88.5 23.5q60 0 105.5 -37.5t45.5 -95.5q0 -23 -7 -39l-267 -780q-1 -3 -4 -10q-33 -98 -50 -145.5t-49 -125 t-57 -115t-65.5 -87t-83 -72t-101 -39t-127.5 -16.5q-66 0 -109.5 37t-43.5 94q0 52 39.5 90.5t104.5 41.5q71 3 114 58.5t83 186.5l-337 870q-11 27 -11 56zM403 1328q0 30 19 54l176 174l18 17q17 16 25.5 23t25 13t39.5 6q40 0 73.5 -31.5t33.5 -75.5q0 -34 -19 -61 l-180 -180q-22 -19 -30.5 -26t-26.5 -13.5t-41 -6.5q-47 0 -80 30t-33 77z" />
<glyph unicode="&#x100;" horiz-adv-x="1290" d="M33 121q0 32 7 48l427 1247q24 72 64 110t113 38t113.5 -37.5t66.5 -110.5l427 -1247q7 -19 7 -48q0 -62 -45 -101t-113 -39q-44 0 -88.5 29t-60.5 73l-77 222h-466l-73 -222q-15 -45 -59 -73.5t-86 -28.5q-65 0 -111 39.5t-46 100.5zM226 1819q0 46 36 79t89 33h590 q50 0 86.5 -33t36.5 -79q0 -47 -36 -79t-87 -32h-590q-53 0 -89 32t-36 79zM489 554h306l-111 375q-21 69 -40 215q-18 -146 -39 -215z" />
<glyph unicode="&#x101;" horiz-adv-x="1143" d="M77 331v6q0 336 433 336q99 0 174 -22v70q0 151 -167 151q-29 0 -55.5 -5.5t-43 -11.5t-44.5 -18q-2 -1 -13.5 -6t-19 -7.5t-21.5 -5.5t-29 -3q-33 0 -58.5 12t-39.5 31.5t-21 41t-7 43.5q0 46 32.5 82.5t87 57t119 31.5t135.5 11q234 0 341 -113.5t107 -340.5v-408 q0 -19 3 -31t11 -19t14 -10t20 -7.5t21 -7.5q50 -19 50 -83q0 -56 -36.5 -85t-120.5 -29q-63 0 -106.5 20.5t-79.5 71.5q-123 -98 -296 -98q-188 0 -289 93t-101 253zM153 1380q0 46 36.5 79.5t88.5 33.5h590q50 0 86.5 -33.5t36.5 -79.5q0 -47 -36 -79t-87 -32h-590 q-53 0 -89 32t-36 79zM377 328q0 -53 32 -76.5t104 -23.5q97 0 171 57v158q-88 17 -155 17q-46 0 -77.5 -10t-47 -28.5t-21.5 -39t-6 -47.5v-7z" />
<glyph unicode="&#x102;" horiz-adv-x="1290" d="M33 121q0 32 7 48l427 1247q24 72 64 110t113 38t113.5 -37.5t66.5 -110.5l427 -1247q7 -19 7 -48q0 -62 -45 -101t-113 -39q-44 0 -88.5 29t-60.5 73l-77 222h-466l-73 -222q-15 -45 -59 -73.5t-86 -28.5q-65 0 -111 39.5t-46 100.5zM318 1848q-15 58 16 90.5t80 32.5 q29 0 56 -13.5t43 -37.5q67 -68 131 -68q65 0 130 68q38 51 100 51q50 0 80.5 -32.5t15.5 -90.5q-16 -60 -73 -106.5t-124 -68.5t-129 -22t-128 22t-122.5 68.5t-75.5 106.5zM489 554h306l-111 375q-21 69 -40 215q-18 -146 -39 -215z" />
<glyph unicode="&#x103;" horiz-adv-x="1143" d="M77 331v6q0 336 433 336q99 0 174 -22v70q0 151 -167 151q-29 0 -55.5 -5.5t-43 -11.5t-44.5 -18q-2 -1 -13.5 -6t-19 -7.5t-21.5 -5.5t-29 -3q-33 0 -58.5 12t-39.5 31.5t-21 41t-7 43.5q0 46 32.5 82.5t87 57t119 31.5t135.5 11q234 0 341 -113.5t107 -340.5v-408 q0 -19 3 -31t11 -19t14 -10t20 -7.5t21 -7.5q50 -19 50 -83q0 -56 -36.5 -85t-120.5 -29q-63 0 -106.5 20.5t-79.5 71.5q-123 -98 -296 -98q-188 0 -289 93t-101 253zM246 1409q-15 58 16 90.5t80 32.5q29 0 56 -13.5t43 -37.5q67 -68 131 -68q66 0 130 68q38 51 100 51 q50 0 81 -32.5t16 -90.5q-17 -60 -74 -106.5t-123.5 -68.5t-129.5 -22q-62 0 -128 22t-122.5 68.5t-75.5 106.5zM377 328q0 -53 32 -76.5t104 -23.5q97 0 171 57v158q-88 17 -155 17q-46 0 -77.5 -10t-47 -28.5t-21.5 -39t-6 -47.5v-7z" />
<glyph unicode="&#x104;" horiz-adv-x="1290" d="M33 121q0 32 7 48l427 1247q24 72 64 110t113 38t113.5 -37.5t66.5 -110.5l427 -1247q7 -19 7 -48q0 -42 -37 -94q-41 -53 -70 -123t-29 -128q0 -24 14.5 -39t42.5 -15q15 0 41 4t31 4h20q41 0 70 -28t29 -66q0 -35 -20 -60t-54 -36.5t-66 -15.5t-69 -4q-122 0 -193 56 t-71 167q0 123 100 276q-35 32 -46 64l-77 222h-466l-73 -222q-15 -45 -59 -73.5t-86 -28.5q-65 0 -111 39.5t-46 100.5zM489 554h306l-111 375q-21 69 -40 215q-18 -146 -39 -215z" />
<glyph unicode="&#x105;" horiz-adv-x="1143" d="M77 331v6q0 336 433 336q99 0 174 -22v70q0 151 -167 151q-29 0 -55.5 -5.5t-43 -11.5t-44.5 -18q-2 -1 -13.5 -6t-19 -7.5t-21.5 -5.5t-29 -3q-33 0 -58.5 12t-39.5 31.5t-21 41t-7 43.5q0 46 32.5 82.5t87 57t119 31.5t135.5 11q234 0 341 -113.5t107 -340.5v-408 q0 -19 3 -31t11 -19t14 -10t20 -7.5t21 -7.5q50 -19 50 -83q0 -48 -32 -84q-45 -52 -78.5 -120.5t-33.5 -124.5q0 -24 14 -39t43 -15q14 0 41 4t31 4h20q40 0 69 -28t29 -66q0 -35 -20 -60t-53.5 -36.5t-65.5 -15.5t-68 -4q-123 0 -194.5 56t-71.5 167q0 59 31 127.5 t84 135.5q-49 22 -88 77q-123 -98 -296 -98q-188 0 -289 93t-101 253zM377 328q0 -53 32 -76.5t104 -23.5q97 0 171 57v158q-88 17 -155 17q-46 0 -77.5 -10t-47 -28.5t-21.5 -39t-6 -47.5v-7z" />
<glyph unicode="&#x106;" horiz-adv-x="1143" d="M77 556v435q0 131 34 235.5t101.5 180.5t174.5 116.5t249 40.5q114 0 219 -31.5t169.5 -86t64.5 -116.5q0 -54 -41.5 -93t-102.5 -39q-15 0 -26 1.5t-21 6t-15.5 7t-16.5 9.5t-15 10l-23 12q-81 53 -182 53q-141 0 -202 -78.5t-61 -227.5v-435q0 -149 61 -228t202 -79 q99 0 182 54l23 13q4 2 15 9t16.5 10t15.5 7t21 5.5t26 1.5q61 0 102.5 -39t41.5 -93q0 -62 -64.5 -116.5t-169.5 -86t-219 -31.5q-142 0 -249 40.5t-174.5 116.5t-101.5 180.5t-34 235.5zM483 1767q0 31 17 54l177 173l17 18q17 16 25.5 23t25 12.5t39.5 5.5q40 0 74 -31.5 t34 -75.5q0 -33 -20 -62l-180 -179q-22 -20 -30.5 -26.5t-26.5 -13.5t-41 -7q-47 0 -79 31t-32 78z" />
<glyph unicode="&#x107;" horiz-adv-x="970" d="M98 403v296q0 89 27.5 164t81.5 132.5t142.5 89.5t202.5 32q44 0 89 -4t98.5 -17t93.5 -33t67 -55.5t27 -80.5q0 -47 -31 -79.5t-105 -32.5q-35 0 -72 13q-8 3 -26 10.5t-28 10.5t-26.5 8t-33 7t-36.5 2q-168 0 -168 -167v-296q0 -167 168 -167q20 0 36.5 2t34.5 7 t25.5 7.5t29 11.5t24.5 10q32 13 67 13q41 0 70 -10t43.5 -27t21 -35.5t6.5 -39.5q0 -44 -27 -79.5t-67.5 -55.5t-93.5 -33t-99 -17.5t-90 -4.5q-113 0 -200.5 32t-141.5 89.5t-82 132.5t-28 164zM379 1328q0 30 18 54l177 174l18 17q16 16 25 23t25.5 13t39.5 6 q39 0 73 -31.5t34 -75.5q0 -34 -20 -61l-179 -180q-23 -19 -31.5 -26t-26.5 -13.5t-41 -6.5q-47 0 -79.5 30t-32.5 77z" />
<glyph unicode="&#x108;" horiz-adv-x="1143" d="M77 556v435q0 131 34 235.5t101.5 180.5t174.5 116.5t249 40.5q114 0 219 -31.5t169.5 -86t64.5 -116.5q0 -54 -41.5 -93t-102.5 -39q-15 0 -26 1.5t-21 6t-15.5 7t-16.5 9.5t-15 10l-23 12q-81 53 -182 53q-141 0 -202 -78.5t-61 -227.5v-435q0 -149 61 -228t202 -79 q99 0 182 54l23 13q4 2 15 9t16.5 10t15.5 7t21 5.5t26 1.5q61 0 102.5 -39t41.5 -93q0 -62 -64.5 -116.5t-169.5 -86t-219 -31.5q-142 0 -249 40.5t-174.5 116.5t-101.5 180.5t-34 235.5zM259 1746q3 50 59 99l173 133q37 29 81 29t81 -29l173 -133q56 -49 59 -99 q0 -41 -32.5 -70.5t-76.5 -29.5q-21 0 -42.5 8t-44.5 25.5t-38.5 31.5t-41.5 39.5t-37 35.5q-9 -9 -36 -35.5t-42 -39.5t-39 -31t-45 -26t-42 -8q-44 0 -76.5 29.5t-32.5 70.5z" />
<glyph unicode="&#x109;" horiz-adv-x="970" d="M98 403v296q0 89 27.5 164t81.5 132.5t142.5 89.5t202.5 32q44 0 89 -4t98.5 -17t93.5 -33t67 -55.5t27 -80.5q0 -47 -31 -79.5t-105 -32.5q-35 0 -72 13q-8 3 -26 10.5t-28 10.5t-26.5 8t-33 7t-36.5 2q-168 0 -168 -167v-296q0 -167 168 -167q20 0 36.5 2t34.5 7 t25.5 7.5t29 11.5t24.5 10q32 13 67 13q41 0 70 -10t43.5 -27t21 -35.5t6.5 -39.5q0 -44 -27 -79.5t-67.5 -55.5t-93.5 -33t-99 -17.5t-90 -4.5q-113 0 -200.5 32t-141.5 89.5t-82 132.5t-28 164zM245 1309q3 48 60 98l172 134q36 28 81.5 28t81.5 -28l173 -134 q56 -49 59 -98q0 -41 -32.5 -71.5t-76.5 -30.5q-21 0 -42.5 8t-44.5 26t-39 32t-42 40t-36 35q-11 -10 -37 -35.5t-41.5 -39.5t-38.5 -31.5t-44.5 -26t-42.5 -8.5q-44 0 -77 30.5t-33 71.5z" />
<glyph unicode="&#x10a;" horiz-adv-x="1143" d="M77 556v435q0 131 34 235.5t101.5 180.5t174.5 116.5t249 40.5q114 0 219 -31.5t169.5 -86t64.5 -116.5q0 -54 -41.5 -93t-102.5 -39q-15 0 -26 1.5t-21 6t-15.5 7t-16.5 9.5t-15 10l-23 12q-81 53 -182 53q-141 0 -202 -78.5t-61 -227.5v-435q0 -149 61 -228t202 -79 q99 0 182 54l23 13q4 2 15 9t16.5 10t15.5 7t21 5.5t26 1.5q61 0 102.5 -39t41.5 -93q0 -62 -64.5 -116.5t-169.5 -86t-219 -31.5q-142 0 -249 40.5t-174.5 116.5t-101.5 180.5t-34 235.5zM429 1786q0 55 40.5 94.5t99.5 39.5q61 0 103.5 -39t42.5 -95q0 -58 -42.5 -98 t-103.5 -40q-59 0 -99.5 40.5t-40.5 97.5z" />
<glyph unicode="&#x10b;" horiz-adv-x="970" d="M98 403v296q0 89 27.5 164t81.5 132.5t142.5 89.5t202.5 32q44 0 89 -4t98.5 -17t93.5 -33t67 -55.5t27 -80.5q0 -47 -31 -79.5t-105 -32.5q-35 0 -72 13q-8 3 -26 10.5t-28 10.5t-26.5 8t-33 7t-36.5 2q-168 0 -168 -167v-296q0 -167 168 -167q20 0 36.5 2t34.5 7 t25.5 7.5t29 11.5t24.5 10q32 13 67 13q41 0 70 -10t43.5 -27t21 -35.5t6.5 -39.5q0 -44 -27 -79.5t-67.5 -55.5t-93.5 -33t-99 -17.5t-90 -4.5q-113 0 -200.5 32t-141.5 89.5t-82 132.5t-28 164zM341 1348q0 55 41 94t101 39q61 0 102.5 -38.5t41.5 -94.5q0 -58 -42 -98.5 t-102 -40.5q-59 0 -100.5 41t-41.5 98z" />
<glyph unicode="&#x10c;" horiz-adv-x="1143" d="M77 556v435q0 131 34 235.5t101.5 180.5t174.5 116.5t249 40.5q114 0 219 -31.5t169.5 -86t64.5 -116.5q0 -54 -41.5 -93t-102.5 -39q-15 0 -26 1.5t-21 6t-15.5 7t-16.5 9.5t-15 10l-23 12q-81 53 -182 53q-141 0 -202 -78.5t-61 -227.5v-435q0 -149 61 -228t202 -79 q99 0 182 54l23 13q4 2 15 9t16.5 10t15.5 7t21 5.5t26 1.5q61 0 102.5 -39t41.5 -93q0 -62 -64.5 -116.5t-169.5 -86t-219 -31.5q-142 0 -249 40.5t-174.5 116.5t-101.5 180.5t-34 235.5zM320 1905q0 40 32 70t75 30q15 0 40.5 -7.5t38.5 -19.5l127 -113l128 113 q13 12 38 19.5t40 7.5q43 0 75.5 -30t32.5 -70q0 -47 -60 -99l-172 -134q-33 -28 -81.5 -28t-81.5 28l-173 134q-59 51 -59 99z" />
<glyph unicode="&#x10d;" horiz-adv-x="970" d="M98 403v296q0 89 27.5 164t81.5 132.5t142.5 89.5t202.5 32q44 0 89 -4t98.5 -17t93.5 -33t67 -55.5t27 -80.5q0 -47 -31 -79.5t-105 -32.5q-35 0 -72 13q-8 3 -26 10.5t-28 10.5t-26.5 8t-33 7t-36.5 2q-168 0 -168 -167v-296q0 -167 168 -167q20 0 36.5 2t34.5 7 t25.5 7.5t29 11.5t24.5 10q32 13 67 13q41 0 70 -10t43.5 -27t21 -35.5t6.5 -39.5q0 -44 -27 -79.5t-67.5 -55.5t-93.5 -33t-99 -17.5t-90 -4.5q-113 0 -200.5 32t-141.5 89.5t-82 132.5t-28 164zM239 1466q0 41 32.5 70.5t75.5 29.5q15 0 40 -7t38 -18l127 -115l127 115 q13 11 38.5 18t41.5 7q42 0 74.5 -29.5t32.5 -70.5q0 -47 -59 -99l-174 -133q-33 -29 -81 -29t-81 29l-172 133q-60 53 -60 99z" />
<glyph unicode="&#x10e;" horiz-adv-x="1301" d="M138 157v1232q0 64 51 111t120 47h247q145 0 259.5 -31t190 -84t125 -127.5t71 -157t21.5 -177.5v-376q0 -96 -21 -180.5t-70.5 -161.5t-125 -132t-190.5 -87.5t-260 -32.5h-247q-69 0 -120 46.5t-51 110.5zM337 1905q0 40 32.5 70t75.5 30q15 0 40 -7.5t38 -19.5 l128 -113l127 113q13 12 38.5 19.5t40.5 7.5q43 0 75 -30t32 -70q0 -48 -59 -99l-173 -134q-33 -28 -81.5 -28t-81.5 28l-172 134q-60 52 -60 99zM445 278h149q87 0 151 24.5t100.5 69t53.5 99.5t17 123v376q0 65 -17.5 117.5t-54.5 94t-100.5 64.5t-149.5 23h-149v-991z " />
<glyph unicode="&#x10f;" horiz-adv-x="1555" d="M98 414v247q0 454 417 454q53 0 94.5 -8.5t98.5 -32.5v375q0 58 40.5 96t110.5 38t110.5 -38.5t40.5 -95.5v-1167q0 -23 8.5 -37t33.5 -38q31 -32 31 -75q0 -62 -43.5 -98t-98.5 -36q-75 0 -132 83q-89 -48 -160 -72t-149 -24q-189 0 -295.5 117t-106.5 312zM401 414 q0 -85 36 -130t107 -45q69 0 169 46q-5 30 -5 41v511q-101 29 -160 29q-79 0 -113 -50t-34 -155v-247zM1127 1420q0 69 53.5 119t130.5 50q74 0 128 -50t54 -128q0 -50 -17.5 -125.5t-45 -148t-66.5 -124t-78 -51.5q-16 0 -31 3.5t-31 13t-24 30.5t-4 51q3 31 17.5 59.5 t31.5 62.5t24 74q-63 13 -102.5 59t-39.5 105z" />
<glyph unicode="&#x110;" horiz-adv-x="1349" d="M21 774q0 55 43 95.5t105 40.5h19v477q0 64 51 111t121 47h247q144 0 258.5 -30.5t190 -83.5t125.5 -127t71 -156.5t21 -177.5v-376q0 -96 -21 -180.5t-70.5 -161.5t-124.5 -132t-190 -87.5t-260 -32.5h-247q-70 0 -121 46.5t-51 110.5v483h-19q-62 0 -105 38.5t-43 95.5 zM495 278h149q88 0 152 24.5t100 69t53 99.5t17 123v376q0 65 -17.5 117.5t-54.5 93.5t-100.5 63.5t-149.5 22.5h-149v-357h220q60 0 102 -40.5t42 -95.5q0 -57 -41.5 -95.5t-102.5 -38.5h-220v-362z" />
<glyph unicode="&#x111;" horiz-adv-x="1296" d="M98 414v247q0 454 417 454q53 0 94.5 -8.5t98.5 -32.5v129h-167q-42 0 -72 31.5t-30 76t30 77t72 32.5h167v29q0 58 40.5 96t110.5 38t110.5 -38.5t40.5 -95.5v-29h142q41 0 71 -32.5t30 -76.5q0 -43 -30 -75.5t-71 -32.5h-142v-921q0 -23 8.5 -37t33.5 -38 q31 -32 31 -75q0 -62 -43.5 -98t-98.5 -36q-75 0 -132 83q-89 -48 -160 -72t-149 -24q-189 0 -295.5 117t-106.5 312zM401 414q0 -85 36 -130t107 -45q69 0 169 46q-5 30 -5 41v511q-101 29 -160 29q-79 0 -113 -50t-34 -155v-247z" />
<glyph unicode="&#x112;" horiz-adv-x="1125" d="M138 155v1234q0 60 49.5 108t119.5 48h594q62 0 107.5 -42t45.5 -100q0 -59 -44.5 -97.5t-108.5 -38.5h-456v-353h414q60 0 105.5 -40t45.5 -98q0 -60 -43.5 -100t-107.5 -40h-414v-358h477q62 0 108 -40t46 -96q0 -59 -45.5 -100.5t-108.5 -41.5h-581q-42 0 -77 8 t-64 25t-45.5 48t-16.5 74zM144 1819q0 46 36.5 79t89.5 33h589q51 0 87 -33t36 -79q0 -47 -36 -79t-87 -32h-589q-53 0 -89.5 32t-36.5 79z" />
<glyph unicode="&#x113;" horiz-adv-x="1062" d="M98 368v366q0 84 30.5 155t88 123.5t147 82.5t201.5 30q209 0 319.5 -101.5t110.5 -272.5q0 -333 -426 -333q-73 0 -168 13v-71q0 -58 44.5 -91t131.5 -33t197 49q27 14 64.5 14t65.5 -12t42.5 -30.5t21.5 -38.5t7 -40q0 -44 -30.5 -79t-77 -55.5t-105 -34.5t-110 -19 t-98.5 -5q-106 0 -192.5 29.5t-144 81t-88.5 121.5t-31 151zM111 1380q0 46 36.5 79.5t88.5 33.5h590q50 0 86.5 -33.5t36.5 -79.5q0 -47 -36 -79t-87 -32h-590q-53 0 -89 32t-36 79zM401 653q94 -9 158 -9q66 0 100.5 28t34.5 95q0 64 -32.5 93t-98.5 29q-78 0 -120 -37.5 t-42 -104.5v-94z" />
<glyph unicode="&#x114;" horiz-adv-x="1125" d="M138 155v1234q0 60 49.5 108t119.5 48h594q62 0 107.5 -42t45.5 -100q0 -59 -44.5 -97.5t-108.5 -38.5h-456v-353h414q60 0 105.5 -40t45.5 -98q0 -60 -43.5 -100t-107.5 -40h-414v-358h477q62 0 108 -40t46 -96q0 -59 -45.5 -100.5t-108.5 -41.5h-581q-42 0 -77 8 t-64 25t-45.5 48t-16.5 74zM238 1848q-15 58 15.5 90.5t80.5 32.5q29 0 56 -13.5t42 -37.5q68 -68 132 -68q65 0 129 68q38 51 101 51q49 0 80 -32.5t16 -90.5q-16 -60 -73 -106.5t-124 -68.5t-129 -22t-128 22t-123 68.5t-75 106.5z" />
<glyph unicode="&#x115;" horiz-adv-x="1062" d="M98 368v366q0 84 30.5 155t88 123.5t147 82.5t201.5 30q209 0 319.5 -101.5t110.5 -272.5q0 -333 -426 -333q-73 0 -168 13v-71q0 -58 44.5 -91t131.5 -33t197 49q27 14 64.5 14t65.5 -12t42.5 -30.5t21.5 -38.5t7 -40q0 -44 -30.5 -79t-77 -55.5t-105 -34.5t-110 -19 t-98.5 -5q-106 0 -192.5 29.5t-144 81t-88.5 121.5t-31 151zM204 1409q-15 58 16 90.5t81 32.5q29 0 55.5 -13.5t42.5 -37.5q68 -68 132 -68q65 0 129 68q38 51 101 51q49 0 80 -32.5t16 -90.5q-17 -60 -73.5 -106.5t-123.5 -68.5t-129 -22t-128.5 22t-123 68.5t-75.5 106.5 zM401 653q94 -9 158 -9q66 0 100.5 28t34.5 95q0 64 -32.5 93t-98.5 29q-78 0 -120 -37.5t-42 -104.5v-94z" />
<glyph unicode="&#x116;" horiz-adv-x="1125" d="M138 155v1234q0 60 49.5 108t119.5 48h594q62 0 107.5 -42t45.5 -100q0 -59 -44.5 -97.5t-108.5 -38.5h-456v-353h414q60 0 105.5 -40t45.5 -98q0 -60 -43.5 -100t-107.5 -40h-414v-358h477q62 0 108 -40t46 -96q0 -59 -45.5 -100.5t-108.5 -41.5h-581q-42 0 -77 8 t-64 25t-45.5 48t-16.5 74zM421 1786q0 55 40.5 94.5t99.5 39.5q61 0 102.5 -39t41.5 -95q0 -58 -41.5 -98t-102.5 -40q-59 0 -99.5 40.5t-40.5 97.5z" />
<glyph unicode="&#x117;" horiz-adv-x="1062" d="M98 368v366q0 84 30.5 155t88 123.5t147 82.5t201.5 30q209 0 319.5 -101.5t110.5 -272.5q0 -333 -426 -333q-73 0 -168 13v-71q0 -58 44.5 -91t131.5 -33t197 49q27 14 64.5 14t65.5 -12t42.5 -30.5t21.5 -38.5t7 -40q0 -44 -30.5 -79t-77 -55.5t-105 -34.5t-110 -19 t-98.5 -5q-106 0 -192.5 29.5t-144 81t-88.5 121.5t-31 151zM387 1348q0 55 41 94t101 39q61 0 102.5 -38.5t41.5 -94.5q0 -58 -42 -98.5t-102 -40.5q-59 0 -100.5 41t-41.5 98zM401 653q94 -9 158 -9q66 0 100.5 28t34.5 95q0 64 -32.5 93t-98.5 29q-78 0 -120 -37.5 t-42 -104.5v-94z" />
<glyph unicode="&#x118;" horiz-adv-x="1125" d="M138 155v1234q0 60 49.5 108t119.5 48h594q62 0 107.5 -42t45.5 -100q0 -59 -44.5 -97.5t-108.5 -38.5h-456v-353h414q60 0 105.5 -40t45.5 -98q0 -60 -43.5 -100t-107.5 -40h-414v-358h477q62 0 108 -40t46 -96q0 -59 -45.5 -100.5t-108.5 -41.5l-41 -67 q-57 -95 -57 -157q0 -24 14 -39t43 -15q14 0 41 4t31 4h20q40 0 69 -28t29 -66q0 -35 -20 -60t-53.5 -36.5t-65.5 -15.5t-69 -4q-122 0 -193.5 56t-71.5 167q0 113 103 257h-360q-42 0 -77 8t-64 25t-45.5 48t-16.5 74z" />
<glyph unicode="&#x119;" horiz-adv-x="1062" d="M98 368v366q0 84 30.5 155t88 123.5t147 82.5t201.5 30q209 0 319.5 -101.5t110.5 -272.5q0 -333 -426 -333q-73 0 -168 13v-71q0 -58 44.5 -91t131.5 -33t197 49q27 14 64.5 14t65.5 -12t42.5 -30.5t21.5 -38.5t7 -40q0 -18 -6 -33t-18 -29t-23 -23.5t-30.5 -24.5 t-29.5 -24q-50 -44 -85.5 -123.5t-35.5 -144.5q0 -24 14.5 -39t43.5 -15q14 0 40.5 4t30.5 4h21q40 0 69 -28t29 -66q0 -35 -20 -60t-54 -36.5t-66 -15.5t-69 -4q-122 0 -193.5 56t-71.5 167q0 109 94 244q-11 0 -32 -1t-29 -1q-106 0 -192.5 29.5t-144 81t-88.5 121.5 t-31 151zM401 653q94 -9 158 -9q66 0 100.5 28t34.5 95q0 64 -32.5 93t-98.5 29q-78 0 -120 -37.5t-42 -104.5v-94z" />
<glyph unicode="&#x11a;" horiz-adv-x="1125" d="M138 155v1234q0 60 49.5 108t119.5 48h594q62 0 107.5 -42t45.5 -100q0 -59 -44.5 -97.5t-108.5 -38.5h-456v-353h414q60 0 105.5 -40t45.5 -98q0 -60 -43.5 -100t-107.5 -40h-414v-358h477q62 0 108 -40t46 -96q0 -59 -45.5 -100.5t-108.5 -41.5h-581q-42 0 -77 8 t-64 25t-45.5 48t-16.5 74zM303 1905q0 40 32 70t75 30q16 0 41 -7t38 -18l127 -115l128 115q13 11 37.5 18t40.5 7q43 0 75.5 -30t32.5 -70q0 -47 -60 -99l-172 -134q-33 -28 -81.5 -28t-81.5 28l-173 134q-59 51 -59 99z" />
<glyph unicode="&#x11b;" horiz-adv-x="1062" d="M98 368v366q0 84 30.5 155t88 123.5t147 82.5t201.5 30q209 0 319.5 -101.5t110.5 -272.5q0 -333 -426 -333q-73 0 -168 13v-71q0 -58 44.5 -91t131.5 -33t197 49q27 14 64.5 14t65.5 -12t42.5 -30.5t21.5 -38.5t7 -40q0 -44 -30.5 -79t-77 -55.5t-105 -34.5t-110 -19 t-98.5 -5q-106 0 -192.5 29.5t-144 81t-88.5 121.5t-31 151zM217 1466q0 41 32 70.5t75 29.5q16 0 41 -7t38 -18l128 -115l127 115q13 11 37.5 18t40.5 7q43 0 75.5 -29.5t32.5 -70.5q0 -46 -60 -99l-172 -133q-33 -29 -81.5 -29t-81.5 29l-173 133q-59 52 -59 99zM401 653 q94 -9 158 -9q66 0 100.5 28t34.5 95q0 64 -32.5 93t-98.5 29q-78 0 -120 -37.5t-42 -104.5v-94z" />
<glyph unicode="&#x11c;" horiz-adv-x="1226" d="M77 556v435q0 131 34 235.5t101.5 180.5t174.5 116.5t249 40.5q114 0 219 -31.5t169.5 -86t64.5 -116.5q0 -54 -41.5 -93t-102.5 -39q-15 0 -26 1.5t-21 6t-15.5 7t-16.5 9.5t-15 10l-23 12q-86 53 -182 53q-141 0 -202 -78.5t-61 -227.5v-435q0 -149 61 -228t202 -79 q96 0 182 46v343h-113q-56 0 -97 40.5t-41 97.5t41 97.5t97 40.5h238q80 0 130 -39t50 -114v-485q0 -60 -30 -109.5t-80 -83t-115 -56.5t-134 -33.5t-138 -10.5q-142 0 -249 40.5t-174.5 116.5t-101.5 180.5t-34 235.5zM301 1747q3 50 59 99l173 134q36 27 81.5 27t81.5 -27 l172 -134q57 -50 60 -99q0 -41 -33 -71t-78 -30q-20 0 -41.5 8t-44.5 26t-39 32t-41.5 39.5t-36.5 35.5q-10 -10 -36.5 -36t-42 -39.5t-39 -31.5t-44.5 -26t-42 -8q-44 0 -76.5 30t-32.5 71z" />
<glyph unicode="&#x11d;" horiz-adv-x="1167" d="M77 -175q0 65 32.5 122t107.5 118q-46 80 -46 180q0 85 61 161q-140 117 -140 302q0 89 29.5 165t84.5 132t138.5 88t186.5 32q79 0 148 -19t145 -56q43 59 94 90t98 31q58 0 100.5 -37t42.5 -91q0 -25 -10.5 -46t-23.5 -33q-63 -55 -81.5 -80.5t-18.5 -68.5v-123 q0 -86 -29 -157.5t-86 -126t-148 -85t-208 -30.5q-65 0 -120 12q-13 -38 -13 -50q0 -71 62 -71h92q108 0 198.5 -20.5t159.5 -60.5t107.5 -105.5t38.5 -150.5q0 -114 -67 -200.5t-183.5 -132t-265.5 -45.5q-143 0 -253 43t-171.5 124t-61.5 189zM270 1309q2 49 58 98 l174 134q36 28 81.5 28t80.5 -28l173 -134q57 -50 60 -98q0 -41 -33 -71.5t-78 -30.5q-20 0 -41.5 8.5t-44.5 26t-39 31.5t-41.5 39.5t-36.5 35.5q-10 -9 -36.5 -35t-42 -40t-39 -32t-44.5 -26t-42 -8q-44 0 -76.5 30.5t-32.5 71.5zM379 -153q0 -62 47 -95.5t141 -33.5 q95 0 152 32t57 90q0 49 -48 73t-149 24l-161 2q-21 -26 -30 -46.5t-9 -45.5zM395 703q0 -82 41 -127t127 -45q80 0 120 41.5t40 117.5v153q-86 38 -156 38q-83 0 -127.5 -46.5t-44.5 -131.5z" />
<glyph unicode="&#x11e;" horiz-adv-x="1226" d="M77 556v435q0 131 34 235.5t101.5 180.5t174.5 116.5t249 40.5q114 0 219 -31.5t169.5 -86t64.5 -116.5q0 -54 -41.5 -93t-102.5 -39q-15 0 -26 1.5t-21 6t-15.5 7t-16.5 9.5t-15 10l-23 12q-86 53 -182 53q-141 0 -202 -78.5t-61 -227.5v-435q0 -149 61 -228t202 -79 q96 0 182 46v343h-113q-56 0 -97 40.5t-41 97.5t41 97.5t97 40.5h238q80 0 130 -39t50 -114v-485q0 -60 -30 -109.5t-80 -83t-115 -56.5t-134 -33.5t-138 -10.5q-142 0 -249 40.5t-174.5 116.5t-101.5 180.5t-34 235.5zM288 1848q-15 58 16 90.5t80 32.5q29 0 56 -13.5 t43 -37.5q67 -68 131 -68q66 0 130 68q38 51 100 51q50 0 80.5 -32.5t16.5 -90.5q-17 -60 -74 -106.5t-124 -68.5t-129 -22t-128 22t-122.5 68.5t-75.5 106.5z" />
<glyph unicode="&#x11f;" horiz-adv-x="1167" d="M77 -175q0 65 32.5 122t107.5 118q-46 80 -46 180q0 85 61 161q-140 117 -140 302q0 89 29.5 165t84.5 132t138.5 88t186.5 32q79 0 148 -19t145 -56q43 59 94 90t98 31q58 0 100.5 -37t42.5 -91q0 -25 -10.5 -46t-23.5 -33q-63 -55 -81.5 -80.5t-18.5 -68.5v-123 q0 -86 -29 -157.5t-86 -126t-148 -85t-208 -30.5q-65 0 -120 12q-13 -38 -13 -50q0 -71 62 -71h92q108 0 198.5 -20.5t159.5 -60.5t107.5 -105.5t38.5 -150.5q0 -114 -67 -200.5t-183.5 -132t-265.5 -45.5q-143 0 -253 43t-171.5 124t-61.5 189zM257 1409q-15 58 16 90.5 t80 32.5q29 0 56 -13.5t43 -37.5q67 -68 131 -68q65 0 130 68q38 51 100 51q50 0 80.5 -32.5t16.5 -90.5q-17 -60 -74 -106.5t-124 -68.5t-129 -22t-128 22t-122.5 68.5t-75.5 106.5zM379 -153q0 -62 47 -95.5t141 -33.5q95 0 152 32t57 90q0 49 -48 73t-149 24l-161 2 q-21 -26 -30 -46.5t-9 -45.5zM395 703q0 -82 41 -127t127 -45q80 0 120 41.5t40 117.5v153q-86 38 -156 38q-83 0 -127.5 -46.5t-44.5 -131.5z" />
<glyph unicode="&#x120;" horiz-adv-x="1226" d="M77 556v435q0 131 34 235.5t101.5 180.5t174.5 116.5t249 40.5q114 0 219 -31.5t169.5 -86t64.5 -116.5q0 -54 -41.5 -93t-102.5 -39q-15 0 -26 1.5t-21 6t-15.5 7t-16.5 9.5t-15 10l-23 12q-86 53 -182 53q-141 0 -202 -78.5t-61 -227.5v-435q0 -149 61 -228t202 -79 q96 0 182 46v343h-113q-56 0 -97 40.5t-41 97.5t41 97.5t97 40.5h238q80 0 130 -39t50 -114v-485q0 -60 -30 -109.5t-80 -83t-115 -56.5t-134 -33.5t-138 -10.5q-142 0 -249 40.5t-174.5 116.5t-101.5 180.5t-34 235.5zM471 1787q0 55 40.5 94t99.5 39q61 0 102.5 -38.5 t41.5 -94.5q0 -58 -41.5 -98.5t-102.5 -40.5q-59 0 -99.5 41t-40.5 98z" />
<glyph unicode="&#x121;" horiz-adv-x="1167" d="M77 -175q0 65 32.5 122t107.5 118q-46 80 -46 180q0 85 61 161q-140 117 -140 302q0 89 29.5 165t84.5 132t138.5 88t186.5 32q79 0 148 -19t145 -56q43 59 94 90t98 31q58 0 100.5 -37t42.5 -91q0 -25 -10.5 -46t-23.5 -33q-63 -55 -81.5 -80.5t-18.5 -68.5v-123 q0 -86 -29 -157.5t-86 -126t-148 -85t-208 -30.5q-65 0 -120 12q-13 -38 -13 -50q0 -71 62 -71h92q108 0 198.5 -20.5t159.5 -60.5t107.5 -105.5t38.5 -150.5q0 -114 -67 -200.5t-183.5 -132t-265.5 -45.5q-143 0 -253 43t-171.5 124t-61.5 189zM379 -153q0 -62 47 -95.5 t141 -33.5q95 0 152 32t57 90q0 49 -48 73t-149 24l-161 2q-21 -26 -30 -46.5t-9 -45.5zM395 703q0 -82 41 -127t127 -45q80 0 120 41.5t40 117.5v153q-86 38 -156 38q-83 0 -127.5 -46.5t-44.5 -131.5zM441 1348q0 55 40.5 94t99.5 39q61 0 102.5 -38.5t41.5 -94.5 q0 -58 -41.5 -98.5t-102.5 -40.5q-59 0 -99.5 41t-40.5 98z" />
<glyph unicode="&#x122;" horiz-adv-x="1226" d="M77 556v435q0 131 34 235.5t101.5 180.5t174.5 116.5t249 40.5q114 0 219 -31.5t169.5 -86t64.5 -116.5q0 -54 -41.5 -93t-102.5 -39q-15 0 -26 1.5t-21 6t-15.5 7t-16.5 9.5t-15 10l-23 12q-86 53 -182 53q-141 0 -202 -78.5t-61 -227.5v-435q0 -149 61 -228t202 -79 q96 0 182 46v343h-113q-56 0 -97 40.5t-41 97.5t41 97.5t97 40.5h238q80 0 130 -39t50 -114v-485q0 -60 -30 -109.5t-80 -83t-115 -56.5t-134 -33.5t-138 -10.5q-142 0 -249 40.5t-174.5 116.5t-101.5 180.5t-34 235.5zM454 -232q0 58 35.5 89.5t123.5 31.5q163 0 163 -117 q0 -58 -36 -128t-87 -117.5t-90 -47.5q-17 0 -28.5 9t-11.5 27q0 20 14 40t35.5 46t32.5 50q-37 2 -61.5 7t-46.5 17t-32.5 35t-10.5 58z" />
<glyph unicode="&#x123;" horiz-adv-x="1167" d="M77 -175q0 65 32.5 122t107.5 118q-46 80 -46 180q0 85 61 161q-140 117 -140 302q0 89 29.5 165t84.5 132t138.5 88t186.5 32q79 0 148 -19t145 -56q43 59 94 90t98 31q58 0 100.5 -37t42.5 -91q0 -25 -10.5 -46t-23.5 -33q-63 -55 -81.5 -80.5t-18.5 -68.5v-123 q0 -86 -29 -157.5t-86 -126t-148 -85t-208 -30.5q-65 0 -120 12q-13 -38 -13 -50q0 -71 62 -71h92q108 0 198.5 -20.5t159.5 -60.5t107.5 -105.5t38.5 -150.5q0 -114 -67 -200.5t-183.5 -132t-265.5 -45.5q-143 0 -253 43t-171.5 124t-61.5 189zM379 -153q0 -62 47 -95.5 t141 -33.5q95 0 152 32t57 90q0 49 -48 73t-149 24l-161 2q-21 -26 -30 -46.5t-9 -45.5zM379 1391q0 58 36 128.5t86.5 118t90.5 47.5q16 0 27.5 -9.5t11.5 -27.5q0 -20 -14 -40.5t-35 -46.5t-32 -49q37 -2 61 -6.5t46.5 -16.5t33 -35t10.5 -58q0 -58 -35.5 -89.5 t-124.5 -31.5q-162 0 -162 116zM395 703q0 -82 41 -127t127 -45q80 0 120 41.5t40 117.5v153q-86 38 -156 38q-83 0 -127.5 -46.5t-44.5 -131.5z" />
<glyph unicode="&#x124;" horiz-adv-x="1357" d="M138 123v1301q0 57 44.5 98.5t108.5 41.5q62 0 108 -41.5t46 -98.5v-510h467v510q0 56 46 98t107 42t107.5 -42t46.5 -98v-1301q0 -58 -46 -100t-108 -42t-107.5 42.5t-45.5 99.5v510h-467v-510q0 -58 -45.5 -100t-108.5 -42q-64 0 -108.5 42t-44.5 100zM366 1746 q3 50 59 99l173 133q37 29 81.5 29t81.5 -29l172 -133q57 -50 60 -99q0 -41 -33 -70.5t-77 -29.5q-21 0 -42.5 8t-44.5 25.5t-38.5 31.5t-41.5 39.5t-37 35.5q-9 -9 -36 -35.5t-42 -39.5t-39 -31t-45 -26t-42 -8q-44 0 -76.5 29.5t-32.5 70.5z" />
<glyph unicode="&#x128;" horiz-adv-x="584" d="M-48 1786q0 73 58.5 124t133.5 51q42 0 81 -13.5t63.5 -30t52.5 -30t50 -13.5q18 0 32.5 8t24.5 19.5l20 23t25.5 20t35.5 8.5q42 0 74.5 -31t32.5 -75t-32 -81.5t-77 -58t-88 -20.5q-40 0 -78.5 13t-63 28t-53 29.5t-49.5 17.5q-18 2 -32.5 -5t-25.5 -19t-21.5 -24.5 t-27 -21.5t-36.5 -9q-36 0 -66 25t-34 65zM138 121v1303q0 57 44.5 98.5t108.5 41.5q62 0 108 -41.5t46 -98.5v-1303q0 -56 -46 -98t-108 -42q-64 0 -108.5 41.5t-44.5 98.5z" />
<glyph unicode="&#x129;" horiz-adv-x="623" d="M-28 1348q0 74 58.5 124.5t134.5 50.5q41 0 80 -14t63 -30.5t52 -30t50 -13.5q18 0 32.5 8t24.5 19.5t20 23.5t25.5 20t35.5 8q42 0 75 -30t33 -75q0 -44 -31.5 -82t-76.5 -58t-89 -20q-40 0 -78 12.5t-63 28t-53.5 30t-49.5 16.5q-18 3 -32.5 -4t-25 -19t-21.5 -24.5 t-27 -21.5t-36 -9q-36 0 -66 25.5t-35 64.5zM160 121v863q0 55 44 94t107.5 39t107 -39t43.5 -94v-863q0 -58 -43 -97t-107.5 -39t-108 39t-43.5 97z" />
<glyph unicode="&#x12a;" horiz-adv-x="584" d="M-125 1819q0 46 36 79t89 33h590q50 0 86.5 -33t36.5 -79q0 -47 -36 -79t-87 -32h-590q-53 0 -89 32t-36 79zM138 121v1303q0 57 44.5 98.5t108.5 41.5q62 0 108 -41.5t46 -98.5v-1303q0 -56 -46 -98t-108 -42q-64 0 -108.5 41.5t-44.5 98.5z" />
<glyph unicode="&#x12b;" horiz-adv-x="623" d="M-106 1380q0 46 36.5 79.5t88.5 33.5h590q50 0 86.5 -33.5t36.5 -79.5q0 -47 -36 -79t-87 -32h-590q-53 0 -89 32t-36 79zM160 121v863q0 55 44 94t107.5 39t107 -39t43.5 -94v-863q0 -58 -43 -97t-107.5 -39t-108 39t-43.5 97z" />
<glyph unicode="&#x12c;" horiz-adv-x="584" d="M-32 1848q-15 58 16 90.5t80 32.5q29 0 56 -13.5t43 -37.5q67 -68 131 -68q66 0 130 68q38 51 100 51q50 0 81 -32.5t16 -90.5q-17 -60 -74 -106.5t-123.5 -68.5t-129.5 -22q-62 0 -128 22t-122.5 68.5t-75.5 106.5zM138 121v1303q0 57 44.5 98.5t108.5 41.5 q62 0 108 -41.5t46 -98.5v-1303q0 -56 -46 -98t-108 -42q-64 0 -108.5 41.5t-44.5 98.5z" />
<glyph unicode="&#x12d;" horiz-adv-x="623" d="M-13 1409q-15 58 16 90.5t80 32.5q29 0 56 -13.5t43 -37.5q67 -68 132 -68t129 68q38 51 101 51q49 0 80 -32.5t16 -90.5q-17 -60 -73.5 -106.5t-123.5 -68.5t-129 -22q-63 0 -129 22t-122.5 68.5t-75.5 106.5zM160 121v863q0 55 44 94t107.5 39t107 -39t43.5 -94v-863 q0 -58 -43 -97t-107.5 -39t-108 39t-43.5 97z" />
<glyph unicode="&#x12e;" horiz-adv-x="584" d="M65 -257q0 125 121 274q-48 42 -48 104v1303q0 57 44.5 98.5t108.5 41.5q62 0 108 -41.5t46 -98.5v-1303q0 -42 -46 -100q-43 -52 -75.5 -120.5t-32.5 -124.5q0 -24 14.5 -39t43.5 -15q14 0 40.5 4t31.5 4h20q40 0 69 -28t29 -66q0 -35 -20 -60t-54 -36.5t-66 -15.5 t-68 -4q-123 0 -194.5 56t-71.5 167z" />
<glyph unicode="&#x12f;" horiz-adv-x="623" d="M77 -257q0 124 130 278q-47 40 -47 100v863q0 55 44 94t107.5 39t107 -39t43.5 -94v-863q0 -52 -44 -100q-46 -53 -80.5 -121.5t-34.5 -123.5q0 -24 14 -39t43 -15q14 0 40.5 4t30.5 4h21q40 0 69 -28t29 -66q0 -35 -20 -60t-54 -36.5t-66 -15.5t-69 -4q-122 0 -193 56 t-71 167zM140 1411q0 65 49.5 109t121.5 44t122 -45t50 -108q0 -64 -49.5 -108.5t-122.5 -44.5q-71 0 -121 45t-50 108z" />
<glyph unicode="&#x130;" horiz-adv-x="584" d="M138 121v1303q0 57 44.5 98.5t108.5 41.5q62 0 108 -41.5t46 -98.5v-1303q0 -56 -46 -98t-108 -42q-64 0 -108.5 41.5t-44.5 98.5zM151 1787q0 55 40.5 94t99.5 39q61 0 102.5 -38.5t41.5 -94.5q0 -58 -41.5 -98.5t-102.5 -40.5q-59 0 -99.5 41t-40.5 98z" />
<glyph unicode="&#x131;" horiz-adv-x="623" d="M160 121v863q0 55 44 94t107.5 39t107 -39t43.5 -94v-863q0 -58 -43 -97t-107.5 -39t-108 39t-43.5 97z" />
<glyph unicode="&#x134;" horiz-adv-x="930" d="M33 132q0 61 45.5 99.5t96.5 38.5q25 0 65.5 -6.5t68.5 -6.5q54 0 89.5 17t54.5 52.5t26.5 79.5t7.5 109v909q0 59 44 99.5t109 40.5q61 0 107 -42t46 -98v-909q0 -104 -15.5 -184t-51.5 -147.5t-93.5 -111t-145 -67.5t-202.5 -24q-252 0 -252 151zM326 1747q3 50 59 99 l174 134q35 27 80.5 27t81.5 -27l172 -134q58 -50 60 -99q0 -41 -33 -71t-77 -30q-21 0 -42 8t-44 26t-39 32t-41.5 39.5t-36.5 35.5q-10 -10 -36.5 -36t-42 -39.5t-39 -31.5t-45 -26t-42.5 -8q-44 0 -76.5 30t-32.5 71z" />
<glyph unicode="&#x135;" horiz-adv-x="623" d="M-92.5 -247q6.5 28 27 48.5t43.5 32t47 15.5q65 14 100 54.5t35 117.5v993q0 57 44 97.5t107.5 40.5t107 -40.5t43.5 -97.5v-983q0 -185 -95.5 -300.5t-270.5 -138.5q-17 -2 -50 -2q-51 0 -88 26.5t-48 72.5v-3q-9 39 -2.5 67zM0 1309q3 49 59 98l173 134q36 28 81.5 28 t81.5 -28l172 -134q57 -50 60 -98q0 -41 -33 -71.5t-77 -30.5q-21 0 -42.5 8.5t-44.5 26t-38.5 31.5t-41.5 39.5t-36 35.5q-11 -9 -37 -35t-42 -40t-39 -32t-44.5 -26t-42.5 -8q-44 0 -76.5 30.5t-32.5 71.5z" />
<glyph unicode="&#x136;" horiz-adv-x="1217" d="M138 123v1301q0 57 44.5 98.5t108.5 41.5q62 0 108 -41.5t46 -98.5v-416l433 493q22 27 56.5 45t69.5 18q52 0 101.5 -42.5t49.5 -97.5q0 -28 -7 -47.5t-31 -46.5l-435 -493l479 -636q25 -33 25 -74q0 -52 -41.5 -99t-107.5 -47q-80 0 -127 63l-425 569l-40 -44v-446 q0 -58 -45.5 -100t-108.5 -42q-64 0 -108.5 42t-44.5 100zM508 -232q0 58 36 89.5t125 31.5q161 0 161 -117q0 -58 -35.5 -128t-86 -117.5t-90.5 -47.5q-16 0 -27.5 9t-11.5 27q0 20 13.5 40t34.5 46t32 50q-37 2 -61 7t-46.5 17t-33 35t-10.5 58z" />
<glyph unicode="&#x137;" horiz-adv-x="1066" d="M140 121v1326q0 57 43.5 96.5t107.5 39.5t108 -39.5t44 -96.5v-696l302 328q36 36 104 36q62 0 104 -36.5t42 -91.5q0 -54 -42 -92h3l-268 -284l322 -425q25 -35 25 -81q-3 -55 -45 -87.5t-103 -32.5q-80 0 -124 61l-296 401l-24 -22v-304q0 -58 -44 -97t-108 -39 t-107.5 39t-43.5 97zM437 -232q0 58 35.5 89.5t123.5 31.5q163 0 163 -117q0 -58 -36 -128t-87 -117.5t-90 -47.5q-17 0 -28.5 9t-11.5 27q0 20 14 40t35.5 46t31.5 50q-36 2 -60.5 7t-46.5 17t-32.5 35t-10.5 58z" />
<glyph unicode="&#x139;" horiz-adv-x="1102" d="M138 151v1273q0 57 44.5 98.5t108.5 41.5q62 0 108 -41.5t46 -98.5v-1148h475q60 0 104.5 -39.5t44.5 -96.5q0 -59 -43 -99.5t-106 -40.5h-617q-67 0 -116 44t-49 107zM232 1767q0 30 18 54l177 173l18 18q17 16 25.5 23t25 12.5t39.5 5.5q40 0 73.5 -31.5t33.5 -75.5 q0 -33 -19 -61l-180 -179q-22 -20 -31 -26.5t-27 -13t-40 -6.5q-47 0 -80 30t-33 77z" />
<glyph unicode="&#x13a;" horiz-adv-x="586" d="M140 243v1204q0 55 44 95.5t107 40.5q64 0 108 -39.5t44 -96.5v-1177q0 -37 5 -51.5t27 -38.5q4 -4 12.5 -13t11.5 -13.5t7.5 -12.5t6.5 -17t2 -21q0 -59 -43 -88.5t-121 -29.5q-31 0 -56.5 4.5t-55.5 20.5t-50.5 42.5t-34.5 75.5t-14 115zM167 1782q0 31 17 54l178 173 l17 18q16 16 25 23t25.5 12.5t39.5 5.5q39 0 73.5 -31.5t34.5 -75.5q0 -32 -21 -61l-179 -179q-23 -20 -31.5 -26.5t-26.5 -13t-41 -6.5q-46 0 -78.5 30t-32.5 77z" />
<glyph unicode="&#x13b;" horiz-adv-x="1102" d="M138 151v1273q0 57 44.5 98.5t108.5 41.5q62 0 108 -41.5t46 -98.5v-1148h475q60 0 104.5 -39.5t44.5 -96.5q0 -59 -43 -99.5t-106 -40.5h-617q-67 0 -116 44t-49 107zM391 -232q0 58 35.5 89.5t123.5 31.5q163 0 163 -117q0 -58 -36 -128t-87 -117.5t-90 -47.5 q-17 0 -28.5 9t-11.5 27q0 20 14 40t35.5 46t31.5 50q-36 2 -60.5 7t-46.5 17t-32.5 35t-10.5 58z" />
<glyph unicode="&#x13c;" horiz-adv-x="586" d="M134 -232q0 58 35.5 89.5t123.5 31.5q163 0 163 -117q0 -58 -36 -128t-86.5 -117.5t-90.5 -47.5q-17 0 -28.5 9t-11.5 27q0 20 14 40t35.5 46t32.5 50q-37 2 -61.5 7t-46.5 17t-32.5 35t-10.5 58zM140 243v1204q0 55 44 95.5t107 40.5q64 0 108 -39.5t44 -96.5v-1177 q0 -37 5 -51.5t27 -38.5q4 -4 12.5 -13t11.5 -13.5t7.5 -12.5t6.5 -17t2 -21q0 -59 -43 -88.5t-121 -29.5q-31 0 -56.5 4.5t-55.5 20.5t-50.5 42.5t-34.5 75.5t-14 115z" />
<glyph unicode="&#x13d;" horiz-adv-x="1102" d="M138 151v1273q0 57 44.5 98.5t108.5 41.5q62 0 108 -41.5t46 -98.5v-1148h475q60 0 104.5 -39.5t44.5 -96.5q0 -59 -43 -99.5t-106 -40.5h-617q-67 0 -116 44t-49 107zM636 1420q0 69 53.5 119t130.5 50q74 0 128 -50t54 -128q0 -50 -17.5 -125.5t-45 -148t-66.5 -124 t-78 -51.5q-16 0 -31 3.5t-31 13t-24 30.5t-4 51q3 31 17.5 59.5t31.5 62.5t24 74q-63 13 -102.5 59t-39.5 105z" />
<glyph unicode="&#x13e;" horiz-adv-x="996" d="M140 243v1204q0 55 44 95.5t107 40.5q64 0 108 -39.5t44 -96.5v-1177q0 -37 5 -51.5t27 -38.5q4 -4 12.5 -13t11.5 -13.5t7.5 -12.5t6.5 -17t2 -21q0 -59 -43 -88.5t-121 -29.5q-31 0 -56.5 4.5t-55.5 20.5t-50.5 42.5t-34.5 75.5t-14 115zM585 1420q0 69 54 119t130 50 q75 0 128.5 -50t53.5 -128q0 -50 -17 -125.5t-44.5 -148t-67 -124t-77.5 -51.5q-16 0 -31 3.5t-31 13t-24 30.5t-4 51q3 31 17 59.5t31 62.5t25 74q-63 13 -103 59t-40 105z" />
<glyph unicode="&#x141;" horiz-adv-x="1194" d="M13 623q0 22 11.5 43.5t32.5 34.5l138 90v633q0 57 45 98.5t109 41.5q62 0 107.5 -41.5t45.5 -98.5v-431l136 90q42 26 77 26q28 0 53 -18.5t34 -47.5q5 -21 5 -31q0 -22 -11 -43t-31 -34l-263 -172v-487h475q60 0 105 -39.5t45 -96.5q0 -59 -43.5 -99.5t-106.5 -40.5 h-617q-67 0 -116 44t-49 107v410l-13 -9q-2 -1 -9.5 -6l-10.5 -7t-9.5 -6t-10.5 -5.5t-10 -3t-11 -1.5q-45 0 -76.5 26t-31.5 74z" />
<glyph unicode="&#x142;" horiz-adv-x="826" d="M13 623q0 22 11.5 43.5t32.5 34.5l184 121v625q0 55 44 95.5t108 40.5t107.5 -39.5t43.5 -96.5v-428l94 64q42 26 77 26q28 0 53 -18.5t34 -47.5q5 -21 5 -31q0 -22 -11 -43t-31 -34l-221 -146v-519q0 -36 5 -51t28 -39q2 -3 11.5 -13t11.5 -13.5t7 -12t6.5 -17.5 t1.5 -21q0 -59 -42.5 -88.5t-120.5 -29.5q-31 0 -56.5 4.5t-55.5 20.5t-50.5 42.5t-34.5 75.5t-14 115v349l-59 -40q-2 -1 -9.5 -6l-10.5 -7t-9.5 -6t-10.5 -5.5t-10 -3t-11 -1.5q-45 0 -76.5 26t-31.5 74z" />
<glyph unicode="&#x143;" horiz-adv-x="1401" d="M138 123v1293q0 64 45.5 106t115.5 42q43 0 84 -22.5t64 -58.5q121 -209 509 -889v828q0 58 46 100t109 42t107.5 -42t44.5 -100v-1293q0 -62 -46 -105t-117 -43q-43 0 -84 21t-63 55l-508 886v-820q0 -58 -46.5 -100t-109.5 -42q-64 0 -107.5 42t-43.5 100zM583 1767 q0 31 17 54l178 173l17 18q17 16 25.5 23t25 12.5t39.5 5.5q40 0 74 -31.5t34 -75.5q0 -33 -20 -62l-180 -179q-22 -20 -31 -26.5t-27 -13.5t-41 -7q-46 0 -78.5 31t-32.5 78z" />
<glyph unicode="&#x144;" horiz-adv-x="1202" d="M92 962q0 54 42 90.5t105 36.5q66 0 116 -64q144 95 289 95q202 0 308 -115t106 -313v-571q0 -58 -40 -96t-110.5 -38t-111 38t-40.5 96v571q0 82 -38.5 130t-104.5 48q-68 0 -168 -46q4 -30 4 -42v-661q0 -59 -39 -96.5t-111.5 -37.5t-112 37.5t-39.5 96.5v663 q0 34 -3.5 54t-5.5 24t-9 14q-23 32 -30 48t-7 38zM396 1328q0 30 18 54l177 174l18 17q16 16 25 23t25.5 13t39.5 6q39 0 73 -31.5t34 -75.5q0 -34 -20 -61l-179 -180q-22 -19 -31 -26t-27 -13.5t-41 -6.5q-46 0 -79 30t-33 77z" />
<glyph unicode="&#x145;" horiz-adv-x="1401" d="M138 123v1293q0 64 45.5 106t115.5 42q43 0 84 -22.5t64 -58.5q121 -209 509 -889v828q0 58 46 100t109 42t107.5 -42t44.5 -100v-1293q0 -62 -46 -105t-117 -43q-43 0 -84 21t-63 55l-508 886v-820q0 -58 -46.5 -100t-109.5 -42q-64 0 -107.5 42t-43.5 100zM541 -232 q0 58 36 89.5t124 31.5q162 0 162 -117q0 -58 -36 -128t-86.5 -117.5t-89.5 -47.5q-17 0 -28.5 9t-11.5 27q0 20 14 40t35.5 46t31.5 50q-37 2 -61 7t-46 17t-33 35t-11 58z" />
<glyph unicode="&#x146;" horiz-adv-x="1202" d="M92 962q0 54 42 90.5t105 36.5q66 0 116 -64q144 95 289 95q202 0 308 -115t106 -313v-571q0 -58 -40 -96t-110.5 -38t-111 38t-40.5 96v571q0 82 -38.5 130t-104.5 48q-68 0 -168 -46q4 -30 4 -42v-661q0 -59 -39 -96.5t-111.5 -37.5t-112 37.5t-39.5 96.5v663 q0 34 -3.5 54t-5.5 24t-9 14q-23 32 -30 48t-7 38zM441 -232q0 58 35.5 89.5t123.5 31.5q163 0 163 -117q0 -58 -36 -128t-86.5 -117.5t-90.5 -47.5q-16 0 -28 9t-12 27q0 20 14.5 40t35.5 46t32 50q-37 2 -61.5 7t-46.5 17t-32.5 35t-10.5 58z" />
<glyph unicode="&#x147;" horiz-adv-x="1401" d="M138 123v1293q0 64 45.5 106t115.5 42q43 0 84 -22.5t64 -58.5q121 -209 509 -889v828q0 58 46 100t109 42t107.5 -42t44.5 -100v-1293q0 -62 -46 -105t-117 -43q-43 0 -84 21t-63 55l-508 886v-820q0 -58 -46.5 -100t-109.5 -42q-64 0 -107.5 42t-43.5 100zM387 1905 q0 40 32.5 70t74.5 30q16 0 41 -7t39 -18l127 -115l127 115q13 11 38 18t40 7q43 0 75.5 -30t32.5 -70q0 -47 -60 -99l-172 -134q-33 -28 -81 -28t-81 28l-174 134q-59 51 -59 99z" />
<glyph unicode="&#x148;" horiz-adv-x="1202" d="M92 962q0 54 42 90.5t105 36.5q66 0 116 -64q144 95 289 95q202 0 308 -115t106 -313v-571q0 -58 -40 -96t-110.5 -38t-111 38t-40.5 96v571q0 82 -38.5 130t-104.5 48q-68 0 -168 -46q4 -30 4 -42v-661q0 -59 -39 -96.5t-111.5 -37.5t-112 37.5t-39.5 96.5v663 q0 34 -3.5 54t-5.5 24t-9 14q-23 32 -30 48t-7 38zM287 1466q0 41 32 70.5t75 29.5q16 0 41 -7t38 -18l127 -115l128 115q13 11 37.5 18t40.5 7q43 0 75.5 -29.5t32.5 -70.5q0 -46 -60 -99l-172 -133q-33 -29 -81.5 -29t-81.5 29l-173 133q-59 52 -59 99z" />
<glyph unicode="&#x14c;" horiz-adv-x="1336" d="M98 556v435q0 96 20 179.5t63.5 156.5t109 125t162 82t216.5 30t216 -30t161.5 -82t109 -125t63 -156.5t19.5 -179.5v-435q0 -121 -36.5 -224.5t-105.5 -182.5t-179 -123.5t-248.5 -44.5t-248 44.5t-179.5 123t-106.5 182.5t-36.5 225zM249 1819q0 46 36.5 78.5 t88.5 32.5h590q51 0 87 -32.5t36 -78.5q0 -47 -36 -79.5t-87 -32.5h-590q-52 0 -88.5 32.5t-36.5 79.5zM406 556q0 -136 66 -216.5t196.5 -80.5t196.5 80t66 217v435q0 295 -262 295q-263 0 -263 -295v-435z" />
<glyph unicode="&#x14d;" horiz-adv-x="1148" d="M98 393v326q0 87 31.5 161t90 129t150 86.5t205.5 31.5t205 -31.5t149.5 -86.5t89.5 -129t31 -161v-326q0 -87 -31 -161t-89.5 -129.5t-149.5 -86.5t-205 -31t-205.5 31.5t-150 86.5t-90 129t-31.5 161zM155 1380q0 46 36.5 79.5t88.5 33.5h590q50 0 86.5 -33.5 t36.5 -79.5q0 -47 -36 -79t-87 -32h-590q-53 0 -89 32t-36 79zM401 393q0 -70 45 -110t128.5 -40t128 39.5t44.5 110.5v328q0 69 -44.5 108t-128 39t-128.5 -39t-45 -108v-328z" />
<glyph unicode="&#x14e;" horiz-adv-x="1336" d="M98 556v435q0 96 20 179.5t63.5 156.5t109 125t162 82t216.5 30t216 -30t161.5 -82t109 -125t63 -156.5t19.5 -179.5v-435q0 -121 -36.5 -224.5t-105.5 -182.5t-179 -123.5t-248.5 -44.5t-248 44.5t-179.5 123t-106.5 182.5t-36.5 225zM342 1848q-15 58 16 90.5t81 32.5 q29 0 56 -13.5t42 -37.5q68 -68 132 -68q65 0 129 68q38 51 101 51q49 0 80 -32.5t16 -90.5q-17 -60 -73.5 -106.5t-123.5 -68.5t-129 -22t-128.5 22t-123 68.5t-75.5 106.5zM406 556q0 -136 66 -216.5t196.5 -80.5t196.5 80t66 217v435q0 295 -262 295q-263 0 -263 -295 v-435z" />
<glyph unicode="&#x14f;" horiz-adv-x="1148" d="M98 393v326q0 87 31.5 161t90 129t150 86.5t205.5 31.5t205 -31.5t149.5 -86.5t89.5 -129t31 -161v-326q0 -87 -31 -161t-89.5 -129.5t-149.5 -86.5t-205 -31t-205.5 31.5t-150 86.5t-90 129t-31.5 161zM248 1409q-15 58 16 90.5t81 32.5q28 0 55 -13.5t43 -37.5 q67 -68 132 -68t129 68q38 51 101 51q49 0 80 -32.5t16 -90.5q-17 -60 -73.5 -106.5t-123.5 -68.5t-129 -22t-128.5 22t-123 68.5t-75.5 106.5zM401 393q0 -70 45 -110t128.5 -40t128 39.5t44.5 110.5v328q0 69 -44.5 108t-128 39t-128.5 -39t-45 -108v-328z" />
<glyph unicode="&#x150;" horiz-adv-x="1336" d="M98 556v435q0 96 20 179.5t63.5 156.5t109 125t162 82t216.5 30t216 -30t161.5 -82t109 -125t63 -156.5t19.5 -179.5v-435q0 -121 -36.5 -224.5t-105.5 -182.5t-179 -123.5t-248.5 -44.5t-248 44.5t-179.5 123t-106.5 182.5t-36.5 225zM370.5 1724.5 q-10.5 33.5 12.5 70.5l138 195q16 22 22 29.5t21 22.5t32 20.5t37 4.5q37 0 70 -23t44 -56.5t-11 -70.5l-142 -209q-23 -33 -46.5 -48.5t-62.5 -15.5q-37 0 -70.5 23.5t-44 57zM406 556q0 -136 66 -216.5t196.5 -80.5t196.5 80t66 217v435q0 295 -262 295q-263 0 -263 -295 v-435zM744 1724.5q-10 33.5 12 70.5l139 195q1 2 4 7q13 18 20.5 27t21 21.5t29.5 17.5t36 4q36 0 69.5 -23t44 -56.5t-10.5 -70.5l-143 -209q-22 -33 -45.5 -48.5t-63.5 -15.5q-36 0 -69.5 23.5t-43.5 57z" />
<glyph unicode="&#x151;" horiz-adv-x="1148" d="M98 393v326q0 87 31.5 161t90 129t150 86.5t205.5 31.5t205 -31.5t149.5 -86.5t89.5 -129t31 -161v-326q0 -87 -31 -161t-89.5 -129.5t-149.5 -86.5t-205 -31t-205.5 31.5t-150 86.5t-90 129t-31.5 161zM270.5 1286q-10.5 34 11.5 71l139 195q15 21 21 29t21.5 23t32 20 t37.5 5q36 0 69.5 -23.5t44 -56.5t-10.5 -70l-143 -210q-22 -33 -45.5 -48.5t-63.5 -15.5q-36 0 -69.5 23.5t-44 57.5zM401 393q0 -70 45 -110t128.5 -40t128 39.5t44.5 110.5v328q0 69 -44.5 108t-128 39t-128.5 -39t-45 -108v-328zM643.5 1286q-10.5 34 12.5 71l138 195 q2 2 5 6q12 18 19.5 27t21 21.5t29.5 17.5t36 5q37 0 70 -23.5t44 -56.5t-11 -70l-142 -210q-23 -33 -46.5 -48.5t-63.5 -15.5q-36 0 -69 23.5t-43.5 57.5z" />
<glyph unicode="&#x152;" horiz-adv-x="1656" d="M33 517v513q0 91 18 169t58.5 146t100.5 116t149 75.5t200 27.5q153 0 267 -67q52 48 121 48h527q63 0 109 -41.5t46 -100.5q0 -57 -45.5 -96.5t-109.5 -39.5h-389v-353h348q59 0 105.5 -40t46.5 -98q0 -60 -44 -100t-108 -40h-348v-358h412q61 0 107 -40t46 -96 q0 -59 -45 -100.5t-108 -41.5h-515q-111 0 -165 50q-111 -69 -258 -69q-128 0 -229 41.5t-165.5 114.5t-98 170t-33.5 210zM339 517q0 -118 56 -188t163.5 -70t163.5 70t56 188v513q0 256 -219.5 256t-219.5 -256v-513z" />
<glyph unicode="&#x153;" horiz-adv-x="1601" d="M33 393v326q0 86 32 160t90.5 129t147 87t197.5 32q208 0 330 -119q114 117 327 117q200 0 310.5 -102t110.5 -276q0 -350 -436 -350q-63 0 -158 13v-50q0 -58 44.5 -91t128.5 -33q37 0 74.5 8t58 15t69.5 26h-2q28 14 59 14q59 0 100.5 -39.5t41.5 -88.5 q0 -40 -31 -73.5t-77.5 -53.5t-104.5 -34t-108.5 -19.5t-92.5 -5.5q-205 0 -318 113q-117 -113 -326 -113q-109 0 -197.5 31.5t-147 87t-90.5 129.5t-32 160zM335 393q0 -70 44.5 -110t128.5 -40t129 40t45 110v328q0 69 -45 108t-129 39t-128.5 -39t-44.5 -108v-328z M984 653q95 -9 164 -9q75 0 102.5 28t27.5 75q0 121 -134 121q-75 0 -117.5 -32.5t-42.5 -88.5v-94z" />
<glyph unicode="&#x154;" horiz-adv-x="1347" d="M138 125v1262q0 64 49.5 111t117.5 47h381q119 0 214 -26.5t155.5 -70.5t100.5 -105t56.5 -125.5t16.5 -136.5q0 -160 -80 -267.5t-225 -154.5l301 -450q28 -41 24 -81.5t-26.5 -72.5t-58.5 -52t-73 -20q-85 0 -129 67l-368 577h-149v-502q0 -58 -47 -101t-109 -43 q-61 0 -106 42.5t-45 101.5zM445 903h245q113 0 172.5 46t59.5 132q0 186 -245 186h-232v-364zM469 1767q0 30 18 54l177 173l18 18q16 16 25 23t25 12.5t39 5.5q40 0 73.5 -31.5t33.5 -75.5q0 -34 -19 -62l-180 -179q-22 -20 -30.5 -26.5t-26.5 -13.5t-41 -7 q-47 0 -79.5 31t-32.5 78z" />
<glyph unicode="&#x155;" horiz-adv-x="826" d="M92 958q0 57 44 94t105 37q63 0 116 -68q76 44 147.5 69t124.5 25q180 0 180 -131q0 -63 -45 -102t-109 -36q-65 6 -111 2.5t-99 -24.5q4 -30 4 -42v-661q0 -58 -43 -97t-107.5 -39t-108 39t-43.5 97v661q0 66 -24 103q-11 13 -16.5 21.5t-10 22t-4.5 29.5zM328 1328 q0 30 19 54l176 174l18 17q17 16 25.5 23t25 13t39.5 6q40 0 73.5 -31.5t33.5 -75.5q0 -34 -19 -61l-180 -180q-22 -19 -30.5 -26t-26.5 -13.5t-41 -6.5q-47 0 -80 30t-33 77z" />
<glyph unicode="&#x156;" horiz-adv-x="1347" d="M138 125v1262q0 64 49.5 111t117.5 47h381q119 0 214 -26.5t155.5 -70.5t100.5 -105t56.5 -125.5t16.5 -136.5q0 -160 -80 -267.5t-225 -154.5l301 -450q28 -41 24 -81.5t-26.5 -72.5t-58.5 -52t-73 -20q-85 0 -129 67l-368 577h-149v-502q0 -58 -47 -101t-109 -43 q-61 0 -106 42.5t-45 101.5zM445 903h245q113 0 172.5 46t59.5 132q0 186 -245 186h-232v-364zM513 -232q0 58 36 89.5t124 31.5q162 0 162 -117q0 -58 -36 -128t-86.5 -117.5t-89.5 -47.5q-17 0 -28.5 9t-11.5 27q0 20 14 40t35.5 46t31.5 50q-36 2 -60.5 7t-47 17t-33 35 t-10.5 58z" />
<glyph unicode="&#x157;" horiz-adv-x="826" d="M92 958q0 57 44 94t105 37q63 0 116 -68q76 44 147.5 69t124.5 25q180 0 180 -131q0 -63 -45 -102t-109 -36q-65 6 -111 2.5t-99 -24.5q4 -30 4 -42v-661q0 -58 -43 -97t-107.5 -39t-108 39t-43.5 97v661q0 66 -24 103q-11 13 -16.5 21.5t-10 22t-4.5 29.5zM136 -232 q0 58 35.5 89.5t123.5 31.5q163 0 163 -117q0 -58 -36 -128t-86.5 -117.5t-90.5 -47.5q-16 0 -27 9t-11 27q0 20 13.5 40t34.5 46t32 50q-37 2 -61.5 7t-46.5 17t-32.5 35t-10.5 58z" />
<glyph unicode="&#x158;" horiz-adv-x="1347" d="M138 125v1262q0 64 49.5 111t117.5 47h381q119 0 214 -26.5t155.5 -70.5t100.5 -105t56.5 -125.5t16.5 -136.5q0 -160 -80 -267.5t-225 -154.5l301 -450q28 -41 24 -81.5t-26.5 -72.5t-58.5 -52t-73 -20q-85 0 -129 67l-368 577h-149v-502q0 -58 -47 -101t-109 -43 q-61 0 -106 42.5t-45 101.5zM322 1905q0 40 32 70t75 30q16 0 41 -7.5t38 -19.5l128 -113l127 113q13 12 38 19.5t40 7.5q43 0 75.5 -30t32.5 -70q0 -47 -60 -99l-172 -134q-33 -28 -81.5 -28t-81.5 28l-173 134q-59 51 -59 99zM445 903h245q113 0 172.5 46t59.5 132 q0 186 -245 186h-232v-364z" />
<glyph unicode="&#x159;" horiz-adv-x="826" d="M92 958q0 57 44 94t105 37q63 0 116 -68q76 44 147.5 69t124.5 25q180 0 180 -131q0 -63 -45 -102t-109 -36q-65 6 -111 2.5t-99 -24.5q4 -30 4 -42v-661q0 -58 -43 -97t-107.5 -39t-108 39t-43.5 97v661q0 66 -24 103q-11 13 -16.5 21.5t-10 22t-4.5 29.5zM101 1466 q0 41 32 70.5t75 29.5q15 0 40.5 -7t38.5 -18l127 -115l127 115q13 11 38 18t41 7q42 0 75 -29.5t33 -70.5q0 -46 -60 -99l-173 -133q-33 -29 -81 -29t-81 29l-174 133q-58 52 -58 99z" />
<glyph unicode="&#x15a;" horiz-adv-x="1152" d="M67 190q0 55 43 96.5t103 41.5q38 0 109 -25q3 -1 20 -6.5t23.5 -7.5t23 -7t26.5 -7.5t27.5 -6t31 -5t31 -3t34.5 -1.5q113 0 170.5 48.5t57.5 139.5q0 66 -25.5 99t-64.5 50q-69 29 -160 59q-60 18 -93.5 29t-88 34t-86 44t-70 56t-59 75t-35 95.5t-14.5 122.5 q0 211 136.5 332t371.5 121q45 0 96 -4t114 -17.5t112.5 -34t83.5 -57.5t34 -84q0 -57 -42 -97.5t-111 -40.5q-14 0 -29 2.5t-24.5 5t-27.5 8.5t-26 8q-31 11 -47 16t-50.5 11t-69.5 6q-43 0 -78.5 -8t-66 -26t-47.5 -51.5t-17 -80.5q0 -105 92 -147q69 -35 158 -59 q61 -19 94 -30.5t88.5 -34.5t86.5 -44t70.5 -56.5t60 -74.5t35.5 -94t15 -120q0 -112 -41 -203t-114 -151t-173 -92.5t-218 -32.5q-52 0 -111.5 6.5t-124 23t-116 40t-85 60t-33.5 79.5zM449 1767q0 30 19 54l176 173l18 18q17 16 25.5 23t25 12.5t39.5 5.5q40 0 73.5 -31.5 t33.5 -75.5q0 -33 -19 -61l-180 -179q-22 -20 -30.5 -26.5t-26.5 -13t-41 -6.5q-47 0 -80 30t-33 77z" />
<glyph unicode="&#x15b;" horiz-adv-x="976" d="M81 155q0 50 40.5 90t102.5 40q32 0 110.5 -24.5t136.5 -24.5q62 0 98 22t36 66q0 47 -46 71q-30 16 -83.5 35t-101 33.5t-101 41.5t-91.5 60.5t-63 90t-25 128.5q0 156 109 248.5t314 92.5q47 0 92 -5t94 -18t85.5 -33t60 -53.5t23.5 -77.5q0 -33 -13 -56.5t-34.5 -35 t-41.5 -16t-40 -4.5q-35 0 -101 23t-123 23q-62 0 -94 -20.5t-32 -58.5q0 -24 15 -41t50 -31q24 -10 63.5 -24t72.5 -24.5t73.5 -27.5t72.5 -35t63.5 -45.5t52.5 -59.5t34 -77t13 -97q0 -162 -111.5 -254t-316.5 -92q-46 0 -95 4.5t-104 16.5t-97 30.5t-70 49t-28 69.5z M349 1328q0 32 17 54l178 174l17 17q16 16 25 23t25.5 13t39.5 6q39 0 73.5 -31.5t34.5 -75.5q0 -32 -21 -61l-179 -180q-23 -19 -31.5 -26t-26.5 -13.5t-41 -6.5q-46 0 -78.5 30t-32.5 77z" />
<glyph unicode="&#x15c;" horiz-adv-x="1152" d="M67 190q0 55 43 96.5t103 41.5q38 0 109 -25q3 -1 20 -6.5t23.5 -7.5t23 -7t26.5 -7.5t27.5 -6t31 -5t31 -3t34.5 -1.5q113 0 170.5 48.5t57.5 139.5q0 66 -25.5 99t-64.5 50q-69 29 -160 59q-60 18 -93.5 29t-88 34t-86 44t-70 56t-59 75t-35 95.5t-14.5 122.5 q0 211 136.5 332t371.5 121q45 0 96 -4t114 -17.5t112.5 -34t83.5 -57.5t34 -84q0 -57 -42 -97.5t-111 -40.5q-14 0 -29 2.5t-24.5 5t-27.5 8.5t-26 8q-31 11 -47 16t-50.5 11t-69.5 6q-43 0 -78.5 -8t-66 -26t-47.5 -51.5t-17 -80.5q0 -105 92 -147q69 -35 158 -59 q61 -19 94 -30.5t88.5 -34.5t86.5 -44t70.5 -56.5t60 -74.5t35.5 -94t15 -120q0 -112 -41 -203t-114 -151t-173 -92.5t-218 -32.5q-52 0 -111.5 6.5t-124 23t-116 40t-85 60t-33.5 79.5zM263 1747q3 50 59 99l173 134q36 27 81.5 27t81.5 -27l172 -134q57 -50 60 -99 q0 -41 -33 -71t-77 -30q-21 0 -42.5 8t-44 26t-38.5 32t-42 39.5t-36 35.5q-10 -10 -36.5 -36t-42 -39.5t-39 -31.5t-45 -26t-42.5 -8q-44 0 -76.5 30t-32.5 71z" />
<glyph unicode="&#x15d;" horiz-adv-x="976" d="M81 155q0 50 40.5 90t102.5 40q32 0 110.5 -24.5t136.5 -24.5q62 0 98 22t36 66q0 47 -46 71q-30 16 -83.5 35t-101 33.5t-101 41.5t-91.5 60.5t-63 90t-25 128.5q0 156 109 248.5t314 92.5q47 0 92 -5t94 -18t85.5 -33t60 -53.5t23.5 -77.5q0 -33 -13 -56.5t-34.5 -35 t-41.5 -16t-40 -4.5q-35 0 -101 23t-123 23q-62 0 -94 -20.5t-32 -58.5q0 -24 15 -41t50 -31q24 -10 63.5 -24t72.5 -24.5t73.5 -27.5t72.5 -35t63.5 -45.5t52.5 -59.5t34 -77t13 -97q0 -162 -111.5 -254t-316.5 -92q-46 0 -95 4.5t-104 16.5t-97 30.5t-70 49t-28 69.5z M175 1309q3 49 59 98l174 134q35 28 81 28t81 -28l173 -134q57 -50 60 -98q0 -41 -33.5 -71.5t-77.5 -30.5q-20 0 -41.5 8.5t-44.5 26t-39 31.5t-41.5 39.5t-36.5 35.5q-10 -9 -36.5 -35t-42 -40t-39 -32t-45 -26t-41.5 -8q-44 0 -77 30.5t-33 71.5z" />
<glyph unicode="&#x15e;" horiz-adv-x="1152" d="M67 190q0 55 43 96.5t103 41.5q38 0 109 -25q3 -1 20 -6.5t23.5 -7.5t23 -7t26.5 -7.5t27.5 -6t31 -5t31 -3t34.5 -1.5q113 0 170.5 48.5t57.5 139.5q0 66 -25.5 99t-64.5 50q-69 29 -160 59q-60 18 -93.5 29t-88 34t-86 44t-70 56t-59 75t-35 95.5t-14.5 122.5 q0 211 136.5 332t371.5 121q45 0 96 -4t114 -17.5t112.5 -34t83.5 -57.5t34 -84q0 -57 -42 -97.5t-111 -40.5q-14 0 -29 2.5t-24.5 5t-27.5 8.5t-26 8q-31 11 -47 16t-50.5 11t-69.5 6q-43 0 -78.5 -8t-66 -26t-47.5 -51.5t-17 -80.5q0 -105 92 -147q69 -35 158 -59 q61 -19 94 -30.5t88.5 -34.5t86.5 -44t70.5 -56.5t60 -74.5t35.5 -94t15 -120q0 -136 -61 -240t-166 -162.5t-243 -72.5l-6 -58q113 -9 166 -58t53 -128q0 -94 -69 -154t-180 -60q-64 0 -122 13.5t-99.5 43.5t-41.5 71q0 30 20 47.5t53 17.5q19 0 75 -10.5t86 -10.5 q103 0 103 48q0 25 -27 38t-98 25q-5 1 -16 3q-18 3 -26.5 5t-21 6.5t-17.5 10.5t-10.5 16t-7 25t-0.5 36l12 75q-66 6 -128.5 20.5t-118.5 38.5t-90.5 61.5t-34.5 82.5z" />
<glyph unicode="&#x15f;" horiz-adv-x="976" d="M81 155q0 50 40.5 90t102.5 40q32 0 110.5 -24.5t136.5 -24.5q62 0 98 22t36 66q0 47 -46 71q-30 16 -83.5 35t-101 33.5t-101 41.5t-91.5 60.5t-63 90t-25 128.5q0 156 109 248.5t314 92.5q47 0 92 -5t94 -18t85.5 -33t60 -53.5t23.5 -77.5q0 -33 -13 -56.5t-34.5 -35 t-41.5 -16t-40 -4.5q-35 0 -101 23t-123 23q-62 0 -94 -20.5t-32 -58.5q0 -24 15 -41t50 -31q24 -10 63.5 -24t72.5 -24.5t73.5 -27.5t72.5 -35t63.5 -45.5t52.5 -59.5t34 -77t13 -97q0 -151 -98 -242t-279 -102l-7 -60q113 -9 166 -58t53 -128q0 -94 -69 -154t-180 -60 q-64 0 -122 13.5t-99.5 43.5t-41.5 71q0 30 20.5 47.5t54.5 17.5q19 0 74 -10.5t85 -10.5q103 0 103 48q0 25 -27 38t-97 25q-6 1 -17 3q-18 3 -26.5 5t-20.5 6.5t-17.5 10.5t-11 16t-7 25t-0.5 36l14 82q-53 6 -98.5 17.5t-86 30.5t-64 48t-23.5 65z" />
<glyph unicode="&#x160;" horiz-adv-x="1152" d="M67 190q0 55 43 96.5t103 41.5q38 0 109 -25q3 -1 20 -6.5t23.5 -7.5t23 -7t26.5 -7.5t27.5 -6t31 -5t31 -3t34.5 -1.5q113 0 170.5 48.5t57.5 139.5q0 66 -25.5 99t-64.5 50q-69 29 -160 59q-60 18 -93.5 29t-88 34t-86 44t-70 56t-59 75t-35 95.5t-14.5 122.5 q0 211 136.5 332t371.5 121q45 0 96 -4t114 -17.5t112.5 -34t83.5 -57.5t34 -84q0 -57 -42 -97.5t-111 -40.5q-14 0 -29 2.5t-24.5 5t-27.5 8.5t-26 8q-31 11 -47 16t-50.5 11t-69.5 6q-43 0 -78.5 -8t-66 -26t-47.5 -51.5t-17 -80.5q0 -105 92 -147q69 -35 158 -59 q61 -19 94 -30.5t88.5 -34.5t86.5 -44t70.5 -56.5t60 -74.5t35.5 -94t15 -120q0 -112 -41 -203t-114 -151t-173 -92.5t-218 -32.5q-52 0 -111.5 6.5t-124 23t-116 40t-85 60t-33.5 79.5zM263 1905q0 40 32 70t75 30q16 0 41 -7t38 -18l128 -115l127 115q13 11 37.5 18 t40.5 7q43 0 75.5 -30t32.5 -70q0 -47 -60 -99l-172 -134q-33 -28 -81.5 -28t-81.5 28l-173 134q-59 51 -59 99z" />
<glyph unicode="&#x161;" horiz-adv-x="976" d="M81 155q0 50 40.5 90t102.5 40q32 0 110.5 -24.5t136.5 -24.5q62 0 98 22t36 66q0 47 -46 71q-30 16 -83.5 35t-101 33.5t-101 41.5t-91.5 60.5t-63 90t-25 128.5q0 156 109 248.5t314 92.5q47 0 92 -5t94 -18t85.5 -33t60 -53.5t23.5 -77.5q0 -33 -13 -56.5t-34.5 -35 t-41.5 -16t-40 -4.5q-35 0 -101 23t-123 23q-62 0 -94 -20.5t-32 -58.5q0 -24 15 -41t50 -31q24 -10 63.5 -24t72.5 -24.5t73.5 -27.5t72.5 -35t63.5 -45.5t52.5 -59.5t34 -77t13 -97q0 -162 -111.5 -254t-316.5 -92q-46 0 -95 4.5t-104 16.5t-97 30.5t-70 49t-28 69.5z M207 1466q0 41 32 70.5t75 29.5q15 0 40.5 -7t38.5 -18l126 -115l127 115q13 11 38.5 18t40.5 7q43 0 75 -29.5t32 -70.5q0 -47 -58 -99l-174 -133q-33 -29 -81 -29q-47 0 -80 29l-174 133q-58 52 -58 99z" />
<glyph unicode="&#x162;" horiz-adv-x="1145" d="M33 1405q0 49 46 94.5t107 45.5h772q61 0 108 -41t47 -99q0 -56 -46.5 -97t-108.5 -41h-233v-1146q0 -33 -16 -62.5t-45 -49.5l-11 -82q113 -9 166 -58t53 -128q0 -94 -69 -154t-180 -60q-64 0 -122 13.5t-99.5 43.5t-41.5 71q0 30 20.5 47.5t53.5 17.5q19 0 74.5 -10.5 t85.5 -10.5q103 0 103 48q0 25 -27 38t-98 25q-5 1 -16 3q-18 3 -26.5 5t-21 6.5t-17.5 10.5t-10.5 16t-7 25t-0.5 36l16 90q-32 21 -51.5 52.5t-19.5 66.5v1146h-232q-65 0 -109 40.5t-44 97.5z" />
<glyph unicode="&#x163;" horiz-adv-x="790" d="M140 456v850q0 59 40.5 96.5t110.5 37.5t111 -38.5t41 -95.5v-243h162q61 0 102.5 -38t41.5 -94t-41.5 -92.5t-102.5 -36.5h-162v-331q0 -53 2 -85.5t9 -61t20 -42.5t34 -21.5t53 -7.5q11 0 24 1l13 1q101 0 140.5 -28t39.5 -91q0 -37 -12 -64t-30.5 -42t-47.5 -24 t-56.5 -12t-64.5 -3q-6 0 -19 1.5t-19 1.5l-10 -67q113 -9 166 -58t53 -128q0 -94 -69 -154t-180 -60q-64 0 -122 13.5t-99.5 43.5t-41.5 71q0 30 20.5 47.5t54.5 17.5q19 0 74 -10.5t85 -10.5q103 0 103 48q0 25 -27 38t-97 25q-6 1 -17 3q-18 3 -26.5 5t-20.5 6.5 t-17.5 10.5t-11 16t-7 25t-0.5 36l18 109q-62 22 -105 61t-67 95.5t-34.5 123.5t-10.5 155z" />
<glyph unicode="&#x164;" horiz-adv-x="1145" d="M33 1405q0 49 46 94.5t107 45.5h772q61 0 108 -41t47 -99q0 -56 -46.5 -97t-108.5 -41h-233v-1146q0 -57 -45 -98.5t-108 -41.5t-108.5 41.5t-45.5 98.5v1146h-232q-65 0 -109 40.5t-44 97.5zM259 1905q0 40 32 70t75 30q16 0 41 -7t38 -18l127 -115l128 115 q13 11 37.5 18t40.5 7q43 0 75.5 -30t32.5 -70q0 -47 -60 -99l-172 -134q-33 -28 -81.5 -28t-81.5 28l-173 134q-59 51 -59 99z" />
<glyph unicode="&#x165;" horiz-adv-x="1242" d="M140 456v850q0 59 40.5 96.5t110.5 37.5t111 -38.5t41 -95.5v-243h162q61 0 102.5 -38t41.5 -94t-41.5 -92.5t-102.5 -36.5h-162v-331q0 -53 2 -85.5t9 -61t20 -42.5t34 -21.5t53 -7.5q11 0 24 1l13 1q101 0 140.5 -28t39.5 -91q0 -37 -12 -64t-30.5 -42t-47.5 -24 t-56.5 -12t-64.5 -3q-101 0 -174.5 20.5t-122 57t-77.5 95.5t-41 128.5t-12 163.5zM813 1420q0 69 54 119t130 50q75 0 128.5 -50t53.5 -128q0 -50 -17 -125.5t-44.5 -148t-67 -124t-77.5 -51.5q-16 0 -31 3.5t-31 13t-24 30.5t-4 51q2 31 16.5 59.5t31.5 62.5t25 74 q-63 13 -103 59t-40 105z" />
<glyph unicode="&#x168;" horiz-adv-x="1340" d="M121 526v894q0 62 44.5 103t110.5 41q61 0 106 -42.5t45 -101.5v-894q0 -122 61.5 -194.5t182.5 -72.5q119 0 180 73t61 194v894q0 59 43.5 101.5t107.5 42.5q66 0 112 -42.5t46 -101.5v-894q0 -118 -37.5 -218t-107 -172.5t-174 -113.5t-231.5 -41q-130 0 -234.5 41 t-173.5 114t-105.5 173t-36.5 217zM328 1787q0 73 58.5 123.5t134.5 50.5q42 0 81 -13.5t63 -30t51.5 -30t49.5 -13.5q19 0 33 8t24 19.5l20 23t25.5 20t35.5 8.5q43 0 75.5 -30.5t32.5 -74.5t-31.5 -82t-76.5 -58.5t-89 -20.5q-39 0 -77.5 13t-63.5 28t-53.5 29.5 t-49.5 17.5q-18 2 -32.5 -5t-25 -19t-21.5 -24t-27 -21t-36 -9q-36 0 -66 25t-35 65z" />
<glyph unicode="&#x169;" horiz-adv-x="1202" d="M140 414v573q0 57 40.5 93.5t111 36.5t111 -36.5t40.5 -93.5v-573q0 -85 35.5 -130t106.5 -45q69 0 169 46q-5 37 -5 41v661q0 58 39.5 94t112.5 36t112 -36t39 -94v-705q0 -23 8.5 -37t33.5 -38q31 -32 31 -75q0 -62 -43.5 -98t-97.5 -36q-76 0 -133 83 q-136 -96 -303 -96q-195 0 -301.5 116t-106.5 313zM259 1348q0 74 58 124.5t135 50.5q41 0 80 -14t63 -30.5t52 -30t50 -13.5q18 0 32.5 8t24.5 19.5t20 23.5t25.5 20t35.5 8q42 0 75 -30t33 -75q0 -44 -32 -82t-77.5 -58t-88.5 -20q-40 0 -78 12.5t-63 28t-53 30t-49 16.5 q-18 3 -32.5 -4t-25.5 -19t-21.5 -24.5t-27 -21.5t-35.5 -9q-37 0 -66.5 25.5t-34.5 64.5z" />
<glyph unicode="&#x16a;" horiz-adv-x="1340" d="M121 526v894q0 62 44.5 103t110.5 41q61 0 106 -42.5t45 -101.5v-894q0 -122 61.5 -194.5t182.5 -72.5q119 0 180 73t61 194v894q0 59 43.5 101.5t107.5 42.5q66 0 112 -42.5t46 -101.5v-894q0 -118 -37.5 -218t-107 -172.5t-174 -113.5t-231.5 -41q-130 0 -234.5 41 t-173.5 114t-105.5 173t-36.5 217zM251 1819q0 46 36.5 79t89.5 33h589q51 0 87 -33t36 -79q0 -47 -36 -79t-87 -32h-589q-53 0 -89.5 32t-36.5 79z" />
<glyph unicode="&#x16b;" horiz-adv-x="1202" d="M140 414v573q0 57 40.5 93.5t111 36.5t111 -36.5t40.5 -93.5v-573q0 -85 35.5 -130t106.5 -45q69 0 169 46q-5 37 -5 41v661q0 58 39.5 94t112.5 36t112 -36t39 -94v-705q0 -23 8.5 -37t33.5 -38q31 -32 31 -75q0 -62 -43.5 -98t-97.5 -36q-76 0 -133 83 q-136 -96 -303 -96q-195 0 -301.5 116t-106.5 313zM182 1380q0 46 36.5 79.5t88.5 33.5h590q50 0 86.5 -33.5t36.5 -79.5q0 -47 -36 -79t-87 -32h-590q-53 0 -89 32t-36 79z" />
<glyph unicode="&#x16c;" horiz-adv-x="1340" d="M121 526v894q0 62 44.5 103t110.5 41q61 0 106 -42.5t45 -101.5v-894q0 -122 61.5 -194.5t182.5 -72.5q119 0 180 73t61 194v894q0 59 43.5 101.5t107.5 42.5q66 0 112 -42.5t46 -101.5v-894q0 -118 -37.5 -218t-107 -172.5t-174 -113.5t-231.5 -41q-130 0 -234.5 41 t-173.5 114t-105.5 173t-36.5 217zM345 1847q-15 58 15.5 90.5t80.5 32.5q29 0 56 -13t42 -37q68 -68 132 -68q65 0 129 68q38 50 101 50q49 0 80 -32.5t16 -90.5q-16 -60 -73 -106.5t-124 -68.5t-129 -22t-128 22t-123 68.5t-75 106.5z" />
<glyph unicode="&#x16d;" horiz-adv-x="1202" d="M140 414v573q0 57 40.5 93.5t111 36.5t111 -36.5t40.5 -93.5v-573q0 -85 35.5 -130t106.5 -45q69 0 169 46q-5 37 -5 41v661q0 58 39.5 94t112.5 36t112 -36t39 -94v-705q0 -23 8.5 -37t33.5 -38q31 -32 31 -75q0 -62 -43.5 -98t-97.5 -36q-76 0 -133 83 q-136 -96 -303 -96q-195 0 -301.5 116t-106.5 313zM274 1409q-15 58 16 90.5t80 32.5q29 0 56 -13.5t43 -37.5q67 -68 131 -68q66 0 130 68q38 51 100 51q50 0 81 -32.5t16 -90.5q-17 -60 -74 -106.5t-123.5 -68.5t-129.5 -22q-62 0 -128 22t-122.5 68.5t-75.5 106.5z" />
<glyph unicode="&#x16e;" horiz-adv-x="1340" d="M121 526v894q0 62 44.5 103t110.5 41q61 0 106 -42.5t45 -101.5v-894q0 -122 61.5 -194.5t182.5 -72.5q119 0 180 73t61 194v894q0 59 43.5 101.5t107.5 42.5q66 0 112 -42.5t46 -101.5v-894q0 -118 -37.5 -218t-107 -172.5t-174 -113.5t-231.5 -41q-130 0 -234.5 41 t-173.5 114t-105.5 173t-36.5 217zM429 1850q0 99 70 169t172 70q100 0 169.5 -70t69.5 -169q0 -100 -69.5 -169.5t-169.5 -69.5q-102 0 -172 69.5t-70 169.5zM574 1850q0 -39 28.5 -67.5t68 -28.5t68 28.5t28.5 67.5q0 40 -28.5 69t-67.5 29t-68 -29.5t-29 -68.5z" />
<glyph unicode="&#x16f;" horiz-adv-x="1202" d="M140 414v573q0 57 40.5 93.5t111 36.5t111 -36.5t40.5 -93.5v-573q0 -85 35.5 -130t106.5 -45q69 0 169 46q-5 37 -5 41v661q0 58 39.5 94t112.5 36t112 -36t39 -94v-705q0 -23 8.5 -37t33.5 -38q31 -32 31 -75q0 -62 -43.5 -98t-97.5 -36q-76 0 -133 83 q-136 -96 -303 -96q-195 0 -301.5 116t-106.5 313zM362 1411q0 99 70 169t171 70q100 0 169.5 -70t69.5 -169q0 -100 -69 -169t-170 -69t-171 69t-70 169zM506 1411.5q0 -39.5 29 -68t68.5 -28.5t68 28.5t28.5 67.5q0 40 -28.5 69.5t-68 29.5t-68.5 -29.5t-29 -69z" />
<glyph unicode="&#x170;" horiz-adv-x="1340" d="M121 526v894q0 62 44.5 103t110.5 41q61 0 106 -42.5t45 -101.5v-894q0 -122 61.5 -194.5t182.5 -72.5q119 0 180 73t61 194v894q0 59 43.5 101.5t107.5 42.5q66 0 112 -42.5t46 -101.5v-894q0 -118 -37.5 -218t-107 -172.5t-174 -113.5t-231.5 -41q-130 0 -234.5 41 t-173.5 114t-105.5 173t-36.5 217zM375.5 1723.5q-10.5 33.5 11.5 70.5l139 196q2 2 4 6q13 18 20.5 27t21.5 21.5t30 17.5t36 4q36 0 69.5 -23t44 -56t-11.5 -70l-142 -210q-22 -33 -45.5 -48t-63.5 -15q-37 0 -70 23t-43.5 56.5zM748.5 1723.5q-10.5 33.5 12.5 70.5 l138 196q1 2 4 6q13 18 20.5 27t21 21.5t29.5 17.5t36 4q37 0 70 -23t44 -56t-11 -70l-143 -210q-22 -33 -45.5 -48t-63.5 -15q-36 0 -69 23t-43.5 56.5z" />
<glyph unicode="&#x171;" horiz-adv-x="1202" d="M140 414v573q0 57 40.5 93.5t111 36.5t111 -36.5t40.5 -93.5v-573q0 -85 35.5 -130t106.5 -45q69 0 169 46q-5 37 -5 41v661q0 58 39.5 94t112.5 36t112 -36t39 -94v-705q0 -23 8.5 -37t33.5 -38q31 -32 31 -75q0 -62 -43.5 -98t-97.5 -36q-76 0 -133 83 q-136 -96 -303 -96q-195 0 -301.5 116t-106.5 313zM290.5 1286q-10.5 34 12.5 71l138 195q1 2 5 6q12 18 19.5 27t21 21.5t29.5 17.5t36 5q37 0 70 -23.5t44 -56.5t-11 -70l-142 -210q-23 -33 -46.5 -48.5t-63.5 -15.5q-36 0 -69 23.5t-43.5 57.5zM662.5 1286 q-10.5 34 12.5 71l138 195q2 2 5 6q13 18 20.5 27t21 21.5t29.5 17.5t35 5q37 0 70.5 -23.5t44.5 -56.5t-11 -70l-143 -210q-23 -33 -46.5 -48.5t-62.5 -15.5q-37 0 -70 23.5t-43.5 57.5z" />
<glyph unicode="&#x172;" horiz-adv-x="1340" d="M121 526v894q0 62 44.5 103t110.5 41q61 0 106 -42.5t45 -101.5v-894q0 -122 61.5 -194.5t182.5 -72.5q119 0 180 73t61 194v894q0 59 43.5 101.5t107.5 42.5q66 0 112 -42.5t46 -101.5v-894q0 -163 -70 -290t-198 -192q-2 -4 -20.5 -33.5t-24.5 -39.5t-21.5 -36.5 t-22 -42t-15.5 -38t-13 -41.5t-4 -37q0 -24 14.5 -39t42.5 -15q15 0 42 4t31 4h20q41 0 70 -28t29 -66q0 -35 -20 -60t-54 -36.5t-66 -15.5t-69 -4q-123 0 -194 56t-71 167q0 107 90 238h-26q-130 0 -234.5 41t-173.5 114t-105.5 173t-36.5 217z" />
<glyph unicode="&#x173;" horiz-adv-x="1202" d="M140 414v573q0 57 40.5 93.5t111 36.5t111 -36.5t40.5 -93.5v-573q0 -85 35.5 -130t106.5 -45q69 0 169 46q-5 37 -5 41v661q0 58 39.5 94t112.5 36t112 -36t39 -94v-705q0 -23 8.5 -37t33.5 -38q31 -32 31 -75q0 -41 -29 -84q-3 -4 -23 -33.5t-25 -38t-21 -35t-22 -41 t-15 -38t-12 -44t-3 -42.5q0 -24 14.5 -39t43.5 -15q14 0 40.5 4t30.5 4h21q40 0 69 -28t29 -66q0 -35 -20 -60t-54 -36.5t-66 -15.5t-69 -4q-122 0 -193.5 56t-71.5 167q0 66 37 143t101 149q-20 21 -36 46q-136 -96 -303 -96q-195 0 -301.5 116t-106.5 313z" />
<glyph unicode="&#x174;" horiz-adv-x="1817" d="M27 1426q0 58 50.5 95t112.5 37q51 0 91 -26.5t52 -78.5l144 -566q14 -53 24.5 -113.5t21.5 -135t18 -115.5q7 34 26 165.5t35 198.5l130 516q11 43 22 69t31 49t50 33t75 10q78 0 116.5 -40t58.5 -121l127 -516q14 -54 24.5 -115t21 -135t17.5 -116q7 38 18.5 115 t22.5 137t25 114l140 560q13 52 51.5 81.5t89.5 29.5q40 0 77.5 -13.5t65 -45t27.5 -75.5q0 -15 -4 -28l-329 -1277q-17 -61 -61.5 -99.5t-118 -38.5t-118.5 39.5t-63 100.5l-130 536q-13 51 -22.5 109t-19.5 131t-16 111q-7 -38 -17 -111t-19.5 -131t-22.5 -109l-132 -540 q-41 -136 -180 -136q-63 0 -114.5 42.5t-67.5 95.5l-322 1266zM596 1746q3 50 59 99l173 133q37 29 81.5 29t81.5 -29l172 -133q57 -50 60 -99q0 -41 -33 -70.5t-77 -29.5q-21 0 -42.5 8t-44.5 25.5t-38.5 31.5t-41.5 39.5t-36 35.5q-10 -9 -37 -35.5t-42 -39.5t-38.5 -31 t-45 -26t-42.5 -8q-44 0 -76.5 29.5t-32.5 70.5z" />
<glyph unicode="&#x175;" horiz-adv-x="1522" d="M33 987q0 51 44 90.5t107 39.5q49 0 89.5 -26.5t52.5 -71.5l95 -362q12 -48 19.5 -104t13 -123.5t10.5 -105.5q6 38 13.5 105.5t16 123.5t21.5 104l87 349q14 49 56.5 80t106.5 31q62 0 104 -31t53 -80l86 -349q12 -49 20.5 -104.5t17.5 -125t14 -105.5q5 38 11 106 t13 124.5t20 104.5l94 362q12 40 53.5 69t89.5 29q60 0 105 -38t45 -95l-1.5 -9t-1.5 -13l-254 -849q-21 -67 -59.5 -97.5t-114.5 -30.5q-58 0 -103.5 29t-59.5 80l-92 351q-11 39 -18 82t-13.5 101.5t-10.5 84.5q-3 -22 -11 -83t-14.5 -103t-16.5 -82l-90 -351 q-15 -58 -56 -83.5t-111 -25.5q-69 0 -110.5 33t-62.5 99l-254 841q-4 10 -4 29zM447 1309q3 49 59 98l173 134q36 28 82 28q44 0 80 -28l173 -134q57 -50 60 -98q0 -41 -33 -71.5t-77 -30.5q-21 0 -42 8.5t-44 26t-39 31.5t-41.5 39.5t-36.5 35.5q-10 -9 -36.5 -35t-42 -40 t-39 -32t-45 -26t-42.5 -8q-44 0 -76.5 30.5t-32.5 71.5z" />
<glyph unicode="&#x176;" horiz-adv-x="1160" d="M27 1422q0 57 47.5 99.5t107.5 42.5q37 0 71.5 -16t53.5 -49l274 -543l272 543q19 33 53 49t73 16q60 0 108 -42.5t48 -99.5q0 -18 -15 -63l-384 -754v-480q0 -58 -45 -101t-110 -43t-110.5 42t-45.5 102v480l-385 754q-13 30 -13 63zM268 1747q2 50 58 99l174 134 q35 27 81 27t81 -27l173 -134q57 -50 60 -99q0 -41 -33 -71t-78 -30q-20 0 -41.5 8t-44.5 26t-39 32t-41.5 39.5t-36.5 35.5q-10 -10 -36.5 -36t-42 -39.5t-39 -31.5t-45 -26t-41.5 -8q-44 0 -76.5 30t-32.5 71z" />
<glyph unicode="&#x177;" horiz-adv-x="1037" d="M35 989q0 55 43.5 91.5t107.5 36.5q46 0 83 -23.5t55 -68.5l138 -368q18 -46 41 -136.5t30 -114.5q6 24 17 78t21.5 96t22.5 77l119 368q13 45 53.5 68.5t88.5 23.5q60 0 105.5 -37.5t45.5 -95.5q0 -23 -7 -39l-267 -780q-1 -3 -4 -10q-33 -98 -50 -145.5t-49 -125 t-57 -115t-65.5 -87t-83 -72t-101 -39t-127.5 -16.5q-66 0 -109.5 37t-43.5 94q0 52 39.5 90.5t104.5 41.5q71 3 114 58.5t83 186.5l-337 870q-11 27 -11 56zM221 1309q3 49 59 98l174 134q35 28 81 28t81 -28l173 -134q57 -50 60 -98q0 -41 -33.5 -71.5t-77.5 -30.5 q-20 0 -41.5 8.5t-44.5 26t-39 31.5t-41.5 39.5t-36.5 35.5q-10 -9 -36.5 -35t-42 -40t-39 -32t-45 -26t-41.5 -8q-44 0 -77 30.5t-33 71.5z" />
<glyph unicode="&#x178;" horiz-adv-x="1160" d="M27 1422q0 57 47.5 99.5t107.5 42.5q37 0 71.5 -16t53.5 -49l274 -543l272 543q19 33 53 49t73 16q60 0 108 -42.5t48 -99.5q0 -18 -15 -63l-384 -754v-480q0 -58 -45 -101t-110 -43t-110.5 42t-45.5 102v480l-385 754q-13 30 -13 63zM241 1819q0 55 40.5 94.5t99.5 39.5 q61 0 102.5 -39t41.5 -95q0 -58 -41.5 -98t-102.5 -40q-59 0 -99.5 40.5t-40.5 97.5zM630 1819q0 55 43 94.5t102.5 39.5t101 -39t41.5 -95q0 -58 -41.5 -98t-101 -40t-102.5 41t-43 97z" />
<glyph unicode="&#x179;" horiz-adv-x="1148" d="M42 149q0 34 31 96q101 167 303 498t316 520h-495q-64 0 -107.5 40t-43.5 100q0 58 43.5 100t107.5 42h744q68 0 113.5 -42.5t45.5 -104.5q0 -43 -31 -94l-624 -1022h506q62 0 107.5 -40.5t45.5 -99.5t-45 -100.5t-108 -41.5h-752q-67 0 -112 43.5t-45 105.5zM477 1767 q0 30 18 54l177 173l18 18q17 16 25.5 23t25 12.5t39.5 5.5q40 0 73.5 -31.5t33.5 -75.5q0 -33 -19 -61l-180 -179q-22 -20 -31 -26.5t-27 -13t-40 -6.5q-47 0 -80 30t-33 77z" />
<glyph unicode="&#x17a;" horiz-adv-x="950" d="M21 140q0 45 27 81l475 628h-335q-61 0 -102.5 36.5t-41.5 91.5q0 56 41.5 92.5t102.5 36.5h581q66 0 110.5 -36.5t44.5 -99.5q0 -49 -29 -89l-474 -622h361q63 0 105 -37.5t42 -92t-42 -92t-105 -37.5h-607q-62 0 -108 41t-46 99zM341 1328q0 30 19 54l176 174l18 17 q17 16 25.5 23t25 13t39.5 6q40 0 73.5 -31.5t33.5 -75.5q0 -34 -19 -61l-180 -180q-22 -19 -30.5 -26t-26.5 -13.5t-41 -6.5q-47 0 -80 30t-33 77z" />
<glyph unicode="&#x17b;" horiz-adv-x="1148" d="M42 149q0 34 31 96q101 167 303 498t316 520h-495q-64 0 -107.5 40t-43.5 100q0 58 43.5 100t107.5 42h744q68 0 113.5 -42.5t45.5 -104.5q0 -43 -31 -94l-624 -1022h506q62 0 107.5 -40.5t45.5 -99.5t-45 -100.5t-108 -41.5h-752q-67 0 -112 43.5t-45 105.5zM432 1787 q0 55 40.5 94t99.5 39q61 0 103 -38.5t42 -94.5q0 -58 -42 -98.5t-103 -40.5q-58 0 -99 41t-41 98z" />
<glyph unicode="&#x17c;" horiz-adv-x="950" d="M21 140q0 45 27 81l475 628h-335q-61 0 -102.5 36.5t-41.5 91.5q0 56 41.5 92.5t102.5 36.5h581q66 0 110.5 -36.5t44.5 -99.5q0 -49 -29 -89l-474 -622h361q63 0 105 -37.5t42 -92t-42 -92t-105 -37.5h-607q-62 0 -108 41t-46 99zM333 1348q0 55 40.5 94t99.5 39 q61 0 103 -38.5t42 -94.5q0 -58 -42 -98.5t-103 -40.5q-59 0 -99.5 41t-40.5 98z" />
<glyph unicode="&#x17d;" horiz-adv-x="1148" d="M42 149q0 34 31 96q101 167 303 498t316 520h-495q-64 0 -107.5 40t-43.5 100q0 58 43.5 100t107.5 42h744q68 0 113.5 -42.5t45.5 -104.5q0 -43 -31 -94l-624 -1022h506q62 0 107.5 -40.5t45.5 -99.5t-45 -100.5t-108 -41.5h-752q-67 0 -112 43.5t-45 105.5zM261 1905 q0 40 32 70t75 30q16 0 41 -7t38 -18l128 -115l127 115q13 11 37.5 18t40.5 7q43 0 75.5 -30t32.5 -70q0 -47 -60 -99l-172 -134q-33 -28 -81.5 -28t-81.5 28l-173 134q-59 51 -59 99z" />
<glyph unicode="&#x17e;" horiz-adv-x="928" d="M11 140q0 45 26 81l476 628h-335q-61 0 -103 36.5t-42 91.5q0 56 41.5 92.5t103.5 36.5h581q65 0 110 -36.5t45 -99.5q0 -48 -31 -89l-473 -622h361q63 0 105 -37.5t42 -92t-42 -92t-105 -37.5h-606q-62 0 -108 41t-46 99zM151 1466q0 41 32.5 70.5t75.5 29.5 q16 0 40.5 -7t37.5 -18l127 -115l128 115q13 11 38 18t41 7q43 0 75 -29.5t32 -70.5q0 -47 -59 -99l-173 -133q-33 -29 -81.5 -29t-81.5 29l-172 133q-60 53 -60 99z" />
<glyph unicode="&#x192;" horiz-adv-x="1165" d="M-15 -282q0 61 41 96t110 35h24q7 0 20 -1t19 -1q45 0 70 31t38 95q30 150 80 413.5t69 358.5h-103q-61 0 -100.5 31.5t-39.5 95.5q0 65 39 95t101 30h153q5 25 15 72.5t17.5 86.5t13.5 71q27 136 134 213.5t276 77.5q32 0 56 -2.5t51.5 -11t45.5 -23.5t30 -42.5 t12 -64.5q0 -28 -6.5 -49.5t-15.5 -34.5t-24 -21t-28 -11.5t-32 -3.5t-30.5 1t-29.5 3q-34 5 -50 5q-33 0 -58.5 -22t-31.5 -55l-38 -189h107q61 0 100.5 -31.5t39.5 -95.5q0 -65 -39 -95t-101 -30h-155q-15 -79 -70.5 -354.5t-83.5 -423.5q-15 -72 -34 -127t-49.5 -104 t-71 -80.5t-98 -49.5t-130.5 -18q-36 0 -57.5 0.5t-50.5 3t-46 8t-36 14.5t-29.5 23t-17 34t-6.5 47z" />
<glyph unicode="&#x218;" horiz-adv-x="1152" d="M67 190q0 55 43 96.5t103 41.5q38 0 109 -25q3 -1 20 -6.5t23.5 -7.5t23 -7t26.5 -7.5t27.5 -6t31 -5t31 -3t34.5 -1.5q113 0 170.5 48.5t57.5 139.5q0 66 -25.5 99t-64.5 50q-69 29 -160 59q-60 18 -93.5 29t-88 34t-86 44t-70 56t-59 75t-35 95.5t-14.5 122.5 q0 211 136.5 332t371.5 121q45 0 96 -4t114 -17.5t112.5 -34t83.5 -57.5t34 -84q0 -57 -42 -97.5t-111 -40.5q-14 0 -29 2.5t-24.5 5t-27.5 8.5t-26 8q-31 11 -47 16t-50.5 11t-69.5 6q-43 0 -78.5 -8t-66 -26t-47.5 -51.5t-17 -80.5q0 -105 92 -147q69 -35 158 -59 q61 -19 94 -30.5t88.5 -34.5t86.5 -44t70.5 -56.5t60 -74.5t35.5 -94t15 -120q0 -112 -41 -203t-114 -151t-173 -92.5t-218 -32.5q-52 0 -111.5 6.5t-124 23t-116 40t-85 60t-33.5 79.5zM416 -232q0 58 36 89.5t125 31.5q161 0 161 -117q0 -58 -35.5 -128t-86 -117.5 t-90.5 -47.5q-16 0 -27.5 9t-11.5 27q0 20 13.5 40t34.5 46t32 50q-37 2 -61.5 7t-46.5 17t-32.5 35t-10.5 58z" />
<glyph unicode="&#x219;" horiz-adv-x="976" d="M81 155q0 50 40.5 90t102.5 40q32 0 110.5 -24.5t136.5 -24.5q62 0 98 22t36 66q0 47 -46 71q-30 16 -83.5 35t-101 33.5t-101 41.5t-91.5 60.5t-63 90t-25 128.5q0 156 109 248.5t314 92.5q47 0 92 -5t94 -18t85.5 -33t60 -53.5t23.5 -77.5q0 -33 -13 -56.5t-34.5 -35 t-41.5 -16t-40 -4.5q-35 0 -101 23t-123 23q-62 0 -94 -20.5t-32 -58.5q0 -24 15 -41t50 -31q24 -10 63.5 -24t72.5 -24.5t73.5 -27.5t72.5 -35t63.5 -45.5t52.5 -59.5t34 -77t13 -97q0 -162 -111.5 -254t-316.5 -92q-46 0 -95 4.5t-104 16.5t-97 30.5t-70 49t-28 69.5z M328 -232q0 58 36.5 89.5t124.5 31.5q162 0 162 -117q0 -58 -36 -128t-86.5 -117.5t-89.5 -47.5q-17 0 -28.5 9t-11.5 27q0 20 14 40t35.5 46t31.5 50q-37 2 -61 7t-46.5 17t-33.5 35t-11 58z" />
<glyph unicode="&#x21a;" horiz-adv-x="1145" d="M33 1405q0 49 46 94.5t107 45.5h772q61 0 108 -41t47 -99q0 -56 -46.5 -97t-108.5 -41h-233v-1146q0 -57 -45 -98.5t-108 -41.5t-108.5 41.5t-45.5 98.5v1146h-232q-65 0 -109 40.5t-44 97.5zM412 -232q0 58 36 89.5t124 31.5q162 0 162 -117q0 -58 -36 -128 t-86.5 -117.5t-90.5 -47.5q-16 0 -27 9t-11 27q0 20 13.5 40t34.5 46t32 50q-37 2 -61.5 7t-46.5 17t-32.5 35t-10.5 58z" />
<glyph unicode="&#x21b;" horiz-adv-x="790" d="M140 456v850q0 59 40.5 96.5t110.5 37.5t111 -38.5t41 -95.5v-243h162q61 0 102.5 -38t41.5 -94t-41.5 -92.5t-102.5 -36.5h-162v-331q0 -53 2 -85.5t9 -61t20 -42.5t34 -21.5t53 -7.5q11 0 24 1l13 1q101 0 140.5 -28t39.5 -91q0 -37 -12 -64t-30.5 -42t-47.5 -24 t-56.5 -12t-64.5 -3q-101 0 -174.5 20.5t-122 57t-77.5 95.5t-41 128.5t-12 163.5zM331 -232q0 58 36 89.5t124 31.5q162 0 162 -117q0 -58 -36 -128t-86.5 -117.5t-89.5 -47.5q-17 0 -28.5 9t-11.5 27q0 20 14 40t35.5 46t32.5 50q-37 2 -61.5 7t-47 17t-33 35t-10.5 58z " />
<glyph unicode="&#x2c6;" horiz-adv-x="954" d="M184 1309q3 49 59 98l173 134q36 28 81.5 28t81.5 -28l172 -134q57 -50 60 -98q0 -41 -33 -71.5t-77 -30.5q-21 0 -42.5 8.5t-44.5 26t-38.5 31.5t-41.5 39.5t-36 35.5q-11 -9 -37 -35t-42 -40t-39 -32t-44.5 -26t-42.5 -8q-44 0 -76.5 30.5t-32.5 71.5z" />
<glyph unicode="&#x2da;" horiz-adv-x="1338" d="M377 1411q0 99 70 169t171 70q100 0 169.5 -70t69.5 -169q0 -100 -69 -169t-170 -69t-171 69t-70 169zM521 1411.5q0 -39.5 29 -68t68.5 -28.5t68 28.5t28.5 67.5q0 40 -28.5 69.5t-68 29.5t-68.5 -29.5t-29 -69z" />
<glyph unicode="&#x2dc;" horiz-adv-x="908" d="M86 1348q0 74 58 124.5t134 50.5q42 0 81 -14t63 -30.5t51.5 -30t49.5 -13.5q19 0 33 8t24 19.5t20 23.5t25.5 20t35.5 8q43 0 75.5 -30t32.5 -75q0 -44 -31.5 -82t-76.5 -58t-89 -20q-39 0 -77.5 12.5t-63.5 28t-53.5 30t-49.5 16.5q-17 3 -32 -4t-25.5 -19t-21.5 -24.5 t-27 -21.5t-36 -9q-36 0 -66 25.5t-34 64.5z" />
<glyph unicode="&#x1e80;" horiz-adv-x="1817" d="M27 1426q0 58 50.5 95t112.5 37q51 0 91 -26.5t52 -78.5l144 -566q14 -53 24.5 -113.5t21.5 -135t18 -115.5q7 34 26 165.5t35 198.5l130 516q11 43 22 69t31 49t50 33t75 10q78 0 116.5 -40t58.5 -121l127 -516q14 -54 24.5 -115t21 -135t17.5 -116q7 38 18.5 115 t22.5 137t25 114l140 560q13 52 51.5 81.5t89.5 29.5q40 0 77.5 -13.5t65 -45t27.5 -75.5q0 -15 -4 -28l-329 -1277q-17 -61 -61.5 -99.5t-118 -38.5t-118.5 39.5t-63 100.5l-130 536q-13 51 -22.5 109t-19.5 131t-16 111q-7 -38 -17 -111t-19.5 -131t-22.5 -109l-132 -540 q-41 -136 -180 -136q-63 0 -114.5 42.5t-67.5 95.5l-322 1266zM703 1946q0 44 34 75.5t74 31.5q33 0 49.5 -9t40.5 -32l17 -18l178 -173q11 -10 14 -22t3 -32q0 -47 -32.5 -78t-78.5 -31q-23 0 -41 7t-27 13.5t-31 26.5l-180 179q-20 29 -20 62z" />
<glyph unicode="&#x1e81;" horiz-adv-x="1522" d="M33 987q0 51 44 90.5t107 39.5q49 0 89.5 -26.5t52.5 -71.5l95 -362q12 -48 19.5 -104t13 -123.5t10.5 -105.5q6 38 13.5 105.5t16 123.5t21.5 104l87 349q14 49 56.5 80t106.5 31q62 0 104 -31t53 -80l86 -349q12 -49 20.5 -104.5t17.5 -125t14 -105.5q5 38 11 106 t13 124.5t20 104.5l94 362q12 40 53.5 69t89.5 29q60 0 105 -38t45 -95l-1.5 -9t-1.5 -13l-254 -849q-21 -67 -59.5 -97.5t-114.5 -30.5q-58 0 -103.5 29t-59.5 80l-92 351q-11 39 -18 82t-13.5 101.5t-10.5 84.5q-3 -22 -11 -83t-14.5 -103t-16.5 -82l-90 -351 q-15 -58 -56 -83.5t-111 -25.5q-69 0 -110.5 33t-62.5 99l-254 841q-4 10 -4 29zM556 1508q0 44 34.5 75.5t73.5 31.5q33 0 50 -9t40 -33l17 -17l178 -174q12 -10 14.5 -22t2.5 -32q0 -47 -32.5 -77t-78.5 -30q-23 0 -41 6.5t-26.5 13.5t-31.5 26l-179 180q-21 29 -21 61z " />
<glyph unicode="&#x1e82;" horiz-adv-x="1817" d="M27 1426q0 58 50.5 95t112.5 37q51 0 91 -26.5t52 -78.5l144 -566q14 -53 24.5 -113.5t21.5 -135t18 -115.5q7 34 26 165.5t35 198.5l130 516q11 43 22 69t31 49t50 33t75 10q78 0 116.5 -40t58.5 -121l127 -516q14 -54 24.5 -115t21 -135t17.5 -116q7 38 18.5 115 t22.5 137t25 114l140 560q13 52 51.5 81.5t89.5 29.5q40 0 77.5 -13.5t65 -45t27.5 -75.5q0 -15 -4 -28l-329 -1277q-17 -61 -61.5 -99.5t-118 -38.5t-118.5 39.5t-63 100.5l-130 536q-13 51 -22.5 109t-19.5 131t-16 111q-7 -38 -17 -111t-19.5 -131t-22.5 -109l-132 -540 q-41 -136 -180 -136q-63 0 -114.5 42.5t-67.5 95.5l-322 1266zM703 1767q0 30 18 54l177 173l18 18q16 16 25 23t25.5 12.5t39.5 5.5q39 0 73 -31.5t34 -75.5q0 -33 -19 -61l-180 -179q-22 -20 -31 -26.5t-27 -13t-41 -6.5q-46 0 -79 30t-33 77z" />
<glyph unicode="&#x1e83;" horiz-adv-x="1522" d="M33 987q0 51 44 90.5t107 39.5q49 0 89.5 -26.5t52.5 -71.5l95 -362q12 -48 19.5 -104t13 -123.5t10.5 -105.5q6 38 13.5 105.5t16 123.5t21.5 104l87 349q14 49 56.5 80t106.5 31q62 0 104 -31t53 -80l86 -349q12 -49 20.5 -104.5t17.5 -125t14 -105.5q5 38 11 106 t13 124.5t20 104.5l94 362q12 40 53.5 69t89.5 29q60 0 105 -38t45 -95l-1.5 -9t-1.5 -13l-254 -849q-21 -67 -59.5 -97.5t-114.5 -30.5q-58 0 -103.5 29t-59.5 80l-92 351q-11 39 -18 82t-13.5 101.5t-10.5 84.5q-3 -22 -11 -83t-14.5 -103t-16.5 -82l-90 -351 q-15 -58 -56 -83.5t-111 -25.5q-69 0 -110.5 33t-62.5 99l-254 841q-4 10 -4 29zM556 1328q0 30 19 54l176 174l18 17q17 16 25.5 23t25 13t39.5 6q40 0 73.5 -31.5t33.5 -75.5q0 -34 -19 -61l-180 -180q-22 -19 -30.5 -26t-26.5 -13.5t-41 -6.5q-47 0 -80 30t-33 77z" />
<glyph unicode="&#x1e84;" horiz-adv-x="1817" d="M27 1426q0 58 50.5 95t112.5 37q51 0 91 -26.5t52 -78.5l144 -566q14 -53 24.5 -113.5t21.5 -135t18 -115.5q7 34 26 165.5t35 198.5l130 516q11 43 22 69t31 49t50 33t75 10q78 0 116.5 -40t58.5 -121l127 -516q14 -54 24.5 -115t21 -135t17.5 -116q7 38 18.5 115 t22.5 137t25 114l140 560q13 52 51.5 81.5t89.5 29.5q40 0 77.5 -13.5t65 -45t27.5 -75.5q0 -15 -4 -28l-329 -1277q-17 -61 -61.5 -99.5t-118 -38.5t-118.5 39.5t-63 100.5l-130 536q-13 51 -22.5 109t-19.5 131t-16 111q-7 -38 -17 -111t-19.5 -131t-22.5 -109l-132 -540 q-41 -136 -180 -136q-63 0 -114.5 42.5t-67.5 95.5l-322 1266zM570 1819q0 55 41 94.5t99 39.5q61 0 103 -39t42 -95q0 -58 -42 -98t-103 -40q-58 0 -99 40.5t-41 97.5zM960 1819q0 55 43 94.5t102.5 39.5t101 -39t41.5 -95q0 -58 -41.5 -98t-101 -40t-102.5 41t-43 97z" />
<glyph unicode="&#x1e85;" horiz-adv-x="1522" d="M33 987q0 51 44 90.5t107 39.5q49 0 89.5 -26.5t52.5 -71.5l95 -362q12 -48 19.5 -104t13 -123.5t10.5 -105.5q6 38 13.5 105.5t16 123.5t21.5 104l87 349q14 49 56.5 80t106.5 31q62 0 104 -31t53 -80l86 -349q12 -49 20.5 -104.5t17.5 -125t14 -105.5q5 38 11 106 t13 124.5t20 104.5l94 362q12 40 53.5 69t89.5 29q60 0 105 -38t45 -95l-1.5 -9t-1.5 -13l-254 -849q-21 -67 -59.5 -97.5t-114.5 -30.5q-58 0 -103.5 29t-59.5 80l-92 351q-11 39 -18 82t-13.5 101.5t-10.5 84.5q-3 -22 -11 -83t-14.5 -103t-16.5 -82l-90 -351 q-15 -58 -56 -83.5t-111 -25.5q-69 0 -110.5 33t-62.5 99l-254 841q-4 10 -4 29zM423 1380q0 55 40.5 94.5t99.5 39.5q61 0 102.5 -38.5t41.5 -95.5q0 -58 -41.5 -98t-102.5 -40q-59 0 -99.5 41t-40.5 97zM812 1380q0 55 43 94.5t102.5 39.5t101 -39t41.5 -95 q0 -57 -41.5 -97.5t-101 -40.5t-102.5 41t-43 97z" />
<glyph unicode="&#x1ef2;" horiz-adv-x="1160" d="M27 1422q0 57 47.5 99.5t107.5 42.5q37 0 71.5 -16t53.5 -49l274 -543l272 543q19 33 53 49t73 16q60 0 108 -42.5t48 -99.5q0 -18 -15 -63l-384 -754v-480q0 -58 -45 -101t-110 -43t-110.5 42t-45.5 102v480l-385 754q-13 30 -13 63zM308 1946q0 44 34.5 75.5t73.5 31.5 q33 0 49.5 -9t40.5 -32l17 -18l178 -173q11 -10 14 -22t3 -32q0 -47 -32.5 -77t-78.5 -30q-23 0 -41 6.5t-27 13t-31 26.5l-180 179q-20 29 -20 61z" />
<glyph unicode="&#x1ef3;" horiz-adv-x="1037" d="M35 989q0 55 43.5 91.5t107.5 36.5q46 0 83 -23.5t55 -68.5l138 -368q18 -46 41 -136.5t30 -114.5q6 24 17 78t21.5 96t22.5 77l119 368q13 45 53.5 68.5t88.5 23.5q60 0 105.5 -37.5t45.5 -95.5q0 -23 -7 -39l-267 -780q-1 -3 -4 -10q-33 -98 -50 -145.5t-49 -125 t-57 -115t-65.5 -87t-83 -72t-101 -39t-127.5 -16.5q-66 0 -109.5 37t-43.5 94q0 52 39.5 90.5t104.5 41.5q71 3 114 58.5t83 186.5l-337 870q-11 27 -11 56zM312 1508q0 44 34.5 75.5t74.5 31.5q32 0 49 -9t40 -33l18 -17l177 -174q12 -10 14.5 -22t2.5 -32q0 -47 -32 -77 t-79 -30q-23 0 -41 6.5t-26.5 13.5t-30.5 26l-180 180q-21 29 -21 61z" />
<glyph unicode="&#x2000;" horiz-adv-x="1044" />
<glyph unicode="&#x2001;" horiz-adv-x="2089" />
<glyph unicode="&#x2002;" horiz-adv-x="1044" />
<glyph unicode="&#x2003;" horiz-adv-x="2089" />
<glyph unicode="&#x2004;" horiz-adv-x="696" />
<glyph unicode="&#x2005;" horiz-adv-x="522" />
<glyph unicode="&#x2006;" horiz-adv-x="348" />
<glyph unicode="&#x2007;" horiz-adv-x="348" />
<glyph unicode="&#x2008;" horiz-adv-x="261" />
<glyph unicode="&#x2009;" horiz-adv-x="417" />
<glyph unicode="&#x200a;" horiz-adv-x="116" />
<glyph unicode="&#x2010;" horiz-adv-x="961" d="M61 657q0 55 43 94.5t105 39.5h545q61 0 103 -39.5t42 -94.5q0 -57 -41.5 -95.5t-103.5 -38.5h-545q-63 0 -105.5 38t-42.5 96z" />
<glyph unicode="&#x2011;" horiz-adv-x="961" d="M61 657q0 55 43 94.5t105 39.5h545q61 0 103 -39.5t42 -94.5q0 -57 -41.5 -95.5t-103.5 -38.5h-545q-63 0 -105.5 38t-42.5 96z" />
<glyph unicode="&#x2012;" horiz-adv-x="961" d="M61 657q0 55 43 94.5t105 39.5h545q61 0 103 -39.5t42 -94.5q0 -57 -41.5 -95.5t-103.5 -38.5h-545q-63 0 -105.5 38t-42.5 96z" />
<glyph unicode="&#x2013;" horiz-adv-x="1031" d="M61 640q0 55 43 95.5t105 40.5h613q62 0 104 -40.5t42 -95.5q0 -56 -43 -95t-103 -39h-613q-63 0 -105.5 39t-42.5 95z" />
<glyph unicode="&#x2014;" horiz-adv-x="1248" d="M61 640q0 55 43 95.5t105 40.5h832q62 0 104.5 -40.5t42.5 -95.5q0 -56 -43.5 -95t-103.5 -39h-832q-63 0 -105.5 39t-42.5 95z" />
<glyph unicode="&#x2018;" horiz-adv-x="588" d="M111 1140q0 50 17.5 125.5t45 148t66.5 124t78 51.5q16 0 30.5 -3.5t31 -13t24 -30.5t4.5 -51q-3 -31 -17.5 -59.5t-31.5 -62.5t-24 -74q63 -13 102.5 -59t39.5 -105q0 -69 -53.5 -119t-130.5 -50q-74 0 -128 50t-54 128z" />
<glyph unicode="&#x2019;" horiz-adv-x="590" d="M111 1420q0 69 54 119t130 50q75 0 128.5 -50t53.5 -128q0 -50 -17 -125.5t-44 -148t-66.5 -124t-77.5 -51.5q-16 0 -31 3.5t-31 13t-24 30.5t-4 51q3 31 17 59.5t31.5 62.5t24.5 74q-63 13 -103.5 59t-40.5 105z" />
<glyph unicode="&#x201a;" horiz-adv-x="590" d="M111 151q0 69 54 119t130 50q75 0 128.5 -50t53.5 -128q0 -50 -17 -125.5t-44 -148t-66.5 -124t-77.5 -51.5q-16 0 -31 3.5t-31 13t-24 30.5t-4 51q3 31 17 59.5t31.5 62.5t24.5 74q-63 13 -103.5 59t-40.5 105z" />
<glyph unicode="&#x201c;" horiz-adv-x="1029" d="M111 1140q0 50 17.5 125.5t45 148t66.5 124t78 51.5q16 0 30.5 -3.5t31 -13t24 -30.5t4.5 -51q-3 -31 -17.5 -59.5t-31.5 -62.5t-24 -74q63 -13 102.5 -59t39.5 -105q0 -69 -53.5 -119t-130.5 -50q-74 0 -128 50t-54 128zM552 1140q0 50 17.5 125.5t44.5 148t66.5 124 t78.5 51.5q16 0 30.5 -3.5t30.5 -13t24 -30.5t5 -51q-3 -31 -17.5 -59.5t-31.5 -62.5t-24 -74q62 -13 102 -59t40 -105q0 -69 -53.5 -119t-130.5 -50q-75 0 -128.5 50t-53.5 128z" />
<glyph unicode="&#x201d;" horiz-adv-x="1029" d="M111 1420q0 69 54 119t130 50q75 0 128.5 -50t53.5 -128q0 -50 -17 -125.5t-44 -148t-66.5 -124t-77.5 -51.5q-16 0 -31 3.5t-31 13t-24 30.5t-4 51q3 31 17 59.5t31.5 62.5t24.5 74q-63 13 -103.5 59t-40.5 105zM552 1420q0 69 54 119t130 50q75 0 128.5 -50t53.5 -128 q0 -50 -17 -125.5t-44 -148t-66.5 -124t-77.5 -51.5q-16 0 -31 3.5t-31 13t-24 30.5t-4 51q3 36 33 91.5t38 104.5q-62 13 -102 59t-40 105z" />
<glyph unicode="&#x201e;" horiz-adv-x="1029" d="M111 149q0 69 54 119t130 50q75 0 128.5 -50t53.5 -128q0 -50 -17 -125.5t-44 -148t-66.5 -124t-77.5 -51.5q-16 0 -31 3.5t-31 13t-24 30.5t-4 51q3 30 17 58.5t31.5 63t24.5 74.5q-63 13 -103.5 59t-40.5 105zM552 149q0 69 54 119t130 50q75 0 128.5 -50t53.5 -128 q0 -50 -17 -125.5t-44 -148t-66.5 -124t-77.5 -51.5q-16 0 -31 3.5t-31 13t-24 30.5t-4 51q3 36 33 91.5t38 104.5q-62 13 -102 58.5t-40 105.5z" />
<glyph unicode="&#x2022;" horiz-adv-x="663" d="M125 600q0 84 61 145.5t145 61.5q85 0 146.5 -61.5t61.5 -145.5q0 -85 -61.5 -146t-146.5 -61q-84 0 -145 61t-61 146z" />
<glyph unicode="&#x2026;" horiz-adv-x="1730" d="M111 150.5q0 69.5 54 119.5t130 50q74 0 128 -50t54 -119t-54 -119.5t-128 -50.5q-76 0 -130 50t-54 119.5zM682 150.5q0 69.5 53.5 119.5t130.5 50q74 0 128 -50t54 -119t-54.5 -119.5t-127.5 -50.5q-77 0 -130.5 50t-53.5 119.5zM1251 150.5q0 69.5 53.5 119.5 t130.5 50q74 0 128 -50t54 -119t-54 -119.5t-128 -50.5q-77 0 -130.5 50t-53.5 119.5z" />
<glyph unicode="&#x202f;" horiz-adv-x="417" />
<glyph unicode="&#x2039;" horiz-adv-x="696" d="M67 561l334 502q18 29 36 43t46 14q39 0 71.5 -36t32.5 -89q0 -26 -10 -42l-266 -388l285 -412q11 -13 11 -36q0 -55 -31 -94.5t-78 -39.5q-29 0 -46 12.5t-38 46.5z" />
<glyph unicode="&#x203a;" horiz-adv-x="696" d="M90 117q0 23 11 36l284 412l-264 388q-12 18 -12 42q0 52 33 88.5t73 36.5q28 0 45 -14t35 -43l334 -502l-347 -519q-21 -34 -38 -46.5t-45 -12.5q-48 0 -78.5 39.5t-30.5 94.5z" />
<glyph unicode="&#x205f;" horiz-adv-x="522" />
<glyph unicode="&#x20ac;" d="M21 629q0 34 26 57.5t60 23.5h79v122h-79q-36 0 -61 23.5t-25 58.5q0 34 26 57.5t60 23.5h79v84q0 111 31 199.5t93.5 152.5t161.5 98.5t229 34.5q109 0 209 -31.5t161.5 -86t61.5 -116.5q0 -54 -41.5 -93t-102.5 -39q-15 0 -26 1.5t-21.5 6t-15.5 7t-16 9.5t-15 10 q-51 35 -92 50t-90 15q-121 0 -170.5 -55t-49.5 -163v-84h333q34 0 60 -23.5t26 -57.5q0 -35 -25 -58.5t-61 -23.5h-333v-122h245q34 0 60 -23.5t26 -57.5t-25 -57.5t-61 -23.5h-245v-79q0 -109 50 -164.5t170 -55.5q48 0 90.5 16.5t99.5 56.5q2 1 10.5 6t11 6t9.5 4.5 t11.5 4.5t11.5 3t14.5 2.5t17.5 0.5q61 0 102.5 -39t41.5 -93q0 -62 -61.5 -116.5t-161.5 -86t-209 -31.5q-130 0 -229 34.5t-161.5 98.5t-93.5 152.5t-31 200.5v79h-79q-36 0 -61 23.5t-25 57.5z" />
<glyph unicode="&#x2122;" horiz-adv-x="1737" d="M21 1449q0 43 30 73t74 30h515q41 0 72 -30.5t31 -72.5q0 -44 -30 -72.5t-73 -28.5h-153v-625q0 -42 -31 -71t-75 -29q-42 0 -72.5 29.5t-30.5 70.5v625h-153q-44 0 -74 28.5t-30 72.5zM811 721v734q0 47 29.5 77t75.5 30q33 0 59.5 -15.5t40.5 -45.5l207 -422l205 422 v-2q30 63 102 63q40 0 72.5 -33t32.5 -74v-734q0 -39 -31 -68.5t-70 -29.5q-42 0 -72.5 29.5t-30.5 68.5v419q-68 -135 -112 -228q-14 -31 -39.5 -46t-56.5 -15q-30 0 -58 17t-40 44q-24 47 -42 82t-30.5 60.5t-40.5 85.5v-419q0 -39 -31 -68.5t-69 -29.5q-42 0 -71.5 29 t-29.5 69z" />
<glyph unicode="&#x25fc;" horiz-adv-x="1117" d="M0 0v1117h1117v-1117h-1117z" />
</font>
</defs>
</svg>
